SplineFontDB: 3.2
FontName: KAEZMain-Regular
FullName: KA EZ Main Regular
FamilyName: KA EZ Main
Weight: Book
Copyright: SIL OPEN FONT LICENSE Version 1.1
Version: 1.000
ItalicAngle: 0
UnderlinePosition: -100
UnderlineWidth: 50
Ascent: 800
Descent: 200
InvalidEm: 0
sfntRevision: 0x00010000
LayerCount: 2
Layer: 0 1 "Back" 1
Layer: 1 1 "Fore" 0
XUID: [1021 596 -667042339 5659426]
StyleMap: 0x0040
FSType: 8
OS2Version: 3
OS2_WeightWidthSlopeOnly: 0
OS2_UseTypoMetrics: 0
CreationTime: 1487363816
ModificationTime: 1588781462
PfmFamily: 81
TTFWeight: 400
TTFWidth: 5
LineGap: 0
VLineGap: 0
Panose: 0 0 5 0 0 0 0 0 0 0
OS2TypoAscent: 800
OS2TypoAOffset: 0
OS2TypoDescent: -200
OS2TypoDOffset: 0
OS2TypoLinegap: 200
OS2WinAscent: 1000
OS2WinAOffset: 0
OS2WinDescent: 200
OS2WinDOffset: 0
HheadAscent: 1000
HheadAOffset: 0
HheadDescent: -200
HheadDOffset: 0
OS2SubXSize: 650
OS2SubYSize: 600
OS2SubXOff: 0
OS2SubYOff: 75
OS2SupXSize: 650
OS2SupYSize: 600
OS2SupXOff: 0
OS2SupYOff: 350
OS2StrikeYSize: 50
OS2StrikeYPos: 300
OS2CapHeight: 700
OS2XHeight: 500
OS2Vendor: 'UKWN'
OS2CodePages: 00000001.00000000
OS2UnicodeRanges: 00000001.00000000.00000000.00000000
DEI: 91125
ShortTable: maxp 16
  1
  0
  103
  245
  10
  250
  4
  1
  2
  30
  6
  0
  100
  0
  2
  3
EndShort
LangName: 1033 "" "" "" "1.000;UKWN;KAEZMain-Regular" "" "Version 1.000" "" "" "" "Trevor Bullock"
Encoding: UnicodeBmp
Compacted: 1
UnicodeInterp: none
NameList: AGL For New Fonts
DisplaySize: -128
AntiAlias: 1
FitToEm: 1
WinInfo: 0 14 6
BeginChars: 65537 103

StartChar: .notdef
Encoding: 65536 -1 0
Width: 500
GlyphClass: 1
Flags: W
LayerCount: 2
Fore
SplineSet
410 -200 m 1,0,-1
 93 -200 l 1,1,-1
 93 800 l 1,2,-1
 410 800 l 1,3,-1
 410 -200 l 1,0,-1
168 733 m 1,4,-1
 168 700 l 1,5,-1
 233 700 l 1,6,-1
 233 663 l 1,7,-1
 167 663 l 1,8,-1
 167 630 l 1,9,-1
 333 630 l 1,10,-1
 333 663 l 1,11,-1
 267 663 l 1,12,-1
 267 700 l 1,13,-1
 333 700 l 1,14,-1
 333 733 l 1,15,-1
 168 733 l 1,4,-1
167 604 m 1,16,-1
 167 500 l 1,17,-1
 333 500 l 1,18,-1
 333 534 l 1,19,-1
 267 534 l 1,20,-1
 267 604 l 1,21,-1
 167 604 l 1,16,-1
233 534 m 1,22,-1
 200 534 l 1,23,-1
 200 570 l 1,24,-1
 233 570 l 1,25,-1
 233 534 l 1,22,-1
167 473 m 1,26,-1
 167 440 l 1,27,-1
 233 440 l 1,28,-1
 233 403 l 1,29,-1
 167 403 l 1,30,-1
 167 370 l 1,31,-1
 267 370 l 1,32,-1
 267 440 l 1,33,-1
 333 440 l 1,34,-1
 333 473 l 1,35,-1
 167 473 l 1,26,-1
300 413 m 1,36,-1
 300 347 l 1,37,-1
 167 347 l 1,38,-1
 167 313 l 1,39,-1
 333 313 l 1,40,-1
 333 413 l 1,41,-1
 300 413 l 1,36,-1
233 291 m 1,42,-1
 233 235 l 1,43,-1
 267 235 l 1,44,-1
 267 258 l 1,45,-1
 300 258 l 1,46,-1
 300 211 l 1,47,-1
 200 211 l 1,48,-1
 200 291 l 1,49,-1
 167 291 l 1,50,-1
 167 178 l 1,51,-1
 333 178 l 1,52,-1
 333 291 l 1,53,-1
 233 291 l 1,42,-1
167 118 m 1,54,-1
 167 5 l 1,55,-1
 333 5 l 1,56,-1
 333 118 l 1,57,-1
 167 118 l 1,54,-1
300 38 m 1,58,-1
 200 38 l 1,59,-1
 200 85 l 1,60,-1
 300 85 l 1,61,-1
 300 38 l 1,58,-1
167 -18 m 1,62,-1
 167 -51 l 1,63,-1
 237 -51 l 1,64,-1
 167 -98 l 1,65,-1
 167 -131 l 1,66,-1
 333 -131 l 1,67,-1
 333 -98 l 1,68,-1
 231 -98 l 1,69,-1
 301 -51 l 1,70,-1
 333 -51 l 1,71,-1
 333 -18 l 1,72,-1
 167 -18 l 1,62,-1
EndSplineSet
EndChar

StartChar: B
Encoding: 66 66 3
Width: 0
GlyphClass: 1
Flags: W
LayerCount: 2
Fore
SplineSet
-802 -376.5 m 128,-1,1
 -851 -366 -851 -366 -931 -343 c 0,2,3
 -994 -325 -994 -325 -1135 -258.5 c 128,-1,4
 -1276 -192 -1276 -192 -1331 -160 c 2,5,-1
 -1418 -109 l 2,6,7
 -1424 -106 -1424 -106 -1424 -99 c 256,8,9
 -1424 -92 -1424 -92 -1416.5 -85.5 c 128,-1,10
 -1409 -79 -1409 -79 -1398 -79 c 0,11,12
 -1389 -79 -1389 -79 -1380 -83 c 0,13,14
 -1370 -87 -1370 -87 -1345.5 -101.5 c 128,-1,15
 -1321 -116 -1321 -116 -1308 -123 c 2,16,-1
 -1273 -143 l 2,17,18
 -1215 -176 -1215 -176 -1066 -249 c 0,19,20
 -974 -293 -974 -293 -865 -320.5 c 128,-1,21
 -756 -348 -756 -348 -680 -348 c 0,22,23
 -610 -348 -610 -348 -529.5 -327.5 c 128,-1,24
 -449 -307 -449 -307 -404 -274 c 0,25,26
 -291 -187 -291 -187 -248 -149 c 0,27,28
 -187 -94 -187 -94 -140 -87 c 1,29,-1
 -108 -85 l 2,30,31
 -4 -79 -4 -79 38 -79 c 0,32,33
 71 -79 71 -79 89 -80 c 0,34,35
 101 -83 101 -83 101 -94 c 0,36,37
 101 -99 101 -99 97.5 -103 c 128,-1,38
 94 -107 94 -107 88 -107 c 2,39,-1
 71 -107 l 2,40,41
 53 -108 53 -108 18.5 -129 c 128,-1,42
 -16 -150 -16 -150 -73 -190 c 2,43,-1
 -125 -225 l 2,44,45
 -207 -280 -207 -280 -250 -304.5 c 128,-1,46
 -293 -329 -293 -329 -358 -355 c 0,47,48
 -403 -374 -403 -374 -477 -382.5 c 128,-1,49
 -551 -391 -551 -391 -629 -391 c 0,50,51
 -670 -391 -670 -391 -688 -390 c 0,52,0
 -753 -387 -753 -387 -802 -376.5 c 128,-1,1
EndSplineSet
EndChar

StartChar: C
Encoding: 67 67 4
Width: 1609
GlyphClass: 1
Flags: W
LayerCount: 2
Fore
SplineSet
243 244 m 256,1,2
 210 244 210 244 179 251 c 0,3,4
 125 263 125 263 91.5 284.5 c 128,-1,5
 58 306 58 306 41 351 c 0,6,7
 30 380 30 380 30 410 c 0,8,9
 30 470 30 470 78.5 511 c 128,-1,10
 127 552 127 552 209 566 c 0,11,12
 263 575 263 575 315 575 c 0,13,14
 514 575 514 575 725 454 c 1,15,-1
 762 434 l 2,16,17
 781 424 781 424 823 400 c 0,18,19
 899 354 899 354 941 332 c 0,20,21
 979 312 979 312 999 297 c 128,-1,22
 1019 282 1019 282 1014 266 c 0,23,24
 1012 257 1012 257 1008 253.5 c 128,-1,25
 1004 250 1004 250 995 250 c 2,26,-1
 899 250 l 2,27,28
 833 250 833 250 812 249 c 2,29,-1
 784 249 l 2,30,31
 765 249 765 249 760.5 250 c 128,-1,32
 756 251 756 251 752 255 c 0,33,34
 746 261 746 261 746 265 c 0,35,36
 746 271 746 271 759 275 c 0,37,38
 816 296 816 296 816 324 c 0,39,40
 816 340 816 340 798.5 359 c 128,-1,41
 781 378 781 378 746 404 c 0,42,43
 718 425 718 425 689 440 c 128,-1,44
 660 455 660 455 601 483 c 2,45,-1
 566 499 l 2,46,47
 527 518 527 518 472.5 528.5 c 128,-1,48
 418 539 418 539 364 539 c 256,49,50
 310 539 310 539 269 527 c 0,51,52
 220 512 220 512 192 472 c 128,-1,53
 164 432 164 432 164 379 c 0,54,55
 164 297 164 297 239 279 c 0,56,57
 269 272 269 272 287 271 c 0,58,59
 302 270 302 270 302 259 c 0,60,61
 302 252 302 252 295 250 c 0,62,0
 276 244 276 244 243 244 c 256,1,2
530 186.5 m 128,-1,64
 509 189 509 189 505 191 c 0,65,66
 501 194 501 194 501 197 c 0,67,68
 501 202 501 202 508.5 206 c 128,-1,69
 516 210 516 210 524 210 c 256,70,71
 532 210 532 210 546 221 c 128,-1,72
 560 232 560 232 572.5 250.5 c 128,-1,73
 585 269 585 269 590 290 c 0,74,75
 592 300 592 300 592 306 c 0,76,77
 592 351 592 351 530 383 c 0,78,79
 442 427 442 427 330 435 c 1,80,-1
 294 436 l 2,81,82
 257 436 257 436 255 437 c 0,83,84
 247 441 247 441 247 449 c 0,85,86
 247 454 247 454 250.5 457.5 c 128,-1,87
 254 461 254 461 259 461 c 0,88,89
 279 461 279 461 301 459 c 0,90,91
 393 451 393 451 469 433 c 0,92,93
 517 421 517 421 560.5 404 c 128,-1,94
 604 387 604 387 631 369 c 0,95,96
 662 349 662 349 683.5 318.5 c 128,-1,97
 705 288 705 288 702 259 c 0,98,99
 694 208 694 208 627 191 c 0,100,101
 602 184 602 184 575 184 c 0,102,63
 551 184 551 184 530 186.5 c 128,-1,64
1127 189 m 0,104,105
 1114 190 1114 190 1109 196.5 c 128,-1,106
 1104 203 1104 203 1094 226 c 2,107,-1
 1078 265 l 2,108,109
 1068 293 1068 293 1050 336 c 0,110,111
 1046 345 1046 345 1043 347.5 c 128,-1,112
 1040 350 1040 350 1030 352 c 0,113,114
 1023 353 1023 353 1019 359 c 128,-1,115
 1015 365 1015 365 1015 371 c 0,116,117
 1015 385 1015 385 1030 385 c 2,118,-1
 1070 385 l 2,119,120
 1124 385 1124 385 1147 382 c 0,121,122
 1156 381 1156 381 1163.5 367.5 c 128,-1,123
 1171 354 1171 354 1182 324 c 0,124,125
 1207 256 1207 256 1221 231 c 0,126,127
 1227 220 1227 220 1230.5 217.5 c 128,-1,128
 1234 215 1234 215 1243 213 c 0,129,130
 1247 211 1247 211 1250.5 206.5 c 128,-1,131
 1254 202 1254 202 1254 197 c 256,132,133
 1254 192 1254 192 1249.5 188.5 c 128,-1,134
 1245 185 1245 185 1236 185 c 0,135,103
 1153 185 1153 185 1127 189 c 0,104,105
1367 189 m 0,137,138
 1354 190 1354 190 1349 196.5 c 128,-1,139
 1344 203 1344 203 1334 226 c 2,140,-1
 1318 265 l 2,141,142
 1308 293 1308 293 1290 336 c 0,143,144
 1286 345 1286 345 1283 347.5 c 128,-1,145
 1280 350 1280 350 1270 352 c 0,146,147
 1263 353 1263 353 1259 359 c 128,-1,148
 1255 365 1255 365 1255 371 c 0,149,150
 1255 385 1255 385 1270 385 c 2,151,-1
 1310 385 l 2,152,153
 1364 385 1364 385 1387 382 c 0,154,155
 1396 381 1396 381 1403.5 367.5 c 128,-1,156
 1411 354 1411 354 1422 324 c 0,157,158
 1447 256 1447 256 1461 231 c 0,159,160
 1467 220 1467 220 1470.5 217.5 c 128,-1,161
 1474 215 1474 215 1483 213 c 0,162,163
 1487 211 1487 211 1490.5 206.5 c 128,-1,164
 1494 202 1494 202 1494 197 c 256,165,166
 1494 192 1494 192 1489.5 188.5 c 128,-1,167
 1485 185 1485 185 1476 185 c 0,168,136
 1393 185 1393 185 1367 189 c 0,137,138
1513 5 m 0,170,171
 1493 7 1493 7 1468 7 c 2,172,-1
 274 7 l 2,173,174
 238 7 238 7 212 15 c 0,175,176
 194 21 194 21 170 36 c 0,177,178
 148 50 148 50 119 88 c 2,179,-1
 101 113 l 2,180,181
 100 115 100 115 100 119 c 0,182,183
 100 125 100 125 103.5 130 c 128,-1,184
 107 135 107 135 112 135 c 0,185,186
 118 135 118 135 124 131 c 0,187,188
 141 120 141 120 164 115 c 0,189,190
 179 112 179 112 206 112 c 2,191,-1
 1413 112 l 2,192,193
 1465 112 1465 112 1494 96 c 0,194,195
 1510 87 1510 87 1519 80 c 128,-1,196
 1528 73 1528 73 1545 56 c 0,197,198
 1561 40 1561 40 1570 27.5 c 128,-1,199
 1579 15 1579 15 1579 4 c 0,200,201
 1579 -4 1579 -4 1577 -7 c 0,202,203
 1575 -12 1575 -12 1571 -13.5 c 128,-1,204
 1567 -15 1567 -15 1562 -12 c 0,205,169
 1542 2 1542 2 1513 5 c 0,170,171
EndSplineSet
EndChar

StartChar: D
Encoding: 68 68 5
Width: 0
GlyphClass: 1
Flags: W
LayerCount: 2
Fore
SplineSet
-216 -298 m 2,0,1
 -233 -298 -233 -298 -235 -292 c 0,2,3
 -236 -288 -236 -288 -231 -285 c 0,4,5
 -225 -281 -225 -281 -224 -270 c 2,6,-1
 -219 -227 l 2,7,8
 -216 -200 -216 -200 -193 -200 c 2,9,-1
 -139 -200 l 2,10,11
 -117 -200 -117 -200 -114 -203 c 0,12,13
 -113 -204 -113 -204 -113 -206 c 0,14,15
 -113 -211 -113 -211 -117 -213 c 0,16,17
 -119 -214 -119 -214 -119.5 -218.5 c 128,-1,18
 -120 -223 -120 -223 -121 -227 c 2,19,-1
 -127 -270 l 2,20,21
 -131 -298 -131 -298 -152 -298 c 2,22,-1
 -206 -298 l 1,23,-1
 -216 -298 l 2,0,1
EndSplineSet
EndChar

StartChar: E
Encoding: 69 69 6
Width: 1021
GlyphClass: 1
Flags: W
LayerCount: 2
Fore
SplineSet
228 290 m 0,1,2
 199 290 199 290 166 296 c 0,3,4
 115 307 115 307 84 327 c 128,-1,5
 53 347 53 347 38 389 c 0,6,7
 28 416 28 416 28 444 c 0,8,9
 28 500 28 500 73 538 c 128,-1,10
 118 576 118 576 194 589 c 0,11,12
 238 597 238 597 293 597 c 0,13,14
 478 597 478 597 674 485 c 0,15,16
 681 481 681 481 689 477 c 128,-1,17
 697 473 697 473 706 467 c 0,18,19
 739 450 739 450 765 434 c 0,20,21
 783 424 783 424 792 418 c 0,22,23
 842 388 842 388 875 371 c 0,24,25
 912 352 912 352 930 338.5 c 128,-1,26
 948 325 948 325 943 310 c 0,27,28
 941 302 941 302 937 298.5 c 128,-1,29
 933 295 933 295 925 295 c 2,30,-1
 836 295 l 2,31,32
 774 295 774 295 756 294 c 2,33,-1
 730 294 l 2,34,35
 712 294 712 294 707.5 295 c 128,-1,36
 703 296 703 296 699 300 c 0,37,38
 694 305 694 305 694 309 c 0,39,40
 694 314 694 314 706 318 c 0,41,42
 759 338 759 338 759 364 c 0,43,44
 759 379 759 379 742.5 397 c 128,-1,45
 726 415 726 415 694 438 c 0,46,47
 665 459 665 459 634.5 474.5 c 128,-1,48
 604 490 604 490 549 515 c 0,49,50
 543 518 543 518 537 521 c 128,-1,51
 531 524 531 524 526 526 c 0,52,53
 490 544 490 544 439 554 c 128,-1,54
 388 564 388 564 338 564 c 0,55,56
 284 564 284 564 250 553 c 0,57,58
 205 539 205 539 179 501.5 c 128,-1,59
 153 464 153 464 153 415 c 0,60,61
 153 338 153 338 222 322 c 0,62,63
 251 315 251 315 267 314 c 0,64,65
 281 314 281 314 281 304 c 0,66,67
 281 297 281 297 274 295 c 0,68,0
 256 290 256 290 228 290 c 0,1,2
492 236 m 128,-1,70
 473 238 473 238 470 240 c 0,71,72
 466 243 466 243 466 245 c 0,73,74
 466 249 466 249 473 253 c 128,-1,75
 480 257 480 257 488 257 c 0,76,77
 501 257 501 257 521.5 280 c 128,-1,78
 542 303 542 303 549 332 c 0,79,80
 550 337 550 337 550 346 c 0,81,82
 550 390 550 390 493 419 c 0,83,84
 413 459 413 459 307 466 c 0,85,86
 285 468 285 468 273 468 c 0,87,88
 239 468 239 468 237 469 c 0,89,90
 230 473 230 473 230 480 c 0,91,92
 230 485 230 485 233 488 c 128,-1,93
 236 491 236 491 241 491 c 0,94,95
 259 491 259 491 280 489 c 0,96,97
 358 483 358 483 436 465 c 0,98,99
 480 454 480 454 521 438 c 128,-1,100
 562 422 562 422 587 405 c 0,101,102
 613 388 613 388 632.5 361.5 c 128,-1,103
 652 335 652 335 652 310 c 0,104,105
 652 258 652 258 583 240 c 0,106,107
 563 234 563 234 534 234 c 0,108,69
 511 234 511 234 492 236 c 128,-1,70
776 220 m 0,110,111
 809 220 809 220 840 213 c 0,112,113
 894 201 894 201 927.5 179.5 c 128,-1,114
 961 158 961 158 978 113 c 0,115,116
 989 84 989 84 989 54 c 0,117,118
 989 -6 989 -6 940.5 -47 c 128,-1,119
 892 -88 892 -88 810 -102 c 0,120,121
 756 -111 756 -111 704 -111 c 0,122,123
 505 -111 505 -111 294 10 c 1,124,-1
 257 30 l 2,125,126
 238 40 238 40 196 64 c 0,127,128
 120 110 120 110 78 132 c 0,129,130
 40 152 40 152 20 167 c 128,-1,131
 0 182 0 182 5 198 c 0,132,133
 7 207 7 207 11 210.5 c 128,-1,134
 15 214 15 214 24 214 c 2,135,-1
 120 214 l 2,136,137
 186 214 186 214 207 215 c 2,138,-1
 235 215 l 2,139,140
 254 215 254 215 258.5 214 c 128,-1,141
 263 213 263 213 267 209 c 0,142,143
 273 203 273 203 273 199 c 0,144,145
 273 193 273 193 260 189 c 0,146,147
 203 168 203 168 203 140 c 0,148,149
 203 124 203 124 220.5 105 c 128,-1,150
 238 86 238 86 273 60 c 0,151,152
 301 39 301 39 330 24 c 128,-1,153
 359 9 359 9 418 -19 c 2,154,-1
 453 -35 l 2,155,156
 492 -54 492 -54 546.5 -64.5 c 128,-1,157
 601 -75 601 -75 655 -75 c 256,158,159
 709 -75 709 -75 750 -63 c 0,160,161
 799 -48 799 -48 827 -8 c 128,-1,162
 855 32 855 32 855 85 c 0,163,164
 855 167 855 167 780 185 c 0,165,166
 750 192 750 192 732 193 c 0,167,168
 717 194 717 194 717 205 c 0,169,170
 717 212 717 212 724 214 c 0,171,109
 744 220 744 220 776 220 c 0,110,111
EndSplineSet
EndChar

StartChar: F
Encoding: 70 70 7
Width: 0
GlyphClass: 1
Flags: W
LayerCount: 2
Fore
SplineSet
-311 -298 m 2,0,1
 -328 -298 -328 -298 -330 -292 c 0,2,3
 -331 -288 -331 -288 -326 -285 c 0,4,5
 -320 -281 -320 -281 -319 -270 c 2,6,-1
 -314 -227 l 2,7,8
 -311 -200 -311 -200 -288 -200 c 2,9,-1
 -234 -200 l 2,10,11
 -212 -200 -212 -200 -209 -203 c 0,12,13
 -208 -204 -208 -204 -208 -206 c 0,14,15
 -208 -211 -208 -211 -212 -213 c 0,16,17
 -214 -214 -214 -214 -214.5 -218.5 c 128,-1,18
 -215 -223 -215 -223 -216 -227 c 2,19,-1
 -222 -270 l 2,20,21
 -226 -298 -226 -298 -247 -298 c 2,22,-1
 -301 -298 l 1,23,-1
 -311 -298 l 2,0,1
-131 -298 m 2,24,25
 -148 -298 -148 -298 -150 -292 c 0,26,27
 -151 -288 -151 -288 -146 -285 c 0,28,29
 -140 -281 -140 -281 -139 -270 c 2,30,-1
 -134 -227 l 2,31,32
 -131 -200 -131 -200 -108 -200 c 2,33,-1
 -54 -200 l 2,34,35
 -32 -200 -32 -200 -29 -203 c 0,36,37
 -28 -204 -28 -204 -28 -206 c 0,38,39
 -28 -211 -28 -211 -32 -213 c 0,40,41
 -34 -214 -34 -214 -34.5 -218.5 c 128,-1,42
 -35 -223 -35 -223 -36 -227 c 2,43,-1
 -42 -270 l 2,44,45
 -46 -298 -46 -298 -67 -298 c 2,46,-1
 -121 -298 l 1,47,-1
 -131 -298 l 2,24,25
EndSplineSet
EndChar

StartChar: G
Encoding: 71 71 8
Width: 0
GlyphClass: 1
Flags: W
LayerCount: 2
Fore
SplineSet
-391 -298 m 2,0,1
 -408 -298 -408 -298 -410 -292 c 0,2,3
 -411 -288 -411 -288 -406 -285 c 0,4,5
 -400 -281 -400 -281 -399 -270 c 2,6,-1
 -394 -227 l 2,7,8
 -391 -200 -391 -200 -368 -200 c 2,9,-1
 -314 -200 l 2,10,11
 -292 -200 -292 -200 -289 -203 c 0,12,13
 -288 -204 -288 -204 -288 -206 c 0,14,15
 -288 -211 -288 -211 -292 -213 c 0,16,17
 -294 -214 -294 -214 -294.5 -218.5 c 128,-1,18
 -295 -223 -295 -223 -296 -227 c 2,19,-1
 -302 -270 l 2,20,21
 -306 -298 -306 -298 -327 -298 c 2,22,-1
 -381 -298 l 1,23,-1
 -391 -298 l 2,0,1
-211 -298 m 2,24,25
 -228 -298 -228 -298 -230 -292 c 0,26,27
 -231 -288 -231 -288 -226 -285 c 0,28,29
 -220 -281 -220 -281 -219 -270 c 2,30,-1
 -214 -227 l 2,31,32
 -211 -200 -211 -200 -188 -200 c 2,33,-1
 -134 -200 l 2,34,35
 -112 -200 -112 -200 -109 -203 c 0,36,37
 -108 -204 -108 -204 -108 -206 c 0,38,39
 -108 -211 -108 -211 -112 -213 c 0,40,41
 -114 -214 -114 -214 -114.5 -218.5 c 128,-1,42
 -115 -223 -115 -223 -116 -227 c 2,43,-1
 -122 -270 l 2,44,45
 -126 -298 -126 -298 -147 -298 c 2,46,-1
 -201 -298 l 1,47,-1
 -211 -298 l 2,24,25
-31 -298 m 2,48,49
 -48 -298 -48 -298 -50 -292 c 0,50,51
 -51 -288 -51 -288 -46 -285 c 0,52,53
 -40 -281 -40 -281 -39 -270 c 2,54,-1
 -34 -227 l 2,55,56
 -31 -200 -31 -200 -8 -200 c 2,57,-1
 46 -200 l 2,58,59
 68 -200 68 -200 71 -203 c 0,60,61
 72 -204 72 -204 72 -206 c 0,62,63
 72 -211 72 -211 68 -213 c 0,64,65
 66 -214 66 -214 65.5 -218.5 c 128,-1,66
 65 -223 65 -223 64 -227 c 2,67,-1
 58 -270 l 2,68,69
 54 -298 54 -298 33 -298 c 2,70,-1
 -21 -298 l 1,71,-1
 -31 -298 l 2,48,49
EndSplineSet
EndChar

StartChar: H
Encoding: 72 72 9
Width: 0
GlyphClass: 1
Flags: W
LayerCount: 2
Fore
SplineSet
-491 -298 m 2,0,1
 -508 -298 -508 -298 -510 -292 c 0,2,3
 -511 -288 -511 -288 -506 -285 c 0,4,5
 -500 -281 -500 -281 -499 -270 c 2,6,-1
 -494 -227 l 2,7,8
 -491 -200 -491 -200 -468 -200 c 2,9,-1
 -414 -200 l 2,10,11
 -392 -200 -392 -200 -389 -203 c 0,12,13
 -388 -204 -388 -204 -388 -206 c 0,14,15
 -388 -211 -388 -211 -392 -213 c 0,16,17
 -394 -214 -394 -214 -394.5 -218.5 c 128,-1,18
 -395 -223 -395 -223 -396 -227 c 2,19,-1
 -402 -270 l 2,20,21
 -406 -298 -406 -298 -427 -298 c 2,22,-1
 -481 -298 l 1,23,-1
 -491 -298 l 2,0,1
-311 -298 m 2,24,25
 -328 -298 -328 -298 -330 -292 c 0,26,27
 -331 -288 -331 -288 -326 -285 c 0,28,29
 -320 -281 -320 -281 -319 -270 c 2,30,-1
 -314 -227 l 2,31,32
 -311 -200 -311 -200 -288 -200 c 2,33,-1
 -234 -200 l 2,34,35
 -212 -200 -212 -200 -209 -203 c 0,36,37
 -208 -204 -208 -204 -208 -206 c 0,38,39
 -208 -211 -208 -211 -212 -213 c 0,40,41
 -214 -214 -214 -214 -214.5 -218.5 c 128,-1,42
 -215 -223 -215 -223 -216 -227 c 2,43,-1
 -222 -270 l 2,44,45
 -226 -298 -226 -298 -247 -298 c 2,46,-1
 -301 -298 l 1,47,-1
 -311 -298 l 2,24,25
-131 -298 m 2,48,49
 -148 -298 -148 -298 -150 -292 c 0,50,51
 -151 -288 -151 -288 -146 -285 c 0,52,53
 -140 -281 -140 -281 -139 -270 c 2,54,-1
 -134 -227 l 2,55,56
 -131 -200 -131 -200 -108 -200 c 2,57,-1
 -54 -200 l 2,58,59
 -32 -200 -32 -200 -29 -203 c 0,60,61
 -28 -204 -28 -204 -28 -206 c 0,62,63
 -28 -211 -28 -211 -32 -213 c 0,64,65
 -34 -214 -34 -214 -34.5 -218.5 c 128,-1,66
 -35 -223 -35 -223 -36 -227 c 2,67,-1
 -42 -270 l 2,68,69
 -46 -298 -46 -298 -67 -298 c 2,70,-1
 -121 -298 l 1,71,-1
 -131 -298 l 2,48,49
49 -298 m 2,72,73
 32 -298 32 -298 30 -292 c 0,74,75
 29 -288 29 -288 34 -285 c 0,76,77
 40 -281 40 -281 41 -270 c 2,78,-1
 46 -227 l 2,79,80
 49 -200 49 -200 72 -200 c 2,81,-1
 126 -200 l 2,82,83
 148 -200 148 -200 151 -203 c 0,84,85
 152 -204 152 -204 152 -206 c 0,86,87
 152 -211 152 -211 148 -213 c 0,88,89
 146 -214 146 -214 145.5 -218.5 c 128,-1,90
 145 -223 145 -223 144 -227 c 2,91,-1
 138 -270 l 2,92,93
 134 -298 134 -298 113 -298 c 2,94,-1
 59 -298 l 1,95,-1
 49 -298 l 2,72,73
EndSplineSet
EndChar

StartChar: R
Encoding: 82 82 19
Width: 1021
GlyphClass: 1
Flags: W
LayerCount: 2
Fore
SplineSet
705 303 m 128,-1,1
 695 318 695 318 692 333 c 2,2,-1
 684 368 l 1,3,4
 590 368 590 368 501.5 375.5 c 128,-1,5
 413 383 413 383 363 391 c 0,6,7
 235 411 235 411 188 491 c 0,8,9
 170 521 170 521 132.5 588 c 128,-1,10
 95 655 95 655 80 690 c 0,11,12
 60 735 60 735 54 738 c 0,13,14
 30 747 30 747 30 757 c 0,15,16
 30 762 30 762 37 766 c 0,17,18
 39 768 39 768 70.5 769 c 128,-1,19
 102 770 102 770 138 770 c 0,20,21
 171 770 171 770 211 768 c 0,22,23
 231 767 231 767 245.5 739.5 c 128,-1,24
 260 712 260 712 274 662 c 0,25,26
 280 642 280 642 284.5 624.5 c 128,-1,27
 289 607 289 607 293 592 c 0,28,29
 309 526 309 526 320.5 501.5 c 128,-1,30
 332 477 332 477 360 456 c 0,31,32
 407 422 407 422 494.5 407.5 c 128,-1,33
 582 393 582 393 681 395 c 1,34,-1
 670 458 l 2,35,36
 669 462 669 462 665.5 465.5 c 128,-1,37
 662 469 662 469 661 470 c 256,38,39
 660 471 660 471 656.5 474.5 c 128,-1,40
 653 478 653 478 652.5 480 c 128,-1,41
 652 482 652 482 653 484 c 0,42,43
 657 489 657 489 689.5 491 c 128,-1,44
 722 493 722 493 744 491 c 0,45,46
 753 490 753 490 763 476 c 128,-1,47
 773 462 773 462 776 446 c 2,48,-1
 785 395 l 1,49,50
 849 397 849 397 868 400 c 0,51,52
 881 403 881 403 894.5 405 c 128,-1,53
 908 407 908 407 916 407 c 0,54,55
 922 407 922 407 925 403 c 128,-1,56
 928 399 928 399 928 393 c 0,57,58
 928 386 928 386 924 383 c 0,59,60
 913 374 913 374 887 371 c 0,61,62
 847 367 847 367 788 368 c 1,63,64
 790 361 790 361 792 348.5 c 128,-1,65
 794 336 794 336 796 333 c 0,66,67
 799 328 799 328 807.5 316 c 128,-1,68
 816 304 816 304 816 298 c 0,69,70
 816 288 816 288 780 288 c 2,71,-1
 725 288 l 2,72,0
 715 288 715 288 705 303 c 128,-1,1
776 220 m 0,74,75
 809 220 809 220 840 213 c 0,76,77
 894 201 894 201 927.5 179.5 c 128,-1,78
 961 158 961 158 978 113 c 0,79,80
 989 84 989 84 989 54 c 0,81,82
 989 -6 989 -6 940.5 -47 c 128,-1,83
 892 -88 892 -88 810 -102 c 0,84,85
 756 -111 756 -111 704 -111 c 0,86,87
 505 -111 505 -111 294 10 c 1,88,-1
 257 30 l 2,89,90
 238 40 238 40 196 64 c 0,91,92
 120 110 120 110 78 132 c 0,93,94
 40 152 40 152 20 167 c 128,-1,95
 0 182 0 182 5 198 c 0,96,97
 7 207 7 207 11 210.5 c 128,-1,98
 15 214 15 214 24 214 c 2,99,-1
 120 214 l 2,100,101
 186 214 186 214 207 215 c 2,102,-1
 235 215 l 2,103,104
 254 215 254 215 258.5 214 c 128,-1,105
 263 213 263 213 267 209 c 0,106,107
 273 203 273 203 273 199 c 0,108,109
 273 193 273 193 260 189 c 0,110,111
 203 168 203 168 203 140 c 0,112,113
 203 124 203 124 220.5 105 c 128,-1,114
 238 86 238 86 273 60 c 0,115,116
 301 39 301 39 330 24 c 128,-1,117
 359 9 359 9 418 -19 c 2,118,-1
 453 -35 l 2,119,120
 492 -54 492 -54 546.5 -64.5 c 128,-1,121
 601 -75 601 -75 655 -75 c 256,122,123
 709 -75 709 -75 750 -63 c 0,124,125
 799 -48 799 -48 827 -8 c 128,-1,126
 855 32 855 32 855 85 c 0,127,128
 855 167 855 167 780 185 c 0,129,130
 750 192 750 192 732 193 c 0,131,132
 717 194 717 194 717 205 c 0,133,134
 717 212 717 212 724 214 c 0,135,73
 744 220 744 220 776 220 c 0,74,75
EndSplineSet
EndChar

StartChar: T
Encoding: 84 84 21
Width: 1021
GlyphClass: 1
Flags: W
LayerCount: 2
Fore
SplineSet
705 433 m 128,-1,1
 695 448 695 448 692 463 c 2,2,-1
 684 498 l 1,3,4
 590 498 590 498 501.5 505.5 c 128,-1,5
 413 513 413 513 363 521 c 0,6,7
 235 541 235 541 188 621 c 0,8,9
 170 651 170 651 132.5 718 c 128,-1,10
 95 785 95 785 80 820 c 0,11,12
 60 865 60 865 54 868 c 0,13,14
 30 877 30 877 30 887 c 0,15,16
 30 892 30 892 37 896 c 0,17,18
 39 898 39 898 70.5 899 c 128,-1,19
 102 900 102 900 138 900 c 0,20,21
 171 900 171 900 211 898 c 0,22,23
 231 897 231 897 245.5 869.5 c 128,-1,24
 260 842 260 842 274 792 c 0,25,26
 280 772 280 772 284.5 754.5 c 128,-1,27
 289 737 289 737 293 722 c 0,28,29
 309 656 309 656 320.5 631.5 c 128,-1,30
 332 607 332 607 360 586 c 0,31,32
 407 552 407 552 494.5 537.5 c 128,-1,33
 582 523 582 523 681 525 c 1,34,-1
 670 588 l 2,35,36
 669 592 669 592 665.5 595.5 c 128,-1,37
 662 599 662 599 661 600 c 256,38,39
 660 601 660 601 656.5 604.5 c 128,-1,40
 653 608 653 608 652.5 610 c 128,-1,41
 652 612 652 612 653 614 c 0,42,43
 657 619 657 619 689.5 621 c 128,-1,44
 722 623 722 623 744 621 c 0,45,46
 753 620 753 620 763 606 c 128,-1,47
 773 592 773 592 776 576 c 2,48,-1
 785 525 l 1,49,50
 849 527 849 527 868 530 c 0,51,52
 881 533 881 533 894.5 535 c 128,-1,53
 908 537 908 537 916 537 c 0,54,55
 922 537 922 537 925 533 c 128,-1,56
 928 529 928 529 928 523 c 0,57,58
 928 516 928 516 924 513 c 0,59,60
 913 504 913 504 887 501 c 0,61,62
 847 497 847 497 788 498 c 1,63,64
 790 491 790 491 792 478.5 c 128,-1,65
 794 466 794 466 796 463 c 0,66,67
 799 458 799 458 807.5 446 c 128,-1,68
 816 434 816 434 816 428 c 0,69,70
 816 418 816 418 780 418 c 2,71,-1
 725 418 l 2,72,0
 715 418 715 418 705 433 c 128,-1,1
454.5 159.5 m 128,-1,74
 431 162 431 162 427 164 c 0,75,76
 422 167 422 167 422 171 c 0,77,78
 422 176 422 176 430 180.5 c 128,-1,79
 438 185 438 185 448 185 c 0,80,81
 457 185 457 185 472.5 197.5 c 128,-1,82
 488 210 488 210 502 230.5 c 128,-1,83
 516 251 516 251 521 274 c 0,84,85
 523 286 523 286 523 292 c 0,86,87
 523 344 523 344 454 378 c 0,88,89
 358 427 358 427 232 435 c 0,90,91
 208 437 208 437 191 437 c 0,92,93
 151 437 151 437 149 438 c 0,94,95
 140 443 140 443 140 451 c 0,96,97
 140 456 140 456 143.5 460 c 128,-1,98
 147 464 147 464 153 464 c 0,99,100
 175 464 175 464 200 462 c 0,101,102
 299 454 299 454 387 433 c 0,103,104
 440 420 440 420 488 401 c 128,-1,105
 536 382 536 382 567 362 c 0,106,107
 601 339 601 339 625 305 c 128,-1,108
 649 271 649 271 645 240 c 0,109,110
 637 183 637 183 562 164 c 0,111,112
 534 157 534 157 504 157 c 0,113,73
 478 157 478 157 454.5 159.5 c 128,-1,74
776 220 m 0,115,116
 809 220 809 220 840 213 c 0,117,118
 894 201 894 201 927.5 179.5 c 128,-1,119
 961 158 961 158 978 113 c 0,120,121
 989 84 989 84 989 54 c 0,122,123
 989 -6 989 -6 940.5 -47 c 128,-1,124
 892 -88 892 -88 810 -102 c 0,125,126
 756 -111 756 -111 704 -111 c 0,127,128
 505 -111 505 -111 294 10 c 1,129,-1
 257 30 l 2,130,131
 238 40 238 40 196 64 c 0,132,133
 120 110 120 110 78 132 c 0,134,135
 40 152 40 152 20 167 c 128,-1,136
 0 182 0 182 5 198 c 0,137,138
 7 207 7 207 11 210.5 c 128,-1,139
 15 214 15 214 24 214 c 2,140,-1
 120 214 l 2,141,142
 186 214 186 214 207 215 c 2,143,-1
 235 215 l 2,144,145
 254 215 254 215 258.5 214 c 128,-1,146
 263 213 263 213 267 209 c 0,147,148
 273 203 273 203 273 199 c 0,149,150
 273 193 273 193 260 189 c 0,151,152
 203 168 203 168 203 140 c 0,153,154
 203 124 203 124 220.5 105 c 128,-1,155
 238 86 238 86 273 60 c 0,156,157
 301 39 301 39 330 24 c 128,-1,158
 359 9 359 9 418 -19 c 2,159,-1
 453 -35 l 2,160,161
 492 -54 492 -54 546.5 -64.5 c 128,-1,162
 601 -75 601 -75 655 -75 c 256,163,164
 709 -75 709 -75 750 -63 c 0,165,166
 799 -48 799 -48 827 -8 c 128,-1,167
 855 32 855 32 855 85 c 0,168,169
 855 167 855 167 780 185 c 0,170,171
 750 192 750 192 732 193 c 0,172,173
 717 194 717 194 717 205 c 0,174,175
 717 212 717 212 724 214 c 0,176,114
 744 220 744 220 776 220 c 0,115,116
EndSplineSet
EndChar

StartChar: U
Encoding: 85 85 22
Width: 1021
GlyphClass: 1
Flags: W
LayerCount: 2
Fore
SplineSet
705 603 m 128,-1,1
 695 618 695 618 692 633 c 2,2,-1
 684 668 l 1,3,4
 590 668 590 668 501.5 675.5 c 128,-1,5
 413 683 413 683 363 691 c 0,6,7
 235 711 235 711 188 791 c 0,8,9
 170 821 170 821 132.5 888 c 128,-1,10
 95 955 95 955 80 990 c 0,11,12
 60 1035 60 1035 54 1038 c 0,13,14
 30 1047 30 1047 30 1057 c 0,15,16
 30 1062 30 1062 37 1066 c 0,17,18
 39 1068 39 1068 70.5 1069 c 128,-1,19
 102 1070 102 1070 138 1070 c 0,20,21
 171 1070 171 1070 211 1068 c 0,22,23
 231 1067 231 1067 245.5 1039.5 c 128,-1,24
 260 1012 260 1012 274 962 c 0,25,26
 280 942 280 942 284.5 924.5 c 128,-1,27
 289 907 289 907 293 892 c 0,28,29
 309 826 309 826 320.5 801.5 c 128,-1,30
 332 777 332 777 360 756 c 0,31,32
 407 722 407 722 494.5 707.5 c 128,-1,33
 582 693 582 693 681 695 c 1,34,-1
 670 758 l 2,35,36
 669 762 669 762 665.5 765.5 c 128,-1,37
 662 769 662 769 661 770 c 256,38,39
 660 771 660 771 656.5 774.5 c 128,-1,40
 653 778 653 778 652.5 780 c 128,-1,41
 652 782 652 782 653 784 c 0,42,43
 657 789 657 789 689.5 791 c 128,-1,44
 722 793 722 793 744 791 c 0,45,46
 753 790 753 790 763 776 c 128,-1,47
 773 762 773 762 776 746 c 2,48,-1
 785 695 l 1,49,50
 849 697 849 697 868 700 c 0,51,52
 881 703 881 703 894.5 705 c 128,-1,53
 908 707 908 707 916 707 c 0,54,55
 922 707 922 707 925 703 c 128,-1,56
 928 699 928 699 928 693 c 0,57,58
 928 686 928 686 924 683 c 0,59,60
 913 674 913 674 887 671 c 0,61,62
 847 667 847 667 788 668 c 1,63,64
 790 661 790 661 792 648.5 c 128,-1,65
 794 636 794 636 796 633 c 0,66,67
 799 628 799 628 807.5 616 c 128,-1,68
 816 604 816 604 816 598 c 0,69,70
 816 588 816 588 780 588 c 2,71,-1
 725 588 l 2,72,0
 715 588 715 588 705 603 c 128,-1,1
228 290 m 0,74,75
 199 290 199 290 166 296 c 0,76,77
 115 307 115 307 84 327 c 128,-1,78
 53 347 53 347 38 389 c 0,79,80
 28 416 28 416 28 444 c 0,81,82
 28 500 28 500 73 538 c 128,-1,83
 118 576 118 576 194 589 c 0,84,85
 238 597 238 597 293 597 c 0,86,87
 478 597 478 597 674 485 c 0,88,89
 681 481 681 481 689 477 c 128,-1,90
 697 473 697 473 706 467 c 0,91,92
 739 450 739 450 765 434 c 0,93,94
 783 424 783 424 792 418 c 0,95,96
 842 388 842 388 875 371 c 0,97,98
 912 352 912 352 930 338.5 c 128,-1,99
 948 325 948 325 943 310 c 0,100,101
 941 302 941 302 937 298.5 c 128,-1,102
 933 295 933 295 925 295 c 2,103,-1
 836 295 l 2,104,105
 774 295 774 295 756 294 c 2,106,-1
 730 294 l 2,107,108
 712 294 712 294 707.5 295 c 128,-1,109
 703 296 703 296 699 300 c 0,110,111
 694 305 694 305 694 309 c 0,112,113
 694 314 694 314 706 318 c 0,114,115
 759 338 759 338 759 364 c 0,116,117
 759 379 759 379 742.5 397 c 128,-1,118
 726 415 726 415 694 438 c 0,119,120
 665 459 665 459 634.5 474.5 c 128,-1,121
 604 490 604 490 549 515 c 0,122,123
 543 518 543 518 537 521 c 128,-1,124
 531 524 531 524 526 526 c 0,125,126
 490 544 490 544 439 554 c 128,-1,127
 388 564 388 564 338 564 c 0,128,129
 284 564 284 564 250 553 c 0,130,131
 205 539 205 539 179 501.5 c 128,-1,132
 153 464 153 464 153 415 c 0,133,134
 153 338 153 338 222 322 c 0,135,136
 251 315 251 315 267 314 c 0,137,138
 281 314 281 314 281 304 c 0,139,140
 281 297 281 297 274 295 c 0,141,73
 256 290 256 290 228 290 c 0,74,75
492 236 m 128,-1,143
 473 238 473 238 470 240 c 0,144,145
 466 243 466 243 466 245 c 0,146,147
 466 249 466 249 473 253 c 128,-1,148
 480 257 480 257 488 257 c 0,149,150
 501 257 501 257 521.5 280 c 128,-1,151
 542 303 542 303 549 332 c 0,152,153
 550 337 550 337 550 346 c 0,154,155
 550 390 550 390 493 419 c 0,156,157
 413 459 413 459 307 466 c 0,158,159
 285 468 285 468 273 468 c 0,160,161
 239 468 239 468 237 469 c 0,162,163
 230 473 230 473 230 480 c 0,164,165
 230 485 230 485 233 488 c 128,-1,166
 236 491 236 491 241 491 c 0,167,168
 259 491 259 491 280 489 c 0,169,170
 358 483 358 483 436 465 c 0,171,172
 480 454 480 454 521 438 c 128,-1,173
 562 422 562 422 587 405 c 0,174,175
 613 388 613 388 632.5 361.5 c 128,-1,176
 652 335 652 335 652 310 c 0,177,178
 652 258 652 258 583 240 c 0,179,180
 563 234 563 234 534 234 c 0,181,142
 511 234 511 234 492 236 c 128,-1,143
776 220 m 0,183,184
 809 220 809 220 840 213 c 0,185,186
 894 201 894 201 927.5 179.5 c 128,-1,187
 961 158 961 158 978 113 c 0,188,189
 989 84 989 84 989 54 c 0,190,191
 989 -6 989 -6 940.5 -47 c 128,-1,192
 892 -88 892 -88 810 -102 c 0,193,194
 756 -111 756 -111 704 -111 c 0,195,196
 505 -111 505 -111 294 10 c 1,197,-1
 257 30 l 2,198,199
 238 40 238 40 196 64 c 0,200,201
 120 110 120 110 78 132 c 0,202,203
 40 152 40 152 20 167 c 128,-1,204
 0 182 0 182 5 198 c 0,205,206
 7 207 7 207 11 210.5 c 128,-1,207
 15 214 15 214 24 214 c 2,208,-1
 120 214 l 2,209,210
 186 214 186 214 207 215 c 2,211,-1
 235 215 l 2,212,213
 254 215 254 215 258.5 214 c 128,-1,214
 263 213 263 213 267 209 c 0,215,216
 273 203 273 203 273 199 c 0,217,218
 273 193 273 193 260 189 c 0,219,220
 203 168 203 168 203 140 c 0,221,222
 203 124 203 124 220.5 105 c 128,-1,223
 238 86 238 86 273 60 c 0,224,225
 301 39 301 39 330 24 c 128,-1,226
 359 9 359 9 418 -19 c 2,227,-1
 453 -35 l 2,228,229
 492 -54 492 -54 546.5 -64.5 c 128,-1,230
 601 -75 601 -75 655 -75 c 256,231,232
 709 -75 709 -75 750 -63 c 0,233,234
 799 -48 799 -48 827 -8 c 128,-1,235
 855 32 855 32 855 85 c 0,236,237
 855 167 855 167 780 185 c 0,238,239
 750 192 750 192 732 193 c 0,240,241
 717 194 717 194 717 205 c 0,242,243
 717 212 717 212 724 214 c 0,244,182
 744 220 744 220 776 220 c 0,183,184
EndSplineSet
EndChar

StartChar: V
Encoding: 86 86 23
Width: 2039
GlyphClass: 1
Flags: W
LayerCount: 2
Fore
SplineSet
763 184 m 256,1,2
 730 184 730 184 699 191 c 0,3,4
 645 203 645 203 611.5 224.5 c 128,-1,5
 578 246 578 246 561 291 c 0,6,7
 550 320 550 320 550 350 c 0,8,9
 550 410 550 410 598.5 451 c 128,-1,10
 647 492 647 492 729 506 c 0,11,12
 783 515 783 515 835 515 c 0,13,14
 1034 515 1034 515 1245 394 c 1,15,-1
 1282 374 l 2,16,17
 1301 364 1301 364 1343 340 c 0,18,19
 1419 294 1419 294 1461 272 c 0,20,21
 1499 252 1499 252 1519 237 c 128,-1,22
 1539 222 1539 222 1534 206 c 0,23,24
 1532 197 1532 197 1528 193.5 c 128,-1,25
 1524 190 1524 190 1515 190 c 2,26,-1
 1419 190 l 2,27,28
 1353 190 1353 190 1332 189 c 2,29,-1
 1304 189 l 2,30,31
 1285 189 1285 189 1280.5 190 c 128,-1,32
 1276 191 1276 191 1272 195 c 0,33,34
 1266 201 1266 201 1266 205 c 0,35,36
 1266 211 1266 211 1279 215 c 0,37,38
 1336 236 1336 236 1336 264 c 0,39,40
 1336 280 1336 280 1318.5 299 c 128,-1,41
 1301 318 1301 318 1266 344 c 0,42,43
 1238 365 1238 365 1209 380 c 128,-1,44
 1180 395 1180 395 1121 423 c 2,45,-1
 1086 439 l 2,46,47
 1047 458 1047 458 992.5 468.5 c 128,-1,48
 938 479 938 479 884 479 c 256,49,50
 830 479 830 479 789 467 c 0,51,52
 740 452 740 452 712 412 c 128,-1,53
 684 372 684 372 684 319 c 0,54,55
 684 237 684 237 759 219 c 0,56,57
 789 212 789 212 807 211 c 0,58,59
 822 210 822 210 822 199 c 0,60,61
 822 192 822 192 815 190 c 0,62,0
 796 184 796 184 763 184 c 256,1,2
344.5 189.5 m 128,-1,64
 321 192 321 192 317 194 c 0,65,66
 312 197 312 197 312 201 c 0,67,68
 312 206 312 206 320 210.5 c 128,-1,69
 328 215 328 215 338 215 c 0,70,71
 347 215 347 215 362.5 227.5 c 128,-1,72
 378 240 378 240 392 260.5 c 128,-1,73
 406 281 406 281 411 304 c 0,74,75
 413 316 413 316 413 322 c 0,76,77
 413 374 413 374 344 408 c 0,78,79
 248 457 248 457 122 465 c 0,80,81
 98 467 98 467 81 467 c 0,82,83
 41 467 41 467 39 468 c 0,84,85
 30 473 30 473 30 481 c 0,86,87
 30 486 30 486 33.5 490 c 128,-1,88
 37 494 37 494 43 494 c 0,89,90
 65 494 65 494 90 492 c 0,91,92
 189 484 189 484 277 463 c 0,93,94
 330 450 330 450 378 431 c 128,-1,95
 426 412 426 412 457 392 c 0,96,97
 491 369 491 369 515 335 c 128,-1,98
 539 301 539 301 535 270 c 0,99,100
 527 213 527 213 452 194 c 0,101,102
 424 187 424 187 394 187 c 0,103,63
 368 187 368 187 344.5 189.5 c 128,-1,64
1627 189 m 0,105,106
 1614 190 1614 190 1609 196.5 c 128,-1,107
 1604 203 1604 203 1594 226 c 2,108,-1
 1578 265 l 2,109,110
 1568 293 1568 293 1550 336 c 0,111,112
 1546 345 1546 345 1543 347.5 c 128,-1,113
 1540 350 1540 350 1530 352 c 0,114,115
 1523 353 1523 353 1519 359 c 128,-1,116
 1515 365 1515 365 1515 371 c 0,117,118
 1515 385 1515 385 1530 385 c 2,119,-1
 1570 385 l 2,120,121
 1624 385 1624 385 1647 382 c 0,122,123
 1656 381 1656 381 1663.5 367.5 c 128,-1,124
 1671 354 1671 354 1682 324 c 0,125,126
 1707 256 1707 256 1721 231 c 0,127,128
 1727 220 1727 220 1730.5 217.5 c 128,-1,129
 1734 215 1734 215 1743 213 c 0,130,131
 1747 211 1747 211 1750.5 206.5 c 128,-1,132
 1754 202 1754 202 1754 197 c 256,133,134
 1754 192 1754 192 1749.5 188.5 c 128,-1,135
 1745 185 1745 185 1736 185 c 0,136,104
 1653 185 1653 185 1627 189 c 0,105,106
1867 189 m 0,138,139
 1854 190 1854 190 1849 196.5 c 128,-1,140
 1844 203 1844 203 1834 226 c 2,141,-1
 1818 265 l 2,142,143
 1808 293 1808 293 1790 336 c 0,144,145
 1786 345 1786 345 1783 347.5 c 128,-1,146
 1780 350 1780 350 1770 352 c 0,147,148
 1763 353 1763 353 1759 359 c 128,-1,149
 1755 365 1755 365 1755 371 c 0,150,151
 1755 385 1755 385 1770 385 c 2,152,-1
 1810 385 l 2,153,154
 1864 385 1864 385 1887 382 c 0,155,156
 1896 381 1896 381 1903.5 367.5 c 128,-1,157
 1911 354 1911 354 1922 324 c 0,158,159
 1947 256 1947 256 1961 231 c 0,160,161
 1967 220 1967 220 1970.5 217.5 c 128,-1,162
 1974 215 1974 215 1983 213 c 0,163,164
 1987 211 1987 211 1990.5 206.5 c 128,-1,165
 1994 202 1994 202 1994 197 c 256,166,167
 1994 192 1994 192 1989.5 188.5 c 128,-1,168
 1985 185 1985 185 1976 185 c 0,169,137
 1893 185 1893 185 1867 189 c 0,138,139
1943 5 m 0,171,172
 1923 7 1923 7 1898 7 c 2,173,-1
 704 7 l 2,174,175
 668 7 668 7 642 15 c 0,176,177
 624 21 624 21 600 36 c 0,178,179
 578 50 578 50 549 88 c 2,180,-1
 531 113 l 2,181,182
 530 115 530 115 530 119 c 0,183,184
 530 125 530 125 534 130 c 128,-1,185
 538 135 538 135 542 135 c 0,186,187
 548 135 548 135 554 131 c 0,188,189
 571 120 571 120 594 115 c 0,190,191
 609 112 609 112 636 112 c 2,192,-1
 1843 112 l 2,193,194
 1895 112 1895 112 1924 96 c 0,195,196
 1940 87 1940 87 1949 80 c 128,-1,197
 1958 73 1958 73 1975 56 c 0,198,199
 1991 40 1991 40 2000 27.5 c 128,-1,200
 2009 15 2009 15 2009 4 c 0,201,202
 2009 -4 2009 -4 2007 -7 c 0,203,204
 2005 -12 2005 -12 2001 -13.5 c 128,-1,205
 1997 -15 1997 -15 1992 -12 c 0,206,170
 1972 2 1972 2 1943 5 c 0,171,172
EndSplineSet
EndChar

StartChar: W
Encoding: 87 87 24
Width: 1021
GlyphClass: 1
Flags: W
LayerCount: 2
Fore
SplineSet
228 290 m 0,1,2
 199 290 199 290 166 296 c 0,3,4
 115 307 115 307 84 327 c 128,-1,5
 53 347 53 347 38 389 c 0,6,7
 28 416 28 416 28 444 c 0,8,9
 28 500 28 500 73 538 c 128,-1,10
 118 576 118 576 194 589 c 0,11,12
 238 597 238 597 293 597 c 0,13,14
 478 597 478 597 674 485 c 0,15,16
 681 481 681 481 689 477 c 128,-1,17
 697 473 697 473 706 467 c 0,18,19
 739 450 739 450 765 434 c 0,20,21
 783 424 783 424 792 418 c 0,22,23
 842 388 842 388 875 371 c 0,24,25
 912 352 912 352 930 338.5 c 128,-1,26
 948 325 948 325 943 310 c 0,27,28
 941 302 941 302 937 298.5 c 128,-1,29
 933 295 933 295 925 295 c 2,30,-1
 836 295 l 2,31,32
 774 295 774 295 756 294 c 2,33,-1
 730 294 l 2,34,35
 712 294 712 294 707.5 295 c 128,-1,36
 703 296 703 296 699 300 c 0,37,38
 694 305 694 305 694 309 c 0,39,40
 694 314 694 314 706 318 c 0,41,42
 759 338 759 338 759 364 c 0,43,44
 759 379 759 379 742.5 397 c 128,-1,45
 726 415 726 415 694 438 c 0,46,47
 665 459 665 459 634.5 474.5 c 128,-1,48
 604 490 604 490 549 515 c 0,49,50
 543 518 543 518 537 521 c 128,-1,51
 531 524 531 524 526 526 c 0,52,53
 490 544 490 544 439 554 c 128,-1,54
 388 564 388 564 338 564 c 0,55,56
 284 564 284 564 250 553 c 0,57,58
 205 539 205 539 179 501.5 c 128,-1,59
 153 464 153 464 153 415 c 0,60,61
 153 338 153 338 222 322 c 0,62,63
 251 315 251 315 267 314 c 0,64,65
 281 314 281 314 281 304 c 0,66,67
 281 297 281 297 274 295 c 0,68,0
 256 290 256 290 228 290 c 0,1,2
776 220 m 0,70,71
 809 220 809 220 840 213 c 0,72,73
 894 201 894 201 927.5 179.5 c 128,-1,74
 961 158 961 158 978 113 c 0,75,76
 989 84 989 84 989 54 c 0,77,78
 989 -6 989 -6 940.5 -47 c 128,-1,79
 892 -88 892 -88 810 -102 c 0,80,81
 756 -111 756 -111 704 -111 c 0,82,83
 505 -111 505 -111 294 10 c 1,84,-1
 257 30 l 2,85,86
 238 40 238 40 196 64 c 0,87,88
 120 110 120 110 78 132 c 0,89,90
 40 152 40 152 20 167 c 128,-1,91
 0 182 0 182 5 198 c 0,92,93
 7 207 7 207 11 210.5 c 128,-1,94
 15 214 15 214 24 214 c 2,95,-1
 120 214 l 2,96,97
 186 214 186 214 207 215 c 2,98,-1
 235 215 l 2,99,100
 254 215 254 215 258.5 214 c 128,-1,101
 263 213 263 213 267 209 c 0,102,103
 273 203 273 203 273 199 c 0,104,105
 273 193 273 193 260 189 c 0,106,107
 203 168 203 168 203 140 c 0,108,109
 203 124 203 124 220.5 105 c 128,-1,110
 238 86 238 86 273 60 c 0,111,112
 301 39 301 39 330 24 c 128,-1,113
 359 9 359 9 418 -19 c 2,114,-1
 453 -35 l 2,115,116
 492 -54 492 -54 546.5 -64.5 c 128,-1,117
 601 -75 601 -75 655 -75 c 256,118,119
 709 -75 709 -75 750 -63 c 0,120,121
 799 -48 799 -48 827 -8 c 128,-1,122
 855 32 855 32 855 85 c 0,123,124
 855 167 855 167 780 185 c 0,125,126
 750 192 750 192 732 193 c 0,127,128
 717 194 717 194 717 205 c 0,129,130
 717 212 717 212 724 214 c 0,131,69
 744 220 744 220 776 220 c 0,70,71
EndSplineSet
EndChar

StartChar: X
Encoding: 88 88 25
Width: 1224
GlyphClass: 1
Flags: W
LayerCount: 2
Fore
SplineSet
344.5 186.5 m 128,-1,1
 321 189 321 189 317 191 c 0,2,3
 312 194 312 194 312 197 c 0,4,5
 312 202 312 202 320 206 c 128,-1,6
 328 210 328 210 338 210 c 0,7,8
 347 210 347 210 362.5 221 c 128,-1,9
 378 232 378 232 392 250.5 c 128,-1,10
 406 269 406 269 411 290 c 0,11,12
 413 300 413 300 413 306 c 0,13,14
 413 351 413 351 344 383 c 0,15,16
 248 427 248 427 122 435 c 1,17,-1
 82 436 l 2,18,19
 41 436 41 436 39 437 c 0,20,21
 30 442 30 442 30 449 c 0,22,23
 30 454 30 454 33.5 457.5 c 128,-1,24
 37 461 37 461 43 461 c 0,25,26
 65 461 65 461 90 459 c 0,27,28
 193 451 193 451 277 433 c 0,29,30
 330 421 330 421 378.5 404 c 128,-1,31
 427 387 427 387 457 369 c 0,32,33
 491 349 491 349 515 318.5 c 128,-1,34
 539 288 539 288 535 259 c 0,35,36
 527 208 527 208 452 191 c 0,37,38
 424 184 424 184 394 184 c 0,39,0
 368 184 368 184 344.5 186.5 c 128,-1,1
742 189 m 0,41,42
 729 190 729 190 724 196.5 c 128,-1,43
 719 203 719 203 709 226 c 2,44,-1
 693 265 l 2,45,46
 683 293 683 293 665 336 c 0,47,48
 661 345 661 345 658 347.5 c 128,-1,49
 655 350 655 350 645 352 c 0,50,51
 638 353 638 353 634 359 c 128,-1,52
 630 365 630 365 630 371 c 0,53,54
 630 385 630 385 645 385 c 2,55,-1
 685 385 l 2,56,57
 739 385 739 385 762 382 c 0,58,59
 771 381 771 381 778.5 367.5 c 128,-1,60
 786 354 786 354 797 324 c 0,61,62
 822 256 822 256 836 231 c 0,63,64
 842 220 842 220 845.5 217.5 c 128,-1,65
 849 215 849 215 858 213 c 0,66,67
 862 211 862 211 865.5 206.5 c 128,-1,68
 869 202 869 202 869 197 c 256,69,70
 869 192 869 192 864.5 188.5 c 128,-1,71
 860 185 860 185 851 185 c 0,72,40
 768 185 768 185 742 189 c 0,41,42
982 189 m 0,74,75
 969 190 969 190 964 196.5 c 128,-1,76
 959 203 959 203 949 226 c 2,77,-1
 933 265 l 2,78,79
 923 293 923 293 905 336 c 0,80,81
 901 345 901 345 898 347.5 c 128,-1,82
 895 350 895 350 885 352 c 0,83,84
 878 353 878 353 874 359 c 128,-1,85
 870 365 870 365 870 371 c 0,86,87
 870 385 870 385 885 385 c 2,88,-1
 925 385 l 2,89,90
 979 385 979 385 1002 382 c 0,91,92
 1011 381 1011 381 1018.5 367.5 c 128,-1,93
 1026 354 1026 354 1037 324 c 0,94,95
 1062 256 1062 256 1076 231 c 0,96,97
 1082 220 1082 220 1085.5 217.5 c 128,-1,98
 1089 215 1089 215 1098 213 c 0,99,100
 1102 211 1102 211 1105.5 206.5 c 128,-1,101
 1109 202 1109 202 1109 197 c 256,102,103
 1109 192 1109 192 1104.5 188.5 c 128,-1,104
 1100 185 1100 185 1091 185 c 0,105,73
 1008 185 1008 185 982 189 c 0,74,75
1128 5 m 0,107,108
 1108 7 1108 7 1083 7 c 2,109,-1
 204 7 l 2,110,111
 168 7 168 7 142 15 c 0,112,113
 124 21 124 21 100 36 c 0,114,115
 78 50 78 50 49 88 c 2,116,-1
 31 113 l 2,117,118
 30 115 30 115 30 119 c 0,119,120
 30 125 30 125 34 130 c 128,-1,121
 38 135 38 135 42 135 c 0,122,123
 48 135 48 135 54 131 c 0,124,125
 71 120 71 120 94 115 c 0,126,127
 109 112 109 112 136 112 c 2,128,-1
 1028 112 l 2,129,130
 1080 112 1080 112 1109 96 c 0,131,132
 1125 87 1125 87 1134 80 c 128,-1,133
 1143 73 1143 73 1160 56 c 0,134,135
 1176 40 1176 40 1185 27.5 c 128,-1,136
 1194 15 1194 15 1194 4 c 0,137,138
 1194 -4 1194 -4 1192 -7 c 0,139,140
 1190 -12 1190 -12 1186 -13.5 c 128,-1,141
 1182 -15 1182 -15 1177 -12 c 0,142,106
 1157 2 1157 2 1128 5 c 0,107,108
EndSplineSet
EndChar

StartChar: Y
Encoding: 89 89 26
Width: 1021
GlyphClass: 1
Flags: W
LayerCount: 2
Fore
SplineSet
705 603 m 128,-1,1
 695 618 695 618 692 633 c 2,2,-1
 684 668 l 1,3,4
 590 668 590 668 501.5 675.5 c 128,-1,5
 413 683 413 683 363 691 c 0,6,7
 235 711 235 711 188 791 c 0,8,9
 170 821 170 821 132.5 888 c 128,-1,10
 95 955 95 955 80 990 c 0,11,12
 60 1035 60 1035 54 1038 c 0,13,14
 30 1047 30 1047 30 1057 c 0,15,16
 30 1062 30 1062 37 1066 c 0,17,18
 39 1068 39 1068 70.5 1069 c 128,-1,19
 102 1070 102 1070 138 1070 c 0,20,21
 171 1070 171 1070 211 1068 c 0,22,23
 231 1067 231 1067 245.5 1039.5 c 128,-1,24
 260 1012 260 1012 274 962 c 0,25,26
 280 942 280 942 284.5 924.5 c 128,-1,27
 289 907 289 907 293 892 c 0,28,29
 309 826 309 826 320.5 801.5 c 128,-1,30
 332 777 332 777 360 756 c 0,31,32
 407 722 407 722 494.5 707.5 c 128,-1,33
 582 693 582 693 681 695 c 1,34,-1
 670 758 l 2,35,36
 669 762 669 762 665.5 765.5 c 128,-1,37
 662 769 662 769 661 770 c 256,38,39
 660 771 660 771 656.5 774.5 c 128,-1,40
 653 778 653 778 652.5 780 c 128,-1,41
 652 782 652 782 653 784 c 0,42,43
 657 789 657 789 689.5 791 c 128,-1,44
 722 793 722 793 744 791 c 0,45,46
 753 790 753 790 763 776 c 128,-1,47
 773 762 773 762 776 746 c 2,48,-1
 785 695 l 1,49,50
 849 697 849 697 868 700 c 0,51,52
 881 703 881 703 894.5 705 c 128,-1,53
 908 707 908 707 916 707 c 0,54,55
 922 707 922 707 925 703 c 128,-1,56
 928 699 928 699 928 693 c 0,57,58
 928 686 928 686 924 683 c 0,59,60
 913 674 913 674 887 671 c 0,61,62
 847 667 847 667 788 668 c 1,63,64
 790 661 790 661 792 648.5 c 128,-1,65
 794 636 794 636 796 633 c 0,66,67
 799 628 799 628 807.5 616 c 128,-1,68
 816 604 816 604 816 598 c 0,69,70
 816 588 816 588 780 588 c 2,71,-1
 725 588 l 2,72,0
 715 588 715 588 705 603 c 128,-1,1
228 290 m 0,74,75
 199 290 199 290 166 296 c 0,76,77
 115 307 115 307 84 327 c 128,-1,78
 53 347 53 347 38 389 c 0,79,80
 28 416 28 416 28 444 c 0,81,82
 28 500 28 500 73 538 c 128,-1,83
 118 576 118 576 194 589 c 0,84,85
 238 597 238 597 293 597 c 0,86,87
 478 597 478 597 674 485 c 0,88,89
 681 481 681 481 689 477 c 128,-1,90
 697 473 697 473 706 467 c 0,91,92
 739 450 739 450 765 434 c 0,93,94
 783 424 783 424 792 418 c 0,95,96
 842 388 842 388 875 371 c 0,97,98
 912 352 912 352 930 338.5 c 128,-1,99
 948 325 948 325 943 310 c 0,100,101
 941 302 941 302 937 298.5 c 128,-1,102
 933 295 933 295 925 295 c 2,103,-1
 836 295 l 2,104,105
 774 295 774 295 756 294 c 2,106,-1
 730 294 l 2,107,108
 712 294 712 294 707.5 295 c 128,-1,109
 703 296 703 296 699 300 c 0,110,111
 694 305 694 305 694 309 c 0,112,113
 694 314 694 314 706 318 c 0,114,115
 759 338 759 338 759 364 c 0,116,117
 759 379 759 379 742.5 397 c 128,-1,118
 726 415 726 415 694 438 c 0,119,120
 665 459 665 459 634.5 474.5 c 128,-1,121
 604 490 604 490 549 515 c 0,122,123
 543 518 543 518 537 521 c 128,-1,124
 531 524 531 524 526 526 c 0,125,126
 490 544 490 544 439 554 c 128,-1,127
 388 564 388 564 338 564 c 0,128,129
 284 564 284 564 250 553 c 0,130,131
 205 539 205 539 179 501.5 c 128,-1,132
 153 464 153 464 153 415 c 0,133,134
 153 338 153 338 222 322 c 0,135,136
 251 315 251 315 267 314 c 0,137,138
 281 314 281 314 281 304 c 0,139,140
 281 297 281 297 274 295 c 0,141,73
 256 290 256 290 228 290 c 0,74,75
776 220 m 0,143,144
 809 220 809 220 840 213 c 0,145,146
 894 201 894 201 927.5 179.5 c 128,-1,147
 961 158 961 158 978 113 c 0,148,149
 989 84 989 84 989 54 c 0,150,151
 989 -6 989 -6 940.5 -47 c 128,-1,152
 892 -88 892 -88 810 -102 c 0,153,154
 756 -111 756 -111 704 -111 c 0,155,156
 505 -111 505 -111 294 10 c 1,157,-1
 257 30 l 2,158,159
 238 40 238 40 196 64 c 0,160,161
 120 110 120 110 78 132 c 0,162,163
 40 152 40 152 20 167 c 128,-1,164
 0 182 0 182 5 198 c 0,165,166
 7 207 7 207 11 210.5 c 128,-1,167
 15 214 15 214 24 214 c 2,168,-1
 120 214 l 2,169,170
 186 214 186 214 207 215 c 2,171,-1
 235 215 l 2,172,173
 254 215 254 215 258.5 214 c 128,-1,174
 263 213 263 213 267 209 c 0,175,176
 273 203 273 203 273 199 c 0,177,178
 273 193 273 193 260 189 c 0,179,180
 203 168 203 168 203 140 c 0,181,182
 203 124 203 124 220.5 105 c 128,-1,183
 238 86 238 86 273 60 c 0,184,185
 301 39 301 39 330 24 c 128,-1,186
 359 9 359 9 418 -19 c 2,187,-1
 453 -35 l 2,188,189
 492 -54 492 -54 546.5 -64.5 c 128,-1,190
 601 -75 601 -75 655 -75 c 256,191,192
 709 -75 709 -75 750 -63 c 0,193,194
 799 -48 799 -48 827 -8 c 128,-1,195
 855 32 855 32 855 85 c 0,196,197
 855 167 855 167 780 185 c 0,198,199
 750 192 750 192 732 193 c 0,200,201
 717 194 717 194 717 205 c 0,202,203
 717 212 717 212 724 214 c 0,204,142
 744 220 744 220 776 220 c 0,143,144
EndSplineSet
EndChar

StartChar: Z
Encoding: 90 90 27
Width: 1224
GlyphClass: 1
Flags: W
LayerCount: 2
Fore
SplineSet
462 189 m 0,1,2
 449 190 449 190 444 196.5 c 128,-1,3
 439 203 439 203 429 226 c 2,4,-1
 413 265 l 2,5,6
 403 293 403 293 385 336 c 0,7,8
 381 345 381 345 378 347.5 c 128,-1,9
 375 350 375 350 365 352 c 0,10,11
 358 353 358 353 354 359 c 128,-1,12
 350 365 350 365 350 371 c 0,13,14
 350 385 350 385 365 385 c 2,15,-1
 405 385 l 2,16,17
 459 385 459 385 482 382 c 0,18,19
 491 381 491 381 498.5 367.5 c 128,-1,20
 506 354 506 354 517 324 c 0,21,22
 542 256 542 256 556 231 c 0,23,24
 562 220 562 220 565.5 217.5 c 128,-1,25
 569 215 569 215 578 213 c 0,26,27
 582 211 582 211 585.5 206.5 c 128,-1,28
 589 202 589 202 589 197 c 256,29,30
 589 192 589 192 584.5 188.5 c 128,-1,31
 580 185 580 185 571 185 c 0,32,0
 488 185 488 185 462 189 c 0,1,2
702 189 m 0,34,35
 689 190 689 190 684 196.5 c 128,-1,36
 679 203 679 203 669 226 c 2,37,-1
 653 265 l 2,38,39
 643 293 643 293 625 336 c 0,40,41
 621 345 621 345 618 347.5 c 128,-1,42
 615 350 615 350 605 352 c 0,43,44
 598 353 598 353 594 359 c 128,-1,45
 590 365 590 365 590 371 c 0,46,47
 590 385 590 385 605 385 c 2,48,-1
 645 385 l 2,49,50
 699 385 699 385 722 382 c 0,51,52
 731 381 731 381 738.5 367.5 c 128,-1,53
 746 354 746 354 757 324 c 0,54,55
 782 256 782 256 796 231 c 0,56,57
 802 220 802 220 805.5 217.5 c 128,-1,58
 809 215 809 215 818 213 c 0,59,60
 822 211 822 211 825.5 206.5 c 128,-1,61
 829 202 829 202 829 197 c 256,62,63
 829 192 829 192 824.5 188.5 c 128,-1,64
 820 185 820 185 811 185 c 0,65,33
 728 185 728 185 702 189 c 0,34,35
1128 5 m 0,67,68
 1108 7 1108 7 1083 7 c 2,69,-1
 204 7 l 2,70,71
 168 7 168 7 142 15 c 0,72,73
 124 21 124 21 100 36 c 0,74,75
 78 50 78 50 49 88 c 2,76,-1
 31 113 l 2,77,78
 30 115 30 115 30 119 c 0,79,80
 30 125 30 125 34 130 c 128,-1,81
 38 135 38 135 42 135 c 0,82,83
 48 135 48 135 54 131 c 0,84,85
 71 120 71 120 94 115 c 0,86,87
 109 112 109 112 136 112 c 2,88,-1
 1028 112 l 2,89,90
 1080 112 1080 112 1109 96 c 0,91,92
 1125 87 1125 87 1134 80 c 128,-1,93
 1143 73 1143 73 1160 56 c 0,94,95
 1176 40 1176 40 1185 27.5 c 128,-1,96
 1194 15 1194 15 1194 4 c 0,97,98
 1194 -4 1194 -4 1192 -7 c 0,99,100
 1190 -12 1190 -12 1186 -13.5 c 128,-1,101
 1182 -15 1182 -15 1177 -12 c 0,102,66
 1157 2 1157 2 1128 5 c 0,67,68
EndSplineSet
EndChar

StartChar: a
Encoding: 97 97 28
Width: 0
GlyphClass: 1
Flags: W
LayerCount: 2
Fore
SplineSet
-798 395 m 128,-1,1
 -794 392 -794 392 -790 390 c 0,2,3
 -786 387 -786 387 -782 384.5 c 128,-1,4
 -778 382 -778 382 -776 380 c 0,5,6
 -736 350 -736 350 -709.5 335 c 128,-1,7
 -683 320 -683 320 -647 314 c 0,8,9
 -634 311 -634 311 -617 311 c 0,10,11
 -588 311 -588 311 -575 316 c 0,12,13
 -548 327 -548 327 -548 356 c 0,14,15
 -548 367 -548 367 -554 381 c 0,16,17
 -558 386 -558 386 -558 396 c 0,18,19
 -558 412 -558 412 -546 413 c 0,20,21
 -505 410 -505 410 -475 390.5 c 128,-1,22
 -445 371 -445 371 -442 350 c 2,23,-1
 -441 345 l 1,24,25
 -441 320 -441 320 -457.5 299.5 c 128,-1,26
 -474 279 -474 279 -506 272 c 0,27,28
 -535 265 -535 265 -566 265 c 0,29,30
 -617 265 -617 265 -658.5 281 c 128,-1,31
 -700 297 -700 297 -748 324 c 0,32,33
 -782 342 -782 342 -824 373 c 0,34,35
 -830 378 -830 378 -830 386 c 0,36,37
 -830 392 -830 392 -825.5 397 c 128,-1,38
 -821 402 -821 402 -815 402 c 2,39,-1
 -807 400 l 2,40,0
 -802 398 -802 398 -798 395 c 128,-1,1
EndSplineSet
EndChar

StartChar: b
Encoding: 98 98 30
Width: 1539
GlyphClass: 1
Flags: W
LayerCount: 2
Fore
SplineSet
705 193 m 128,-1,1
 695 208 695 208 692 223 c 2,2,-1
 684 258 l 1,3,4
 590 258 590 258 501.5 265.5 c 128,-1,5
 413 273 413 273 363 281 c 0,6,7
 235 301 235 301 188 381 c 0,8,9
 170 411 170 411 132.5 478 c 128,-1,10
 95 545 95 545 80 580 c 0,11,12
 60 625 60 625 54 628 c 0,13,14
 30 637 30 637 30 647 c 0,15,16
 30 652 30 652 37 656 c 0,17,18
 39 658 39 658 70.5 659 c 128,-1,19
 102 660 102 660 138 660 c 0,20,21
 171 660 171 660 211 658 c 0,22,23
 231 657 231 657 245.5 629.5 c 128,-1,24
 260 602 260 602 274 552 c 0,25,26
 280 532 280 532 284.5 514.5 c 128,-1,27
 289 497 289 497 293 482 c 0,28,29
 309 416 309 416 320.5 391.5 c 128,-1,30
 332 367 332 367 360 346 c 0,31,32
 407 312 407 312 494.5 297.5 c 128,-1,33
 582 283 582 283 681 285 c 1,34,-1
 670 348 l 2,35,36
 669 352 669 352 665.5 355.5 c 128,-1,37
 662 359 662 359 661 360 c 256,38,39
 660 361 660 361 656.5 364.5 c 128,-1,40
 653 368 653 368 652.5 370 c 128,-1,41
 652 372 652 372 653 374 c 0,42,43
 657 379 657 379 689.5 381 c 128,-1,44
 722 383 722 383 744 381 c 0,45,46
 753 380 753 380 763 366 c 128,-1,47
 773 352 773 352 776 336 c 2,48,-1
 785 285 l 1,49,50
 849 287 849 287 868 290 c 0,51,52
 881 293 881 293 894.5 295 c 128,-1,53
 908 297 908 297 916 297 c 0,54,55
 922 297 922 297 925 293 c 128,-1,56
 928 289 928 289 928 283 c 0,57,58
 928 276 928 276 924 273 c 0,59,60
 913 264 913 264 887 261 c 0,61,62
 847 257 847 257 788 258 c 1,63,64
 790 251 790 251 792 238.5 c 128,-1,65
 794 226 794 226 796 223 c 0,66,67
 799 218 799 218 807.5 206 c 128,-1,68
 816 194 816 194 816 188 c 0,69,70
 816 178 816 178 780 178 c 2,71,-1
 725 178 l 2,72,0
 715 178 715 178 705 193 c 128,-1,1
1127 189 m 0,74,75
 1114 190 1114 190 1109 196.5 c 128,-1,76
 1104 203 1104 203 1094 226 c 2,77,-1
 1078 265 l 2,78,79
 1068 293 1068 293 1050 336 c 0,80,81
 1046 345 1046 345 1043 347.5 c 128,-1,82
 1040 350 1040 350 1030 352 c 0,83,84
 1023 353 1023 353 1019 359 c 128,-1,85
 1015 365 1015 365 1015 371 c 0,86,87
 1015 385 1015 385 1030 385 c 2,88,-1
 1070 385 l 2,89,90
 1124 385 1124 385 1147 382 c 0,91,92
 1156 381 1156 381 1163.5 367.5 c 128,-1,93
 1171 354 1171 354 1182 324 c 0,94,95
 1207 256 1207 256 1221 231 c 0,96,97
 1227 220 1227 220 1230.5 217.5 c 128,-1,98
 1234 215 1234 215 1243 213 c 0,99,100
 1247 211 1247 211 1250.5 206.5 c 128,-1,101
 1254 202 1254 202 1254 197 c 256,102,103
 1254 192 1254 192 1249.5 188.5 c 128,-1,104
 1245 185 1245 185 1236 185 c 0,105,73
 1153 185 1153 185 1127 189 c 0,74,75
1367 189 m 0,107,108
 1354 190 1354 190 1349 196.5 c 128,-1,109
 1344 203 1344 203 1334 226 c 2,110,-1
 1318 265 l 2,111,112
 1308 293 1308 293 1290 336 c 0,113,114
 1286 345 1286 345 1283 347.5 c 128,-1,115
 1280 350 1280 350 1270 352 c 0,116,117
 1263 353 1263 353 1259 359 c 128,-1,118
 1255 365 1255 365 1255 371 c 0,119,120
 1255 385 1255 385 1270 385 c 2,121,-1
 1310 385 l 2,122,123
 1364 385 1364 385 1387 382 c 0,124,125
 1396 381 1396 381 1403.5 367.5 c 128,-1,126
 1411 354 1411 354 1422 324 c 0,127,128
 1447 256 1447 256 1461 231 c 0,129,130
 1467 220 1467 220 1470.5 217.5 c 128,-1,131
 1474 215 1474 215 1483 213 c 0,132,133
 1487 211 1487 211 1490.5 206.5 c 128,-1,134
 1494 202 1494 202 1494 197 c 256,135,136
 1494 192 1494 192 1489.5 188.5 c 128,-1,137
 1485 185 1485 185 1476 185 c 0,138,106
 1393 185 1393 185 1367 189 c 0,107,108
1443 5 m 0,140,141
 1423 7 1423 7 1398 7 c 2,142,-1
 204 7 l 2,143,144
 168 7 168 7 142 15 c 0,145,146
 124 21 124 21 100 36 c 0,147,148
 78 50 78 50 49 88 c 2,149,-1
 31 113 l 2,150,151
 30 115 30 115 30 119 c 0,152,153
 30 125 30 125 34 130 c 128,-1,154
 38 135 38 135 42 135 c 0,155,156
 48 135 48 135 54 131 c 0,157,158
 71 120 71 120 94 115 c 0,159,160
 109 112 109 112 136 112 c 2,161,-1
 1343 112 l 2,162,163
 1395 112 1395 112 1424 96 c 0,164,165
 1440 87 1440 87 1449 80 c 128,-1,166
 1458 73 1458 73 1475 56 c 0,167,168
 1491 40 1491 40 1500 27.5 c 128,-1,169
 1509 15 1509 15 1509 4 c 0,170,171
 1509 -4 1509 -4 1507 -7 c 0,172,173
 1505 -12 1505 -12 1501 -13.5 c 128,-1,174
 1497 -15 1497 -15 1492 -12 c 0,175,139
 1472 2 1472 2 1443 5 c 0,140,141
EndSplineSet
EndChar

StartChar: c
Encoding: 99 99 31
Width: 1539
GlyphClass: 1
Flags: W
LayerCount: 2
Fore
SplineSet
243 184 m 256,1,2
 210 184 210 184 179 191 c 0,3,4
 125 203 125 203 91.5 224.5 c 128,-1,5
 58 246 58 246 41 291 c 0,6,7
 30 320 30 320 30 350 c 0,8,9
 30 410 30 410 78.5 451 c 128,-1,10
 127 492 127 492 209 506 c 0,11,12
 263 515 263 515 315 515 c 0,13,14
 514 515 514 515 725 394 c 1,15,-1
 762 374 l 2,16,17
 781 364 781 364 823 340 c 0,18,19
 899 294 899 294 941 272 c 0,20,21
 979 252 979 252 999 237 c 128,-1,22
 1019 222 1019 222 1014 206 c 0,23,24
 1012 197 1012 197 1008 193.5 c 128,-1,25
 1004 190 1004 190 995 190 c 2,26,-1
 899 190 l 2,27,28
 833 190 833 190 812 189 c 2,29,-1
 784 189 l 2,30,31
 765 189 765 189 760.5 190 c 128,-1,32
 756 191 756 191 752 195 c 0,33,34
 746 201 746 201 746 205 c 0,35,36
 746 211 746 211 759 215 c 0,37,38
 816 236 816 236 816 264 c 0,39,40
 816 280 816 280 798.5 299 c 128,-1,41
 781 318 781 318 746 344 c 0,42,43
 718 365 718 365 689 380 c 128,-1,44
 660 395 660 395 601 423 c 2,45,-1
 566 439 l 2,46,47
 527 458 527 458 472.5 468.5 c 128,-1,48
 418 479 418 479 364 479 c 256,49,50
 310 479 310 479 269 467 c 0,51,52
 220 452 220 452 192 412 c 128,-1,53
 164 372 164 372 164 319 c 0,54,55
 164 237 164 237 239 219 c 0,56,57
 269 212 269 212 287 211 c 0,58,59
 302 210 302 210 302 199 c 0,60,61
 302 192 302 192 295 190 c 0,62,0
 276 184 276 184 243 184 c 256,1,2
1127 189 m 0,64,65
 1114 190 1114 190 1109 196.5 c 128,-1,66
 1104 203 1104 203 1094 226 c 2,67,-1
 1078 265 l 2,68,69
 1068 293 1068 293 1050 336 c 0,70,71
 1046 345 1046 345 1043 347.5 c 128,-1,72
 1040 350 1040 350 1030 352 c 0,73,74
 1023 353 1023 353 1019 359 c 128,-1,75
 1015 365 1015 365 1015 371 c 0,76,77
 1015 385 1015 385 1030 385 c 2,78,-1
 1070 385 l 2,79,80
 1124 385 1124 385 1147 382 c 0,81,82
 1156 381 1156 381 1163.5 367.5 c 128,-1,83
 1171 354 1171 354 1182 324 c 0,84,85
 1207 256 1207 256 1221 231 c 0,86,87
 1227 220 1227 220 1230.5 217.5 c 128,-1,88
 1234 215 1234 215 1243 213 c 0,89,90
 1247 211 1247 211 1250.5 206.5 c 128,-1,91
 1254 202 1254 202 1254 197 c 256,92,93
 1254 192 1254 192 1249.5 188.5 c 128,-1,94
 1245 185 1245 185 1236 185 c 0,95,63
 1153 185 1153 185 1127 189 c 0,64,65
1367 189 m 0,97,98
 1354 190 1354 190 1349 196.5 c 128,-1,99
 1344 203 1344 203 1334 226 c 2,100,-1
 1318 265 l 2,101,102
 1308 293 1308 293 1290 336 c 0,103,104
 1286 345 1286 345 1283 347.5 c 128,-1,105
 1280 350 1280 350 1270 352 c 0,106,107
 1263 353 1263 353 1259 359 c 128,-1,108
 1255 365 1255 365 1255 371 c 0,109,110
 1255 385 1255 385 1270 385 c 2,111,-1
 1310 385 l 2,112,113
 1364 385 1364 385 1387 382 c 0,114,115
 1396 381 1396 381 1403.5 367.5 c 128,-1,116
 1411 354 1411 354 1422 324 c 0,117,118
 1447 256 1447 256 1461 231 c 0,119,120
 1467 220 1467 220 1470.5 217.5 c 128,-1,121
 1474 215 1474 215 1483 213 c 0,122,123
 1487 211 1487 211 1490.5 206.5 c 128,-1,124
 1494 202 1494 202 1494 197 c 256,125,126
 1494 192 1494 192 1489.5 188.5 c 128,-1,127
 1485 185 1485 185 1476 185 c 0,128,96
 1393 185 1393 185 1367 189 c 0,97,98
1443 5 m 0,130,131
 1423 7 1423 7 1398 7 c 2,132,-1
 204 7 l 2,133,134
 168 7 168 7 142 15 c 0,135,136
 124 21 124 21 100 36 c 0,137,138
 78 50 78 50 49 88 c 2,139,-1
 31 113 l 2,140,141
 30 115 30 115 30 119 c 0,142,143
 30 125 30 125 34 130 c 128,-1,144
 38 135 38 135 42 135 c 0,145,146
 48 135 48 135 54 131 c 0,147,148
 71 120 71 120 94 115 c 0,149,150
 109 112 109 112 136 112 c 2,151,-1
 1343 112 l 2,152,153
 1395 112 1395 112 1424 96 c 0,154,155
 1440 87 1440 87 1449 80 c 128,-1,156
 1458 73 1458 73 1475 56 c 0,157,158
 1491 40 1491 40 1500 27.5 c 128,-1,159
 1509 15 1509 15 1509 4 c 0,160,161
 1509 -4 1509 -4 1507 -7 c 0,162,163
 1505 -12 1505 -12 1501 -13.5 c 128,-1,164
 1497 -15 1497 -15 1492 -12 c 0,165,129
 1472 2 1472 2 1443 5 c 0,130,131
EndSplineSet
EndChar

StartChar: e
Encoding: 101 101 33
Width: 1021
GlyphClass: 1
Flags: W
LayerCount: 2
Fore
SplineSet
431 282 m 0,1,2
 429 287 429 287 409.5 346.5 c 128,-1,3
 390 406 390 406 372 443 c 0,4,5
 369 450 369 450 364 452 c 128,-1,6
 359 454 359 454 348 456 c 0,7,8
 341 457 341 457 337 461.5 c 128,-1,9
 333 466 333 466 333 472 c 0,10,11
 333 483 333 483 348 483 c 2,12,-1
 397 483 l 2,13,14
 448 483 448 483 469 481 c 0,15,16
 487 480 487 480 504 433 c 2,17,-1
 517 396 l 2,18,19
 520 386 520 386 535 341.5 c 128,-1,20
 550 297 550 297 558 287 c 0,21,22
 570 270 570 270 573.5 266 c 128,-1,23
 577 262 577 262 585 261 c 0,24,25
 589 260 589 260 592.5 256 c 128,-1,26
 596 252 596 252 596 248 c 0,27,28
 596 238 596 238 578 238 c 0,29,30
 495 238 495 238 469 241 c 0,31,0
 444 244 444 244 431 282 c 0,1,2
776 220 m 0,33,34
 809 220 809 220 840 213 c 0,35,36
 894 201 894 201 927.5 179.5 c 128,-1,37
 961 158 961 158 978 113 c 0,38,39
 989 84 989 84 989 54 c 0,40,41
 989 -6 989 -6 940.5 -47 c 128,-1,42
 892 -88 892 -88 810 -102 c 0,43,44
 756 -111 756 -111 704 -111 c 0,45,46
 505 -111 505 -111 294 10 c 1,47,-1
 257 30 l 2,48,49
 238 40 238 40 196 64 c 0,50,51
 120 110 120 110 78 132 c 0,52,53
 40 152 40 152 20 167 c 128,-1,54
 0 182 0 182 5 198 c 0,55,56
 7 207 7 207 11 210.5 c 128,-1,57
 15 214 15 214 24 214 c 2,58,-1
 120 214 l 2,59,60
 186 214 186 214 207 215 c 2,61,-1
 235 215 l 2,62,63
 254 215 254 215 258.5 214 c 128,-1,64
 263 213 263 213 267 209 c 0,65,66
 273 203 273 203 273 199 c 0,67,68
 273 193 273 193 260 189 c 0,69,70
 203 168 203 168 203 140 c 0,71,72
 203 124 203 124 220.5 105 c 128,-1,73
 238 86 238 86 273 60 c 0,74,75
 301 39 301 39 330 24 c 128,-1,76
 359 9 359 9 418 -19 c 2,77,-1
 453 -35 l 2,78,79
 492 -54 492 -54 546.5 -64.5 c 128,-1,80
 601 -75 601 -75 655 -75 c 256,81,82
 709 -75 709 -75 750 -63 c 0,83,84
 799 -48 799 -48 827 -8 c 128,-1,85
 855 32 855 32 855 85 c 0,86,87
 855 167 855 167 780 185 c 0,88,89
 750 192 750 192 732 193 c 0,90,91
 717 194 717 194 717 205 c 0,92,93
 717 212 717 212 724 214 c 0,94,32
 744 220 744 220 776 220 c 0,33,34
EndSplineSet
EndChar

StartChar: i
Encoding: 105 105 37
Width: 1118
GlyphClass: 1
Flags: W
LayerCount: 2
Fore
SplineSet
640 377 m 0,1,2
 637 383 637 383 637 386 c 0,3,4
 637 392 637 392 643.5 394.5 c 128,-1,5
 650 397 650 397 658 395 c 0,6,7
 688 389 688 389 707 389 c 0,8,9
 722 389 722 389 737 392 c 0,10,11
 764 397 764 397 789 411.5 c 128,-1,12
 814 426 814 426 828 454 c 0,13,14
 862 524 862 524 877 597 c 2,15,-1
 884 631 l 2,16,17
 889 652 889 652 900 704 c 0,18,19
 914 773 914 773 924 797 c 0,20,21
 934 819 934 819 952 834 c 128,-1,22
 970 849 970 849 989 854 c 0,23,24
 993 855 993 855 1027 860 c 2,25,-1
 1075 866 l 2,26,27
 1081 865 1081 865 1084.5 861.5 c 128,-1,28
 1088 858 1088 858 1088 854 c 0,29,30
 1088 848 1088 848 1083 843.5 c 128,-1,31
 1078 839 1078 839 1070 838 c 0,32,33
 1053 832 1053 832 1041 792 c 0,34,35
 1023 735 1023 735 1016 708 c 0,36,37
 989 610 989 610 963 540 c 0,38,39
 940 479 940 479 918.5 451.5 c 128,-1,40
 897 424 897 424 864 410 c 0,41,42
 819 390 819 390 773 380 c 128,-1,43
 727 370 727 370 691 370 c 1,44,45
 707 331 707 331 747 316 c 0,46,47
 775 305 775 305 775 292 c 0,48,49
 775 283 775 283 763 283 c 0,50,51
 742 283 742 283 709 308 c 0,52,0
 660 344 660 344 640 377 c 0,1,2
75 357 m 0,54,55
 72 363 72 363 72 366 c 0,56,57
 72 372 72 372 78.5 374.5 c 128,-1,58
 85 377 85 377 93 375 c 0,59,60
 123 369 123 369 142 369 c 0,61,62
 157 369 157 369 172 372 c 0,63,64
 199 377 199 377 224 391.5 c 128,-1,65
 249 406 249 406 263 434 c 0,66,67
 297 504 297 504 312 577 c 2,68,-1
 319 611 l 2,69,70
 324 632 324 632 335 684 c 0,71,72
 349 753 349 753 359 777 c 0,73,74
 369 799 369 799 387 814 c 128,-1,75
 405 829 405 829 424 834 c 0,76,77
 428 835 428 835 462 840 c 2,78,-1
 510 846 l 2,79,80
 516 845 516 845 519.5 841.5 c 128,-1,81
 523 838 523 838 523 834 c 0,82,83
 523 828 523 828 518 823.5 c 128,-1,84
 513 819 513 819 505 818 c 0,85,86
 488 812 488 812 476 772 c 0,87,88
 458 715 458 715 451 688 c 0,89,90
 424 590 424 590 398 520 c 0,91,92
 375 459 375 459 353.5 431.5 c 128,-1,93
 332 404 332 404 299 390 c 0,94,95
 254 370 254 370 208 360 c 128,-1,96
 162 350 162 350 126 350 c 1,97,98
 142 311 142 311 182 296 c 0,99,100
 210 285 210 285 210 272 c 0,101,102
 210 263 210 263 198 263 c 0,103,104
 177 263 177 263 144 288 c 0,105,53
 95 324 95 324 75 357 c 0,54,55
776 220 m 0,107,108
 809 220 809 220 840 213 c 0,109,110
 894 201 894 201 927.5 179.5 c 128,-1,111
 961 158 961 158 978 113 c 0,112,113
 989 84 989 84 989 54 c 0,114,115
 989 -6 989 -6 940.5 -47 c 128,-1,116
 892 -88 892 -88 810 -102 c 0,117,118
 756 -111 756 -111 704 -111 c 0,119,120
 505 -111 505 -111 294 10 c 1,121,-1
 257 30 l 2,122,123
 238 40 238 40 196 64 c 0,124,125
 120 110 120 110 78 132 c 0,126,127
 40 152 40 152 20 167 c 128,-1,128
 0 182 0 182 5 198 c 0,129,130
 7 207 7 207 11 210.5 c 128,-1,131
 15 214 15 214 24 214 c 2,132,-1
 120 214 l 2,133,134
 186 214 186 214 207 215 c 2,135,-1
 235 215 l 2,136,137
 254 215 254 215 258.5 214 c 128,-1,138
 263 213 263 213 267 209 c 0,139,140
 273 203 273 203 273 199 c 0,141,142
 273 193 273 193 260 189 c 0,143,144
 203 168 203 168 203 140 c 0,145,146
 203 124 203 124 220.5 105 c 128,-1,147
 238 86 238 86 273 60 c 0,148,149
 301 39 301 39 330 24 c 128,-1,150
 359 9 359 9 418 -19 c 2,151,-1
 453 -35 l 2,152,153
 492 -54 492 -54 546.5 -64.5 c 128,-1,154
 601 -75 601 -75 655 -75 c 256,155,156
 709 -75 709 -75 750 -63 c 0,157,158
 799 -48 799 -48 827 -8 c 128,-1,159
 855 32 855 32 855 85 c 0,160,161
 855 167 855 167 780 185 c 0,162,163
 750 192 750 192 732 193 c 0,164,165
 717 194 717 194 717 205 c 0,166,167
 717 212 717 212 724 214 c 0,168,106
 744 220 744 220 776 220 c 0,107,108
EndSplineSet
EndChar

StartChar: j
Encoding: 106 106 38
Width: 0
GlyphClass: 1
Flags: W
LayerCount: 2
Fore
SplineSet
-197 -373 m 128,-1,1
 -200 -372 -200 -372 -199 -366 c 0,2,3
 -198 -362 -198 -362 -162 -345 c 0,4,5
 -101 -318 -101 -318 -89 -278 c 0,6,7
 -86 -269 -86 -269 -86 -262 c 0,8,9
 -86 -226 -86 -226 -133.5 -204.5 c 128,-1,10
 -181 -183 -181 -183 -256 -174 c 0,11,12
 -378 -160 -378 -160 -520 -160 c 0,13,14
 -621 -160 -621 -160 -826 -169 c 0,15,16
 -857 -170 -857 -170 -935 -176 c 0,17,18
 -1041 -184 -1041 -184 -1051 -182 c 0,19,20
 -1056 -181 -1056 -181 -1059 -177 c 128,-1,21
 -1062 -173 -1062 -173 -1062 -167 c 256,22,23
 -1062 -161 -1062 -161 -1058.5 -157 c 128,-1,24
 -1055 -153 -1055 -153 -1049 -152 c 0,25,26
 -1027 -149 -1027 -149 -758 -137 c 0,27,28
 -638 -132 -638 -132 -536 -132 c 0,29,30
 -131 -132 -131 -132 -12 -208 c 0,31,32
 45 -245 45 -245 45 -289 c 0,33,34
 45 -302 45 -302 40 -314 c 0,35,36
 15 -374 15 -374 -183 -374 c 0,37,0
 -194 -374 -194 -374 -197 -373 c 128,-1,1
EndSplineSet
EndChar

StartChar: k
Encoding: 107 107 39
Width: 0
GlyphClass: 1
Flags: W
LayerCount: 2
Fore
SplineSet
-197 -373 m 128,-1,1
 -200 -372 -200 -372 -199 -366 c 0,2,3
 -198 -362 -198 -362 -162 -345 c 0,4,5
 -101 -318 -101 -318 -89 -278 c 0,6,7
 -86 -269 -86 -269 -86 -262 c 0,8,9
 -86 -226 -86 -226 -133.5 -204.5 c 128,-1,10
 -181 -183 -181 -183 -256 -174 c 0,11,12
 -378 -160 -378 -160 -520 -160 c 0,13,14
 -621 -160 -621 -160 -826 -169 c 0,15,16
 -857 -170 -857 -170 -935 -176 c 0,17,18
 -1041 -184 -1041 -184 -1051 -182 c 0,19,20
 -1056 -181 -1056 -181 -1059 -177 c 128,-1,21
 -1062 -173 -1062 -173 -1062 -167 c 256,22,23
 -1062 -161 -1062 -161 -1058.5 -157 c 128,-1,24
 -1055 -153 -1055 -153 -1049 -152 c 0,25,26
 -1027 -149 -1027 -149 -758 -137 c 0,27,28
 -638 -132 -638 -132 -536 -132 c 0,29,30
 -131 -132 -131 -132 -12 -208 c 0,31,32
 45 -245 45 -245 45 -289 c 0,33,34
 45 -302 45 -302 40 -314 c 0,35,36
 15 -374 15 -374 -183 -374 c 0,37,0
 -194 -374 -194 -374 -197 -373 c 128,-1,1
-621 -318 m 2,38,39
 -638 -318 -638 -318 -640 -312 c 0,40,41
 -641 -308 -641 -308 -636 -305 c 0,42,43
 -630 -301 -630 -301 -629 -290 c 2,44,-1
 -624 -247 l 2,45,46
 -621 -220 -621 -220 -598 -220 c 2,47,-1
 -544 -220 l 2,48,49
 -522 -220 -522 -220 -519 -223 c 0,50,51
 -518 -224 -518 -224 -518 -226 c 0,52,53
 -518 -231 -518 -231 -522 -233 c 0,54,55
 -524 -234 -524 -234 -524.5 -238.5 c 128,-1,56
 -525 -243 -525 -243 -526 -247 c 2,57,-1
 -532 -290 l 2,58,59
 -536 -318 -536 -318 -557 -318 c 2,60,-1
 -611 -318 l 1,61,-1
 -621 -318 l 2,38,39
EndSplineSet
EndChar

StartChar: l
Encoding: 108 108 40
Width: 0
GlyphClass: 1
Flags: W
LayerCount: 2
Fore
SplineSet
12.5 -373 m 128,-1,1
 10 -372 10 -372 11 -366 c 0,2,3
 12 -362 12 -362 40 -345 c 0,4,5
 101 -312 101 -312 101 -262 c 0,6,7
 101 -226 101 -226 63 -204.5 c 128,-1,8
 25 -183 25 -183 -35 -174 c 0,9,10
 -132 -160 -132 -160 -246 -160 c 0,11,12
 -327 -160 -327 -160 -491 -169 c 0,13,14
 -515 -170 -515 -170 -578 -176 c 0,15,16
 -663 -184 -663 -184 -671 -182 c 0,17,18
 -675 -181 -675 -181 -677 -177 c 128,-1,19
 -679 -173 -679 -173 -679 -167 c 0,20,21
 -679 -153 -679 -153 -669 -152 c 0,22,23
 -652 -149 -652 -149 -436 -137 c 0,24,25
 -339 -132 -339 -132 -258 -132 c 0,26,27
 -112 -132 -112 -132 -1 -149.5 c 128,-1,28
 110 -167 110 -167 160 -208 c 0,29,30
 206 -245 206 -245 206 -289 c 0,31,32
 206 -300 206 -300 202 -314 c 0,33,34
 183 -374 183 -374 24 -374 c 0,35,0
 15 -374 15 -374 12.5 -373 c 128,-1,1
-216 -298 m 2,36,37
 -233 -298 -233 -298 -235 -292 c 0,38,39
 -236 -288 -236 -288 -231 -285 c 0,40,41
 -225 -281 -225 -281 -224 -270 c 2,42,-1
 -219 -227 l 2,43,44
 -216 -200 -216 -200 -193 -200 c 2,45,-1
 -139 -200 l 2,46,47
 -117 -200 -117 -200 -114 -203 c 0,48,49
 -113 -204 -113 -204 -113 -206 c 0,50,51
 -113 -211 -113 -211 -117 -213 c 0,52,53
 -119 -214 -119 -214 -119.5 -218.5 c 128,-1,54
 -120 -223 -120 -223 -121 -227 c 2,55,-1
 -127 -270 l 2,56,57
 -131 -298 -131 -298 -152 -298 c 2,58,-1
 -206 -298 l 1,59,-1
 -216 -298 l 2,36,37
EndSplineSet
EndChar

StartChar: n
Encoding: 110 110 42
Width: 0
GlyphClass: 1
Flags: W
LayerCount: 2
Fore
SplineSet
-667.5 -376.5 m 128,-1,1
 -708 -366 -708 -366 -776 -343 c 0,2,3
 -829 -325 -829 -325 -946 -258.5 c 128,-1,4
 -1063 -192 -1063 -192 -1109 -160 c 2,5,-1
 -1182 -109 l 2,6,7
 -1187 -106 -1187 -106 -1187 -99 c 256,8,9
 -1187 -92 -1187 -92 -1181 -85.5 c 128,-1,10
 -1175 -79 -1175 -79 -1165 -79 c 0,11,12
 -1158 -79 -1158 -79 -1150 -83 c 0,13,14
 -1140 -89 -1140 -89 -1092 -121 c 2,15,-1
 -1061 -143 l 2,16,17
 -1009 -179 -1009 -179 -888 -249 c 0,18,19
 -812 -293 -812 -293 -721 -320.5 c 128,-1,20
 -630 -348 -630 -348 -567 -348 c 0,21,22
 -508 -348 -508 -348 -441 -327.5 c 128,-1,23
 -374 -307 -374 -307 -337 -274 c 0,24,25
 -245 -190 -245 -190 -207 -149 c 0,26,27
 -155 -94 -155 -94 -117 -87 c 1,28,-1
 -90 -85 l 2,29,30
 -4 -79 -4 -79 31 -79 c 0,31,32
 59 -79 59 -79 74 -80 c 0,33,34
 84 -83 84 -83 84 -94 c 0,35,36
 84 -99 84 -99 81 -103 c 128,-1,37
 78 -107 78 -107 73 -107 c 2,38,-1
 59 -107 l 2,39,40
 45 -108 45 -108 16.5 -128.5 c 128,-1,41
 -12 -149 -12 -149 -60 -189 c 2,42,-1
 -104 -225 l 2,43,44
 -173 -280 -173 -280 -209 -304.5 c 128,-1,45
 -245 -329 -245 -329 -298 -355 c 0,46,47
 -335 -374 -335 -374 -397 -382.5 c 128,-1,48
 -459 -391 -459 -391 -524 -391 c 0,49,50
 -558 -391 -558 -391 -573 -390 c 0,51,0
 -627 -387 -627 -387 -667.5 -376.5 c 128,-1,1
EndSplineSet
EndChar

StartChar: o
Encoding: 111 111 43
Width: 1118
GlyphClass: 1
Flags: W
LayerCount: 2
Fore
SplineSet
360 477 m 0,1,2
 357 483 357 483 357 486 c 0,3,4
 357 492 357 492 363.5 494.5 c 128,-1,5
 370 497 370 497 378 495 c 0,6,7
 408 489 408 489 427 489 c 0,8,9
 442 489 442 489 457 492 c 0,10,11
 484 497 484 497 509 511.5 c 128,-1,12
 534 526 534 526 548 554 c 0,13,14
 582 624 582 624 597 697 c 2,15,-1
 604 731 l 2,16,17
 609 752 609 752 620 804 c 0,18,19
 634 873 634 873 644 897 c 0,20,21
 654 919 654 919 672 934 c 128,-1,22
 690 949 690 949 709 954 c 0,23,24
 713 955 713 955 747 960 c 2,25,-1
 795 966 l 2,26,27
 801 965 801 965 804.5 961.5 c 128,-1,28
 808 958 808 958 808 954 c 0,29,30
 808 948 808 948 803 943.5 c 128,-1,31
 798 939 798 939 790 938 c 0,32,33
 773 932 773 932 761 892 c 0,34,35
 743 835 743 835 736 808 c 0,36,37
 709 710 709 710 683 640 c 0,38,39
 660 579 660 579 638.5 551.5 c 128,-1,40
 617 524 617 524 584 510 c 0,41,42
 539 490 539 490 493 480 c 128,-1,43
 447 470 447 470 411 470 c 1,44,45
 427 431 427 431 467 416 c 0,46,47
 495 405 495 405 495 392 c 0,48,49
 495 383 495 383 483 383 c 0,50,51
 462 383 462 383 429 408 c 0,52,0
 380 444 380 444 360 477 c 0,1,2
640 377 m 0,54,55
 637 383 637 383 637 386 c 0,56,57
 637 392 637 392 643.5 394.5 c 128,-1,58
 650 397 650 397 658 395 c 0,59,60
 688 389 688 389 707 389 c 0,61,62
 722 389 722 389 737 392 c 0,63,64
 764 397 764 397 789 411.5 c 128,-1,65
 814 426 814 426 828 454 c 0,66,67
 862 524 862 524 877 597 c 2,68,-1
 884 631 l 2,69,70
 889 652 889 652 900 704 c 0,71,72
 914 773 914 773 924 797 c 0,73,74
 934 819 934 819 952 834 c 128,-1,75
 970 849 970 849 989 854 c 0,76,77
 993 855 993 855 1027 860 c 2,78,-1
 1075 866 l 2,79,80
 1081 865 1081 865 1084.5 861.5 c 128,-1,81
 1088 858 1088 858 1088 854 c 0,82,83
 1088 848 1088 848 1083 843.5 c 128,-1,84
 1078 839 1078 839 1070 838 c 0,85,86
 1053 832 1053 832 1041 792 c 0,87,88
 1023 735 1023 735 1016 708 c 0,89,90
 989 610 989 610 963 540 c 0,91,92
 940 479 940 479 918.5 451.5 c 128,-1,93
 897 424 897 424 864 410 c 0,94,95
 819 390 819 390 773 380 c 128,-1,96
 727 370 727 370 691 370 c 1,97,98
 707 331 707 331 747 316 c 0,99,100
 775 305 775 305 775 292 c 0,101,102
 775 283 775 283 763 283 c 0,103,104
 742 283 742 283 709 308 c 0,105,53
 660 344 660 344 640 377 c 0,54,55
494 181 m 0,107,108
 481 182 481 182 476.5 187.5 c 128,-1,109
 472 193 472 193 461 212 c 0,110,111
 457 219 457 219 447 242 c 2,112,-1
 417 303 l 2,113,114
 413 310 413 310 410 312 c 128,-1,115
 407 314 407 314 397 316 c 0,116,117
 390 317 390 317 386 321.5 c 128,-1,118
 382 326 382 326 382 332 c 0,119,120
 382 343 382 343 397 343 c 2,121,-1
 445 343 l 2,122,123
 493 343 493 343 514 341 c 0,124,125
 523 340 523 340 530.5 329 c 128,-1,126
 538 318 538 318 549 293 c 0,127,128
 573 238 573 238 588 216 c 0,129,130
 594 207 594 207 597.5 205 c 128,-1,131
 601 203 601 203 610 201 c 0,132,133
 614 200 614 200 617.5 196 c 128,-1,134
 621 192 621 192 621 188 c 0,135,136
 621 178 621 178 603 178 c 0,137,106
 520 178 520 178 494 181 c 0,107,108
776 220 m 0,139,140
 809 220 809 220 840 213 c 0,141,142
 894 201 894 201 927.5 179.5 c 128,-1,143
 961 158 961 158 978 113 c 0,144,145
 989 84 989 84 989 54 c 0,146,147
 989 -6 989 -6 940.5 -47 c 128,-1,148
 892 -88 892 -88 810 -102 c 0,149,150
 756 -111 756 -111 704 -111 c 0,151,152
 505 -111 505 -111 294 10 c 1,153,-1
 257 30 l 2,154,155
 238 40 238 40 196 64 c 0,156,157
 120 110 120 110 78 132 c 0,158,159
 40 152 40 152 20 167 c 128,-1,160
 0 182 0 182 5 198 c 0,161,162
 7 207 7 207 11 210.5 c 128,-1,163
 15 214 15 214 24 214 c 2,164,-1
 120 214 l 2,165,166
 186 214 186 214 207 215 c 2,167,-1
 235 215 l 2,168,169
 254 215 254 215 258.5 214 c 128,-1,170
 263 213 263 213 267 209 c 0,171,172
 273 203 273 203 273 199 c 0,173,174
 273 193 273 193 260 189 c 0,175,176
 203 168 203 168 203 140 c 0,177,178
 203 124 203 124 220.5 105 c 128,-1,179
 238 86 238 86 273 60 c 0,180,181
 301 39 301 39 330 24 c 128,-1,182
 359 9 359 9 418 -19 c 2,183,-1
 453 -35 l 2,184,185
 492 -54 492 -54 546.5 -64.5 c 128,-1,186
 601 -75 601 -75 655 -75 c 256,187,188
 709 -75 709 -75 750 -63 c 0,189,190
 799 -48 799 -48 827 -8 c 128,-1,191
 855 32 855 32 855 85 c 0,192,193
 855 167 855 167 780 185 c 0,194,195
 750 192 750 192 732 193 c 0,196,197
 717 194 717 194 717 205 c 0,198,199
 717 212 717 212 724 214 c 0,200,138
 744 220 744 220 776 220 c 0,139,140
EndSplineSet
EndChar

StartChar: p
Encoding: 112 112 44
Width: 1026
GlyphClass: 1
Flags: W
LayerCount: 2
Fore
SplineSet
969 311 m 0,1,2
 954 318 954 318 936 323 c 0,3,4
 930 324 930 324 918.5 327 c 128,-1,5
 907 330 907 330 892 330 c 0,6,7
 793 332 793 332 599 334 c 0,8,9
 487 337 487 337 337 354 c 128,-1,10
 187 371 187 371 128 394 c 0,11,12
 99 406 99 406 84.5 414 c 128,-1,13
 70 422 70 422 51 438.5 c 128,-1,14
 32 455 32 455 8 485 c 0,15,16
 0 496 0 496 -5 512.5 c 128,-1,17
 -10 529 -10 529 -10 548 c 0,18,19
 -10 578 -10 578 3.5 598.5 c 128,-1,20
 17 619 17 619 45 619 c 0,21,22
 62 619 62 619 72.5 615 c 128,-1,23
 83 611 83 611 93 604 c 0,24,25
 114 592 114 592 128 578 c 128,-1,26
 142 564 142 564 133 555 c 0,27,28
 132 552 132 552 118 547 c 0,29,30
 96 540 96 540 80 527.5 c 128,-1,31
 64 515 64 515 64 492 c 0,32,33
 64 460 64 460 123 433 c 0,34,35
 166 412 166 412 266 412 c 2,36,-1
 297 412 l 1,37,-1
 841 426 l 2,38,39
 878 427 878 427 906 414 c 0,40,41
 917 409 917 409 926.5 403 c 128,-1,42
 936 397 936 397 945 388 c 0,43,44
 958 375 958 375 972 359 c 128,-1,45
 986 343 986 343 990 336 c 0,46,47
 994 331 994 331 994 320 c 0,48,49
 994 308 994 308 980 308 c 0,50,0
 975 308 975 308 969 311 c 0,1,2
781 220 m 0,52,53
 814 220 814 220 845 213 c 0,54,55
 899 201 899 201 932.5 179.5 c 128,-1,56
 966 158 966 158 983 113 c 0,57,58
 994 84 994 84 994 54 c 0,59,60
 994 -6 994 -6 945.5 -47 c 128,-1,61
 897 -88 897 -88 815 -102 c 0,62,63
 761 -111 761 -111 709 -111 c 0,64,65
 510 -111 510 -111 299 10 c 1,66,-1
 262 30 l 2,67,68
 243 40 243 40 201 64 c 0,69,70
 125 110 125 110 83 132 c 0,71,72
 45 152 45 152 25 167 c 128,-1,73
 5 182 5 182 10 198 c 0,74,75
 12 207 12 207 16 210.5 c 128,-1,76
 20 214 20 214 29 214 c 2,77,-1
 125 214 l 2,78,79
 191 214 191 214 212 215 c 2,80,-1
 240 215 l 2,81,82
 259 215 259 215 263.5 214 c 128,-1,83
 268 213 268 213 272 209 c 0,84,85
 278 203 278 203 278 199 c 0,86,87
 278 193 278 193 265 189 c 0,88,89
 208 168 208 168 208 140 c 0,90,91
 208 124 208 124 225.5 105 c 128,-1,92
 243 86 243 86 278 60 c 0,93,94
 306 39 306 39 335 24 c 128,-1,95
 364 9 364 9 423 -19 c 2,96,-1
 458 -35 l 2,97,98
 497 -54 497 -54 551.5 -64.5 c 128,-1,99
 606 -75 606 -75 660 -75 c 0,100,101
 715 -75 715 -75 755 -63 c 0,102,103
 804 -48 804 -48 832 -8 c 128,-1,104
 860 32 860 32 860 85 c 0,105,106
 860 167 860 167 785 185 c 0,107,108
 755 192 755 192 737 193 c 0,109,110
 722 194 722 194 722 205 c 0,111,112
 722 212 722 212 729 214 c 0,113,51
 749 220 749 220 781 220 c 0,52,53
EndSplineSet
EndChar

StartChar: q
Encoding: 113 113 45
Width: 1021
GlyphClass: 1
Flags: W
LayerCount: 2
Fore
SplineSet
776 220 m 0,1,2
 809 220 809 220 840 213 c 0,3,4
 894 201 894 201 927.5 179.5 c 128,-1,5
 961 158 961 158 978 113 c 0,6,7
 989 84 989 84 989 54 c 0,8,9
 989 -6 989 -6 940.5 -47 c 128,-1,10
 892 -88 892 -88 810 -102 c 0,11,12
 756 -111 756 -111 704 -111 c 0,13,14
 505 -111 505 -111 294 10 c 1,15,-1
 257 30 l 2,16,17
 238 40 238 40 196 64 c 0,18,19
 120 110 120 110 78 132 c 0,20,21
 40 152 40 152 20 167 c 128,-1,22
 0 182 0 182 5 198 c 0,23,24
 7 207 7 207 11 210.5 c 128,-1,25
 15 214 15 214 24 214 c 2,26,-1
 120 214 l 2,27,28
 186 214 186 214 207 215 c 2,29,-1
 235 215 l 2,30,31
 254 215 254 215 258.5 214 c 128,-1,32
 263 213 263 213 267 209 c 0,33,34
 273 203 273 203 273 199 c 0,35,36
 273 193 273 193 260 189 c 0,37,38
 203 168 203 168 203 140 c 0,39,40
 203 124 203 124 220.5 105 c 128,-1,41
 238 86 238 86 273 60 c 0,42,43
 301 39 301 39 330 24 c 128,-1,44
 359 9 359 9 418 -19 c 2,45,-1
 453 -35 l 2,46,47
 492 -54 492 -54 546.5 -64.5 c 128,-1,48
 601 -75 601 -75 655 -75 c 256,49,50
 709 -75 709 -75 750 -63 c 0,51,52
 799 -48 799 -48 827 -8 c 128,-1,53
 855 32 855 32 855 85 c 0,54,55
 855 167 855 167 780 185 c 0,56,57
 750 192 750 192 732 193 c 0,58,59
 717 194 717 194 717 205 c 0,60,61
 717 212 717 212 724 214 c 0,62,0
 744 220 744 220 776 220 c 0,1,2
EndSplineSet
EndChar

StartChar: r
Encoding: 114 114 46
Width: 1118
GlyphClass: 1
Flags: W
LayerCount: 2
Fore
SplineSet
640 377 m 0,1,2
 637 383 637 383 637 386 c 0,3,4
 637 392 637 392 643.5 394.5 c 128,-1,5
 650 397 650 397 658 395 c 0,6,7
 688 389 688 389 707 389 c 0,8,9
 722 389 722 389 737 392 c 0,10,11
 764 397 764 397 789 411.5 c 128,-1,12
 814 426 814 426 828 454 c 0,13,14
 862 524 862 524 877 597 c 2,15,-1
 884 631 l 2,16,17
 889 652 889 652 900 704 c 0,18,19
 914 773 914 773 924 797 c 0,20,21
 934 819 934 819 952 834 c 128,-1,22
 970 849 970 849 989 854 c 0,23,24
 993 855 993 855 1027 860 c 2,25,-1
 1075 866 l 2,26,27
 1081 865 1081 865 1084.5 861.5 c 128,-1,28
 1088 858 1088 858 1088 854 c 0,29,30
 1088 848 1088 848 1083 843.5 c 128,-1,31
 1078 839 1078 839 1070 838 c 0,32,33
 1053 832 1053 832 1041 792 c 0,34,35
 1023 735 1023 735 1016 708 c 0,36,37
 989 610 989 610 963 540 c 0,38,39
 940 479 940 479 918.5 451.5 c 128,-1,40
 897 424 897 424 864 410 c 0,41,42
 819 390 819 390 773 380 c 128,-1,43
 727 370 727 370 691 370 c 1,44,45
 707 331 707 331 747 316 c 0,46,47
 775 305 775 305 775 292 c 0,48,49
 775 283 775 283 763 283 c 0,50,51
 742 283 742 283 709 308 c 0,52,0
 660 344 660 344 640 377 c 0,1,2
776 220 m 0,54,55
 809 220 809 220 840 213 c 0,56,57
 894 201 894 201 927.5 179.5 c 128,-1,58
 961 158 961 158 978 113 c 0,59,60
 989 84 989 84 989 54 c 0,61,62
 989 -6 989 -6 940.5 -47 c 128,-1,63
 892 -88 892 -88 810 -102 c 0,64,65
 756 -111 756 -111 704 -111 c 0,66,67
 505 -111 505 -111 294 10 c 1,68,-1
 257 30 l 2,69,70
 238 40 238 40 196 64 c 0,71,72
 120 110 120 110 78 132 c 0,73,74
 40 152 40 152 20 167 c 128,-1,75
 0 182 0 182 5 198 c 0,76,77
 7 207 7 207 11 210.5 c 128,-1,78
 15 214 15 214 24 214 c 2,79,-1
 120 214 l 2,80,81
 186 214 186 214 207 215 c 2,82,-1
 235 215 l 2,83,84
 254 215 254 215 258.5 214 c 128,-1,85
 263 213 263 213 267 209 c 0,86,87
 273 203 273 203 273 199 c 0,88,89
 273 193 273 193 260 189 c 0,90,91
 203 168 203 168 203 140 c 0,92,93
 203 124 203 124 220.5 105 c 128,-1,94
 238 86 238 86 273 60 c 0,95,96
 301 39 301 39 330 24 c 128,-1,97
 359 9 359 9 418 -19 c 2,98,-1
 453 -35 l 2,99,100
 492 -54 492 -54 546.5 -64.5 c 128,-1,101
 601 -75 601 -75 655 -75 c 256,102,103
 709 -75 709 -75 750 -63 c 0,104,105
 799 -48 799 -48 827 -8 c 128,-1,106
 855 32 855 32 855 85 c 0,107,108
 855 167 855 167 780 185 c 0,109,110
 750 192 750 192 732 193 c 0,111,112
 717 194 717 194 717 205 c 0,113,114
 717 212 717 212 724 214 c 0,115,53
 744 220 744 220 776 220 c 0,54,55
EndSplineSet
EndChar

StartChar: t
Encoding: 116 116 48
Width: 1021
GlyphClass: 1
Flags: W
LayerCount: 2
Fore
SplineSet
75 357 m 0,1,2
 72 363 72 363 72 366 c 0,3,4
 72 372 72 372 78.5 374.5 c 128,-1,5
 85 377 85 377 93 375 c 0,6,7
 123 369 123 369 142 369 c 0,8,9
 157 369 157 369 172 372 c 0,10,11
 199 377 199 377 224 391.5 c 128,-1,12
 249 406 249 406 263 434 c 0,13,14
 297 504 297 504 312 577 c 2,15,-1
 319 611 l 2,16,17
 324 632 324 632 335 684 c 0,18,19
 349 753 349 753 359 777 c 0,20,21
 369 799 369 799 387 814 c 128,-1,22
 405 829 405 829 424 834 c 0,23,24
 428 835 428 835 462 840 c 2,25,-1
 510 846 l 2,26,27
 516 845 516 845 519.5 841.5 c 128,-1,28
 523 838 523 838 523 834 c 0,29,30
 523 828 523 828 518 823.5 c 128,-1,31
 513 819 513 819 505 818 c 0,32,33
 488 812 488 812 476 772 c 0,34,35
 458 715 458 715 451 688 c 0,36,37
 424 590 424 590 398 520 c 0,38,39
 375 459 375 459 353.5 431.5 c 128,-1,40
 332 404 332 404 299 390 c 0,41,42
 254 370 254 370 208 360 c 128,-1,43
 162 350 162 350 126 350 c 1,44,45
 142 311 142 311 182 296 c 0,46,47
 210 285 210 285 210 272 c 0,48,49
 210 263 210 263 198 263 c 0,50,51
 177 263 177 263 144 288 c 0,52,0
 95 324 95 324 75 357 c 0,1,2
776 220 m 0,54,55
 809 220 809 220 840 213 c 0,56,57
 894 201 894 201 927.5 179.5 c 128,-1,58
 961 158 961 158 978 113 c 0,59,60
 989 84 989 84 989 54 c 0,61,62
 989 -6 989 -6 940.5 -47 c 128,-1,63
 892 -88 892 -88 810 -102 c 0,64,65
 756 -111 756 -111 704 -111 c 0,66,67
 505 -111 505 -111 294 10 c 1,68,-1
 257 30 l 2,69,70
 238 40 238 40 196 64 c 0,71,72
 120 110 120 110 78 132 c 0,73,74
 40 152 40 152 20 167 c 128,-1,75
 0 182 0 182 5 198 c 0,76,77
 7 207 7 207 11 210.5 c 128,-1,78
 15 214 15 214 24 214 c 2,79,-1
 120 214 l 2,80,81
 186 214 186 214 207 215 c 2,82,-1
 235 215 l 2,83,84
 254 215 254 215 258.5 214 c 128,-1,85
 263 213 263 213 267 209 c 0,86,87
 273 203 273 203 273 199 c 0,88,89
 273 193 273 193 260 189 c 0,90,91
 203 168 203 168 203 140 c 0,92,93
 203 124 203 124 220.5 105 c 128,-1,94
 238 86 238 86 273 60 c 0,95,96
 301 39 301 39 330 24 c 128,-1,97
 359 9 359 9 418 -19 c 2,98,-1
 453 -35 l 2,99,100
 492 -54 492 -54 546.5 -64.5 c 128,-1,101
 601 -75 601 -75 655 -75 c 256,102,103
 709 -75 709 -75 750 -63 c 0,104,105
 799 -48 799 -48 827 -8 c 128,-1,106
 855 32 855 32 855 85 c 0,107,108
 855 167 855 167 780 185 c 0,109,110
 750 192 750 192 732 193 c 0,111,112
 717 194 717 194 717 205 c 0,113,114
 717 212 717 212 724 214 c 0,115,53
 744 220 744 220 776 220 c 0,54,55
EndSplineSet
EndChar

StartChar: u
Encoding: 117 117 49
Width: 1021
GlyphClass: 1
Flags: W
LayerCount: 2
Fore
SplineSet
360 477 m 0,1,2
 357 483 357 483 357 486 c 0,3,4
 357 492 357 492 363.5 494.5 c 128,-1,5
 370 497 370 497 378 495 c 0,6,7
 408 489 408 489 427 489 c 0,8,9
 442 489 442 489 457 492 c 0,10,11
 484 497 484 497 509 511.5 c 128,-1,12
 534 526 534 526 548 554 c 0,13,14
 582 624 582 624 597 697 c 2,15,-1
 604 731 l 2,16,17
 609 752 609 752 620 804 c 0,18,19
 634 873 634 873 644 897 c 0,20,21
 654 919 654 919 672 934 c 128,-1,22
 690 949 690 949 709 954 c 0,23,24
 713 955 713 955 747 960 c 2,25,-1
 795 966 l 2,26,27
 801 965 801 965 804.5 961.5 c 128,-1,28
 808 958 808 958 808 954 c 0,29,30
 808 948 808 948 803 943.5 c 128,-1,31
 798 939 798 939 790 938 c 0,32,33
 773 932 773 932 761 892 c 0,34,35
 743 835 743 835 736 808 c 0,36,37
 709 710 709 710 683 640 c 0,38,39
 660 579 660 579 638.5 551.5 c 128,-1,40
 617 524 617 524 584 510 c 0,41,42
 539 490 539 490 493 480 c 128,-1,43
 447 470 447 470 411 470 c 1,44,45
 427 431 427 431 467 416 c 0,46,47
 495 405 495 405 495 392 c 0,48,49
 495 383 495 383 483 383 c 0,50,51
 462 383 462 383 429 408 c 0,52,0
 380 444 380 444 360 477 c 0,1,2
494 181 m 0,54,55
 481 182 481 182 476.5 187.5 c 128,-1,56
 472 193 472 193 461 212 c 0,57,58
 457 219 457 219 447 242 c 2,59,-1
 417 303 l 2,60,61
 413 310 413 310 410 312 c 128,-1,62
 407 314 407 314 397 316 c 0,63,64
 390 317 390 317 386 321.5 c 128,-1,65
 382 326 382 326 382 332 c 0,66,67
 382 343 382 343 397 343 c 2,68,-1
 445 343 l 2,69,70
 493 343 493 343 514 341 c 0,71,72
 523 340 523 340 530.5 329 c 128,-1,73
 538 318 538 318 549 293 c 0,74,75
 573 238 573 238 588 216 c 0,76,77
 594 207 594 207 597.5 205 c 128,-1,78
 601 203 601 203 610 201 c 0,79,80
 614 200 614 200 617.5 196 c 128,-1,81
 621 192 621 192 621 188 c 0,82,83
 621 178 621 178 603 178 c 0,84,53
 520 178 520 178 494 181 c 0,54,55
776 220 m 0,86,87
 809 220 809 220 840 213 c 0,88,89
 894 201 894 201 927.5 179.5 c 128,-1,90
 961 158 961 158 978 113 c 0,91,92
 989 84 989 84 989 54 c 0,93,94
 989 -6 989 -6 940.5 -47 c 128,-1,95
 892 -88 892 -88 810 -102 c 0,96,97
 756 -111 756 -111 704 -111 c 0,98,99
 505 -111 505 -111 294 10 c 1,100,-1
 257 30 l 2,101,102
 238 40 238 40 196 64 c 0,103,104
 120 110 120 110 78 132 c 0,105,106
 40 152 40 152 20 167 c 128,-1,107
 0 182 0 182 5 198 c 0,108,109
 7 207 7 207 11 210.5 c 128,-1,110
 15 214 15 214 24 214 c 2,111,-1
 120 214 l 2,112,113
 186 214 186 214 207 215 c 2,114,-1
 235 215 l 2,115,116
 254 215 254 215 258.5 214 c 128,-1,117
 263 213 263 213 267 209 c 0,118,119
 273 203 273 203 273 199 c 0,120,121
 273 193 273 193 260 189 c 0,122,123
 203 168 203 168 203 140 c 0,124,125
 203 124 203 124 220.5 105 c 128,-1,126
 238 86 238 86 273 60 c 0,127,128
 301 39 301 39 330 24 c 128,-1,129
 359 9 359 9 418 -19 c 2,130,-1
 453 -35 l 2,131,132
 492 -54 492 -54 546.5 -64.5 c 128,-1,133
 601 -75 601 -75 655 -75 c 256,134,135
 709 -75 709 -75 750 -63 c 0,136,137
 799 -48 799 -48 827 -8 c 128,-1,138
 855 32 855 32 855 85 c 0,139,140
 855 167 855 167 780 185 c 0,141,142
 750 192 750 192 732 193 c 0,143,144
 717 194 717 194 717 205 c 0,145,146
 717 212 717 212 724 214 c 0,147,85
 744 220 744 220 776 220 c 0,86,87
EndSplineSet
EndChar

StartChar: v
Encoding: 118 118 50
Width: 1224
GlyphClass: 1
Flags: W
LayerCount: 2
Fore
SplineSet
232 178 m 0,1,2
 194 178 194 178 184 181 c 0,3,4
 176 184 176 184 176 188 c 256,5,6
 176 192 176 192 180.5 195.5 c 128,-1,7
 185 199 185 199 188 200 c 0,8,9
 198 202 198 202 207 215 c 256,10,11
 216 228 216 228 225 254 c 128,-1,12
 234 280 234 280 246 322 c 2,13,-1
 259 363 l 2,14,15
 276 410 276 410 294 411 c 0,16,17
 315 413 315 413 366 413 c 2,18,-1
 415 413 l 2,19,20
 430 413 430 413 430 402 c 0,21,22
 430 396 430 396 426 391.5 c 128,-1,23
 422 387 422 387 415 386 c 0,24,25
 404 384 404 384 399 382 c 128,-1,26
 394 380 394 380 391 373 c 0,27,28
 375 340 375 340 350 250 c 2,29,-1
 342 222 l 2,30,31
 329 184 329 184 304 181 c 0,32,0
 274 178 274 178 232 178 c 0,1,2
742 189 m 0,34,35
 729 190 729 190 724 196.5 c 128,-1,36
 719 203 719 203 709 226 c 2,37,-1
 693 265 l 2,38,39
 683 293 683 293 665 336 c 0,40,41
 661 345 661 345 658 347.5 c 128,-1,42
 655 350 655 350 645 352 c 0,43,44
 638 353 638 353 634 359 c 128,-1,45
 630 365 630 365 630 371 c 0,46,47
 630 385 630 385 645 385 c 2,48,-1
 685 385 l 2,49,50
 739 385 739 385 762 382 c 0,51,52
 771 381 771 381 778.5 367.5 c 128,-1,53
 786 354 786 354 797 324 c 0,54,55
 822 256 822 256 836 231 c 0,56,57
 842 220 842 220 845.5 217.5 c 128,-1,58
 849 215 849 215 858 213 c 0,59,60
 862 211 862 211 865.5 206.5 c 128,-1,61
 869 202 869 202 869 197 c 256,62,63
 869 192 869 192 864.5 188.5 c 128,-1,64
 860 185 860 185 851 185 c 0,65,33
 768 185 768 185 742 189 c 0,34,35
982 189 m 0,67,68
 969 190 969 190 964 196.5 c 128,-1,69
 959 203 959 203 949 226 c 2,70,-1
 933 265 l 2,71,72
 923 293 923 293 905 336 c 0,73,74
 901 345 901 345 898 347.5 c 128,-1,75
 895 350 895 350 885 352 c 0,76,77
 878 353 878 353 874 359 c 128,-1,78
 870 365 870 365 870 371 c 0,79,80
 870 385 870 385 885 385 c 2,81,-1
 925 385 l 2,82,83
 979 385 979 385 1002 382 c 0,84,85
 1011 381 1011 381 1018.5 367.5 c 128,-1,86
 1026 354 1026 354 1037 324 c 0,87,88
 1062 256 1062 256 1076 231 c 0,89,90
 1082 220 1082 220 1085.5 217.5 c 128,-1,91
 1089 215 1089 215 1098 213 c 0,92,93
 1102 211 1102 211 1105.5 206.5 c 128,-1,94
 1109 202 1109 202 1109 197 c 256,95,96
 1109 192 1109 192 1104.5 188.5 c 128,-1,97
 1100 185 1100 185 1091 185 c 0,98,66
 1008 185 1008 185 982 189 c 0,67,68
1128 5 m 0,100,101
 1108 7 1108 7 1083 7 c 2,102,-1
 204 7 l 2,103,104
 168 7 168 7 142 15 c 0,105,106
 124 21 124 21 100 36 c 0,107,108
 78 50 78 50 49 88 c 2,109,-1
 31 113 l 2,110,111
 30 115 30 115 30 119 c 0,112,113
 30 125 30 125 34 130 c 128,-1,114
 38 135 38 135 42 135 c 0,115,116
 48 135 48 135 54 131 c 0,117,118
 71 120 71 120 94 115 c 0,119,120
 109 112 109 112 136 112 c 2,121,-1
 1028 112 l 2,122,123
 1080 112 1080 112 1109 96 c 0,124,125
 1125 87 1125 87 1134 80 c 128,-1,126
 1143 73 1143 73 1160 56 c 0,127,128
 1176 40 1176 40 1185 27.5 c 128,-1,129
 1194 15 1194 15 1194 4 c 0,130,131
 1194 -4 1194 -4 1192 -7 c 0,132,133
 1190 -12 1190 -12 1186 -13.5 c 128,-1,134
 1182 -15 1182 -15 1177 -12 c 0,135,99
 1157 2 1157 2 1128 5 c 0,100,101
EndSplineSet
EndChar

StartChar: w
Encoding: 119 119 51
Width: 1108
GlyphClass: 1
Flags: W
LayerCount: 2
Fore
SplineSet
962 325 m 2,1,-1
 924 326 l 1,2,-1
 176 326 l 2,3,4
 146 326 146 326 124 334 c 0,5,6
 109 339 109 339 88 352 c 0,7,8
 72 363 72 363 45 399 c 2,9,-1
 29 422 l 2,10,11
 28 423 28 423 28 427 c 0,12,13
 28 432 28 432 31.5 437 c 128,-1,14
 35 442 35 442 39 442 c 256,15,16
 43 442 43 442 49 438 c 0,17,18
 67 427 67 427 83 424 c 0,19,20
 95 421 95 421 119 421 c 2,21,-1
 877 421 l 2,22,23
 920 421 920 421 946 406 c 0,24,25
 959 399 959 399 968 391 c 128,-1,26
 977 383 977 383 989 370 c 0,27,28
 1003 356 1003 356 1010.5 345 c 128,-1,29
 1018 334 1018 334 1018 324 c 0,30,31
 1018 320 1018 320 1016 314 c 0,32,33
 1013 304 1013 304 1003 309 c 0,34,0
 985 322 985 322 962 325 c 2,1,-1
843 220 m 0,36,37
 876 220 876 220 907 213 c 0,38,39
 961 201 961 201 994.5 179.5 c 128,-1,40
 1028 158 1028 158 1045 113 c 0,41,42
 1056 84 1056 84 1056 54 c 0,43,44
 1056 -6 1056 -6 1007.5 -47 c 128,-1,45
 959 -88 959 -88 877 -102 c 0,46,47
 823 -111 823 -111 771 -111 c 0,48,49
 572 -111 572 -111 361 10 c 1,50,-1
 324 30 l 2,51,52
 305 40 305 40 263 64 c 0,53,54
 187 110 187 110 145 132 c 0,55,56
 107 152 107 152 87 167 c 128,-1,57
 67 182 67 182 72 198 c 0,58,59
 74 207 74 207 78 210.5 c 128,-1,60
 82 214 82 214 91 214 c 2,61,-1
 187 214 l 2,62,63
 253 214 253 214 274 215 c 2,64,-1
 302 215 l 2,65,66
 321 215 321 215 325.5 214 c 128,-1,67
 330 213 330 213 334 209 c 0,68,69
 340 203 340 203 340 199 c 0,70,71
 340 193 340 193 327 189 c 0,72,73
 270 168 270 168 270 140 c 0,74,75
 270 124 270 124 287.5 105 c 128,-1,76
 305 86 305 86 340 60 c 0,77,78
 368 39 368 39 397 24 c 128,-1,79
 426 9 426 9 485 -19 c 2,80,-1
 520 -35 l 2,81,82
 559 -54 559 -54 613.5 -64.5 c 128,-1,83
 668 -75 668 -75 722 -75 c 256,84,85
 776 -75 776 -75 817 -63 c 0,86,87
 866 -48 866 -48 894 -8 c 128,-1,88
 922 32 922 32 922 85 c 0,89,90
 922 167 922 167 847 185 c 0,91,92
 817 192 817 192 799 193 c 0,93,94
 784 194 784 194 784 205 c 0,95,96
 784 212 784 212 791 214 c 0,97,35
 811 220 811 220 843 220 c 0,36,37
EndSplineSet
EndChar

StartChar: x
Encoding: 120 120 52
Width: 1614
GlyphClass: 1
Flags: W
LayerCount: 2
Fore
SplineSet
913 187 m 0,1,2
 909 188 909 188 891 194 c 0,3,4
 854 205 854 205 789 205 c 0,5,6
 573 205 573 205 411 226 c 0,7,8
 304 240 304 240 239.5 255 c 128,-1,9
 175 270 175 270 129.5 296.5 c 128,-1,10
 84 323 84 323 52 369 c 0,11,12
 30 400 30 400 30 440 c 0,13,14
 30 472 30 472 45.5 494.5 c 128,-1,15
 61 517 61 517 88 518 c 0,16,17
 109 519 109 519 121 515.5 c 128,-1,18
 133 512 133 512 141 508 c 128,-1,19
 149 504 149 504 151 503 c 0,20,21
 170 494 170 494 188 477 c 0,22,23
 202 464 202 464 202 457 c 0,24,25
 202 447 202 447 180 439 c 0,26,27
 152 428 152 428 134.5 415 c 128,-1,28
 117 402 117 402 117 374 c 0,29,30
 117 341 117 341 186 312 c 0,31,32
 244 287 244 287 345 287 c 0,33,34
 374 287 374 287 390 288 c 0,35,36
 476 292 476 292 519 295 c 0,37,38
 694 303 694 303 779 309 c 0,39,40
 812 311 812 311 846.5 299 c 128,-1,41
 881 287 881 287 903 266 c 0,42,43
 918 252 918 252 934 234.5 c 128,-1,44
 950 217 950 217 955 209 c 0,45,46
 960 202 960 202 960 192 c 0,47,48
 960 178 960 178 943 178 c 0,49,0
 936 178 936 178 913 187 c 0,1,2
1127 189 m 0,51,52
 1114 190 1114 190 1109 196.5 c 128,-1,53
 1104 203 1104 203 1094 226 c 2,54,-1
 1078 265 l 2,55,56
 1068 293 1068 293 1050 336 c 0,57,58
 1046 345 1046 345 1043 347.5 c 128,-1,59
 1040 350 1040 350 1030 352 c 0,60,61
 1023 353 1023 353 1019 359 c 128,-1,62
 1015 365 1015 365 1015 371 c 0,63,64
 1015 385 1015 385 1030 385 c 2,65,-1
 1070 385 l 2,66,67
 1124 385 1124 385 1147 382 c 0,68,69
 1156 381 1156 381 1163.5 367.5 c 128,-1,70
 1171 354 1171 354 1182 324 c 0,71,72
 1207 256 1207 256 1221 231 c 0,73,74
 1227 220 1227 220 1230.5 217.5 c 128,-1,75
 1234 215 1234 215 1243 213 c 0,76,77
 1247 211 1247 211 1250.5 206.5 c 128,-1,78
 1254 202 1254 202 1254 197 c 256,79,80
 1254 192 1254 192 1249.5 188.5 c 128,-1,81
 1245 185 1245 185 1236 185 c 0,82,50
 1153 185 1153 185 1127 189 c 0,51,52
1367 189 m 0,84,85
 1354 190 1354 190 1349 196.5 c 128,-1,86
 1344 203 1344 203 1334 226 c 2,87,-1
 1318 265 l 2,88,89
 1308 293 1308 293 1290 336 c 0,90,91
 1286 345 1286 345 1283 347.5 c 128,-1,92
 1280 350 1280 350 1270 352 c 0,93,94
 1263 353 1263 353 1259 359 c 128,-1,95
 1255 365 1255 365 1255 371 c 0,96,97
 1255 385 1255 385 1270 385 c 2,98,-1
 1310 385 l 2,99,100
 1364 385 1364 385 1387 382 c 0,101,102
 1396 381 1396 381 1403.5 367.5 c 128,-1,103
 1411 354 1411 354 1422 324 c 0,104,105
 1447 256 1447 256 1461 231 c 0,106,107
 1467 220 1467 220 1470.5 217.5 c 128,-1,108
 1474 215 1474 215 1483 213 c 0,109,110
 1487 211 1487 211 1490.5 206.5 c 128,-1,111
 1494 202 1494 202 1494 197 c 256,112,113
 1494 192 1494 192 1489.5 188.5 c 128,-1,114
 1485 185 1485 185 1476 185 c 0,115,83
 1393 185 1393 185 1367 189 c 0,84,85
1518 5 m 0,117,118
 1498 7 1498 7 1473 7 c 2,119,-1
 279 7 l 2,120,121
 243 7 243 7 217 15 c 0,122,123
 199 21 199 21 175 36 c 0,124,125
 153 50 153 50 124 88 c 2,126,-1
 106 113 l 2,127,128
 105 115 105 115 105 119 c 0,129,130
 105 125 105 125 109 130 c 128,-1,131
 113 135 113 135 117 135 c 0,132,133
 123 135 123 135 129 131 c 0,134,135
 146 120 146 120 169 115 c 0,136,137
 184 112 184 112 211 112 c 2,138,-1
 1418 112 l 2,139,140
 1470 112 1470 112 1499 96 c 0,141,142
 1515 87 1515 87 1524 80 c 128,-1,143
 1533 73 1533 73 1550 56 c 0,144,145
 1566 40 1566 40 1575 27.5 c 128,-1,146
 1584 15 1584 15 1584 4 c 0,147,148
 1584 -4 1584 -4 1582 -7 c 0,149,150
 1580 -12 1580 -12 1575.5 -13.5 c 128,-1,151
 1571 -15 1571 -15 1567 -12 c 0,152,116
 1547 2 1547 2 1518 5 c 0,117,118
EndSplineSet
EndChar

StartChar: y
Encoding: 121 121 53
Width: 1118
GlyphClass: 1
Flags: W
LayerCount: 2
Fore
SplineSet
640 377 m 0,1,2
 637 383 637 383 637 386 c 0,3,4
 637 392 637 392 643.5 394.5 c 128,-1,5
 650 397 650 397 658 395 c 0,6,7
 688 389 688 389 707 389 c 0,8,9
 722 389 722 389 737 392 c 0,10,11
 764 397 764 397 789 411.5 c 128,-1,12
 814 426 814 426 828 454 c 0,13,14
 862 524 862 524 877 597 c 2,15,-1
 884 631 l 2,16,17
 889 652 889 652 900 704 c 0,18,19
 914 773 914 773 924 797 c 0,20,21
 934 819 934 819 952 834 c 128,-1,22
 970 849 970 849 989 854 c 0,23,24
 993 855 993 855 1027 860 c 2,25,-1
 1075 866 l 2,26,27
 1081 865 1081 865 1084.5 861.5 c 128,-1,28
 1088 858 1088 858 1088 854 c 0,29,30
 1088 848 1088 848 1083 843.5 c 128,-1,31
 1078 839 1078 839 1070 838 c 0,32,33
 1053 832 1053 832 1041 792 c 0,34,35
 1023 735 1023 735 1016 708 c 0,36,37
 989 610 989 610 963 540 c 0,38,39
 940 479 940 479 918.5 451.5 c 128,-1,40
 897 424 897 424 864 410 c 0,41,42
 819 390 819 390 773 380 c 128,-1,43
 727 370 727 370 691 370 c 1,44,45
 707 331 707 331 747 316 c 0,46,47
 775 305 775 305 775 292 c 0,48,49
 775 283 775 283 763 283 c 0,50,51
 742 283 742 283 709 308 c 0,52,0
 660 344 660 344 640 377 c 0,1,2
431 282 m 0,54,55
 429 287 429 287 409.5 346.5 c 128,-1,56
 390 406 390 406 372 443 c 0,57,58
 369 450 369 450 364 452 c 128,-1,59
 359 454 359 454 348 456 c 0,60,61
 341 457 341 457 337 461.5 c 128,-1,62
 333 466 333 466 333 472 c 0,63,64
 333 483 333 483 348 483 c 2,65,-1
 397 483 l 2,66,67
 448 483 448 483 469 481 c 0,68,69
 487 480 487 480 504 433 c 2,70,-1
 517 396 l 2,71,72
 520 386 520 386 535 341.5 c 128,-1,73
 550 297 550 297 558 287 c 0,74,75
 570 270 570 270 573.5 266 c 128,-1,76
 577 262 577 262 585 261 c 0,77,78
 589 260 589 260 592.5 256 c 128,-1,79
 596 252 596 252 596 248 c 0,80,81
 596 238 596 238 578 238 c 0,82,83
 495 238 495 238 469 241 c 0,84,53
 444 244 444 244 431 282 c 0,54,55
776 220 m 0,86,87
 809 220 809 220 840 213 c 0,88,89
 894 201 894 201 927.5 179.5 c 128,-1,90
 961 158 961 158 978 113 c 0,91,92
 989 84 989 84 989 54 c 0,93,94
 989 -6 989 -6 940.5 -47 c 128,-1,95
 892 -88 892 -88 810 -102 c 0,96,97
 756 -111 756 -111 704 -111 c 0,98,99
 505 -111 505 -111 294 10 c 1,100,-1
 257 30 l 2,101,102
 238 40 238 40 196 64 c 0,103,104
 120 110 120 110 78 132 c 0,105,106
 40 152 40 152 20 167 c 128,-1,107
 0 182 0 182 5 198 c 0,108,109
 7 207 7 207 11 210.5 c 128,-1,110
 15 214 15 214 24 214 c 2,111,-1
 120 214 l 2,112,113
 186 214 186 214 207 215 c 2,114,-1
 235 215 l 2,115,116
 254 215 254 215 258.5 214 c 128,-1,117
 263 213 263 213 267 209 c 0,118,119
 273 203 273 203 273 199 c 0,120,121
 273 193 273 193 260 189 c 0,122,123
 203 168 203 168 203 140 c 0,124,125
 203 124 203 124 220.5 105 c 128,-1,126
 238 86 238 86 273 60 c 0,127,128
 301 39 301 39 330 24 c 128,-1,129
 359 9 359 9 418 -19 c 2,130,-1
 453 -35 l 2,131,132
 492 -54 492 -54 546.5 -64.5 c 128,-1,133
 601 -75 601 -75 655 -75 c 256,134,135
 709 -75 709 -75 750 -63 c 0,136,137
 799 -48 799 -48 827 -8 c 128,-1,138
 855 32 855 32 855 85 c 0,139,140
 855 167 855 167 780 185 c 0,141,142
 750 192 750 192 732 193 c 0,143,144
 717 194 717 194 717 205 c 0,145,146
 717 212 717 212 724 214 c 0,147,85
 744 220 744 220 776 220 c 0,86,87
EndSplineSet
EndChar

StartChar: z
Encoding: 122 122 54
Width: 1224
GlyphClass: 1
Flags: W
LayerCount: 2
Fore
SplineSet
1128 5 m 0,1,2
 1108 7 1108 7 1083 7 c 2,3,-1
 204 7 l 2,4,5
 168 7 168 7 142 15 c 0,6,7
 124 21 124 21 100 36 c 0,8,9
 78 50 78 50 49 88 c 2,10,-1
 31 113 l 2,11,12
 30 115 30 115 30 119 c 0,13,14
 30 125 30 125 34 130 c 128,-1,15
 38 135 38 135 42 135 c 0,16,17
 48 135 48 135 54 131 c 0,18,19
 71 120 71 120 94 115 c 0,20,21
 109 112 109 112 136 112 c 2,22,-1
 1028 112 l 2,23,24
 1080 112 1080 112 1109 96 c 0,25,26
 1125 87 1125 87 1134 80 c 128,-1,27
 1143 73 1143 73 1160 56 c 0,28,29
 1176 40 1176 40 1185 27.5 c 128,-1,30
 1194 15 1194 15 1194 4 c 0,31,32
 1194 -4 1194 -4 1192 -7 c 0,33,34
 1190 -12 1190 -12 1186 -13.5 c 128,-1,35
 1182 -15 1182 -15 1177 -12 c 0,36,0
 1157 2 1157 2 1128 5 c 0,1,2
772 -226 m 0,38,39
 759 -225 759 -225 754.5 -219.5 c 128,-1,40
 750 -214 750 -214 739 -192 c 0,41,42
 735 -186 735 -186 725 -160 c 0,43,44
 706 -115 706 -115 695 -92 c 0,45,46
 691 -84 691 -84 688 -81.5 c 128,-1,47
 685 -79 685 -79 675 -77 c 0,48,49
 668 -76 668 -76 664 -71 c 128,-1,50
 660 -66 660 -66 660 -60 c 0,51,52
 660 -48 660 -48 675 -48 c 2,53,-1
 723 -48 l 2,54,55
 771 -48 771 -48 792 -50 c 0,56,57
 801 -51 801 -51 808.5 -63 c 128,-1,58
 816 -75 816 -75 827 -103 c 0,59,60
 851 -164 851 -164 866 -187 c 0,61,62
 872 -198 872 -198 875.5 -200 c 128,-1,63
 879 -202 879 -202 888 -204 c 0,64,65
 892 -205 892 -205 895.5 -209.5 c 128,-1,66
 899 -214 899 -214 899 -218 c 0,67,68
 899 -229 899 -229 881 -229 c 0,69,37
 798 -229 798 -229 772 -226 c 0,38,39
1012 -226 m 0,71,72
 999 -225 999 -225 994.5 -219 c 128,-1,73
 990 -213 990 -213 979 -192 c 0,74,75
 975 -186 975 -186 965 -160 c 0,76,77
 946 -115 946 -115 935 -92 c 0,78,79
 931 -84 931 -84 928 -81.5 c 128,-1,80
 925 -79 925 -79 915 -77 c 0,81,82
 908 -76 908 -76 904 -71 c 128,-1,83
 900 -66 900 -66 900 -60 c 0,84,85
 900 -48 900 -48 915 -48 c 2,86,-1
 963 -48 l 2,87,88
 1011 -48 1011 -48 1032 -50 c 0,89,90
 1041 -51 1041 -51 1048.5 -63 c 128,-1,91
 1056 -75 1056 -75 1067 -103 c 0,92,93
 1091 -164 1091 -164 1106 -187 c 0,94,95
 1112 -198 1112 -198 1115.5 -200 c 128,-1,96
 1119 -202 1119 -202 1128 -204 c 0,97,98
 1132 -205 1132 -205 1135.5 -209.5 c 128,-1,99
 1139 -214 1139 -214 1139 -218 c 0,100,101
 1139 -229 1139 -229 1121 -229 c 0,102,70
 1038 -229 1038 -229 1012 -226 c 0,71,72
EndSplineSet
EndChar

StartChar: uni03A9
Encoding: 937 937 55
Width: 1224
GlyphClass: 1
Flags: W
LayerCount: 2
Fore
SplineSet
1128 5 m 0,1,2
 1108 7 1108 7 1083 7 c 2,3,-1
 204 7 l 2,4,5
 168 7 168 7 142 15 c 0,6,7
 124 21 124 21 100 36 c 0,8,9
 78 50 78 50 49 88 c 2,10,-1
 31 113 l 2,11,12
 30 115 30 115 30 119 c 0,13,14
 30 125 30 125 34 130 c 128,-1,15
 38 135 38 135 42 135 c 0,16,17
 48 135 48 135 54 131 c 0,18,19
 71 120 71 120 94 115 c 0,20,21
 109 112 109 112 136 112 c 2,22,-1
 1028 112 l 2,23,24
 1080 112 1080 112 1109 96 c 0,25,26
 1125 87 1125 87 1134 80 c 128,-1,27
 1143 73 1143 73 1160 56 c 0,28,29
 1176 40 1176 40 1185 27.5 c 128,-1,30
 1194 15 1194 15 1194 4 c 0,31,32
 1194 -4 1194 -4 1192 -7 c 0,33,34
 1190 -12 1190 -12 1186 -13.5 c 128,-1,35
 1182 -15 1182 -15 1177 -12 c 0,36,0
 1157 2 1157 2 1128 5 c 0,1,2
582 -216 m 0,38,39
 569 -215 569 -215 564.5 -209.5 c 128,-1,40
 560 -204 560 -204 549 -182 c 0,41,42
 545 -176 545 -176 535 -150 c 0,43,44
 516 -105 516 -105 505 -82 c 0,45,46
 501 -74 501 -74 498 -71.5 c 128,-1,47
 495 -69 495 -69 485 -67 c 0,48,49
 478 -66 478 -66 474 -61 c 128,-1,50
 470 -56 470 -56 470 -50 c 0,51,52
 470 -38 470 -38 485 -38 c 2,53,-1
 533 -38 l 2,54,55
 581 -38 581 -38 602 -40 c 0,56,57
 611 -41 611 -41 618.5 -53 c 128,-1,58
 626 -65 626 -65 637 -93 c 0,59,60
 661 -154 661 -154 676 -177 c 0,61,62
 682 -188 682 -188 685.5 -190 c 128,-1,63
 689 -192 689 -192 698 -194 c 0,64,65
 702 -195 702 -195 705.5 -199.5 c 128,-1,66
 709 -204 709 -204 709 -208 c 0,67,68
 709 -219 709 -219 691 -219 c 0,69,37
 608 -219 608 -219 582 -216 c 0,38,39
822 -216 m 0,71,72
 809 -215 809 -215 804.5 -209.5 c 128,-1,73
 800 -204 800 -204 789 -182 c 0,74,75
 785 -176 785 -176 775 -150 c 0,76,77
 756 -105 756 -105 745 -82 c 0,78,79
 741 -74 741 -74 738 -71.5 c 128,-1,80
 735 -69 735 -69 725 -67 c 0,81,82
 718 -66 718 -66 714 -61 c 128,-1,83
 710 -56 710 -56 710 -50 c 0,84,85
 710 -38 710 -38 725 -38 c 2,86,-1
 773 -38 l 2,87,88
 821 -38 821 -38 842 -40 c 0,89,90
 851 -41 851 -41 858.5 -53 c 128,-1,91
 866 -65 866 -65 877 -93 c 0,92,93
 901 -154 901 -154 916 -177 c 0,94,95
 922 -188 922 -188 925.5 -190 c 128,-1,96
 929 -192 929 -192 938 -194 c 0,97,98
 942 -195 942 -195 945.5 -199.5 c 128,-1,99
 949 -204 949 -204 949 -208 c 0,100,101
 949 -219 949 -219 931 -219 c 0,102,70
 848 -219 848 -219 822 -216 c 0,71,72
EndSplineSet
EndChar

StartChar: zero
Encoding: 48 48 56
Width: 1241
GlyphClass: 1
Flags: W
LayerCount: 2
Fore
SplineSet
1181 -10 m 0,1,2
 1155 0 1155 0 1142 3 c 0,3,4
 1137 4 1137 4 1123.5 7.5 c 128,-1,5
 1110 11 1110 11 1090 11 c 2,6,-1
 746 16 l 2,7,8
 614 19 614 19 437.5 37.5 c 128,-1,9
 261 56 261 56 192 82 c 0,10,11
 158 95 158 95 140.5 104 c 128,-1,12
 123 113 123 113 101 131 c 128,-1,13
 79 149 79 149 51 183 c 0,14,15
 41 194 41 194 35.5 213.5 c 128,-1,16
 30 233 30 233 30 253 c 0,17,18
 30 286 30 286 45.5 309 c 128,-1,19
 61 332 61 332 93 332 c 0,20,21
 113 332 113 332 125 328 c 128,-1,22
 137 324 137 324 151 316 c 0,23,24
 202 287 202 287 202 269 c 0,25,26
 202 265 202 265 198 261 c 0,27,28
 193 256 193 256 180 252 c 0,29,30
 153 243 153 243 134.5 230 c 128,-1,31
 116 217 116 217 116 191 c 0,32,33
 116 155 116 155 186 125 c 0,34,35
 239 102 239 102 358 102 c 2,36,-1
 390 102 l 1,37,-1
 1030 118 l 2,38,39
 1073 119 1073 119 1107 104 c 0,40,41
 1133 92 1133 92 1153 75 c 0,42,43
 1167 63 1167 63 1184 44.5 c 128,-1,44
 1201 26 1201 26 1206 18 c 0,45,46
 1211 11 1211 11 1211 0 c 0,47,48
 1211 -13 1211 -13 1194 -13 c 0,49,0
 1189 -13 1189 -13 1181 -10 c 0,1,2
EndSplineSet
EndChar

StartChar: one
Encoding: 49 49 57
Width: 1224
GlyphClass: 1
Flags: W
LayerCount: 2
Fore
SplineSet
1128 5 m 0,1,2
 1108 7 1108 7 1083 7 c 2,3,-1
 204 7 l 2,4,5
 168 7 168 7 142 15 c 0,6,7
 124 21 124 21 100 36 c 0,8,9
 78 50 78 50 49 88 c 2,10,-1
 31 113 l 2,11,12
 30 115 30 115 30 119 c 0,13,14
 30 125 30 125 34 130 c 128,-1,15
 38 135 38 135 42 135 c 0,16,17
 48 135 48 135 54 131 c 0,18,19
 71 120 71 120 94 115 c 0,20,21
 109 112 109 112 136 112 c 2,22,-1
 1028 112 l 2,23,24
 1080 112 1080 112 1109 96 c 0,25,26
 1125 87 1125 87 1134 80 c 128,-1,27
 1143 73 1143 73 1160 56 c 0,28,29
 1176 40 1176 40 1185 27.5 c 128,-1,30
 1194 15 1194 15 1194 4 c 0,31,32
 1194 -4 1194 -4 1192 -7 c 0,33,34
 1190 -12 1190 -12 1186 -13.5 c 128,-1,35
 1182 -15 1182 -15 1177 -12 c 0,36,0
 1157 2 1157 2 1128 5 c 0,1,2
EndSplineSet
EndChar

StartChar: two
Encoding: 50 50 58
Width: 1224
GlyphClass: 1
Flags: W
LayerCount: 2
Fore
SplineSet
1128 5 m 0,1,2
 1108 7 1108 7 1083 7 c 2,3,-1
 204 7 l 2,4,5
 168 7 168 7 142 15 c 0,6,7
 124 21 124 21 100 36 c 0,8,9
 78 50 78 50 49 88 c 2,10,-1
 31 113 l 2,11,12
 30 115 30 115 30 119 c 0,13,14
 30 125 30 125 34 130 c 128,-1,15
 38 135 38 135 42 135 c 0,16,17
 48 135 48 135 54 131 c 0,18,19
 71 120 71 120 94 115 c 0,20,21
 109 112 109 112 136 112 c 2,22,-1
 1028 112 l 2,23,24
 1080 112 1080 112 1109 96 c 0,25,26
 1125 87 1125 87 1134 80 c 128,-1,27
 1143 73 1143 73 1160 56 c 0,28,29
 1176 40 1176 40 1185 27.5 c 128,-1,30
 1194 15 1194 15 1194 4 c 0,31,32
 1194 -4 1194 -4 1192 -7 c 0,33,34
 1190 -12 1190 -12 1186 -13.5 c 128,-1,35
 1182 -15 1182 -15 1177 -12 c 0,36,0
 1157 2 1157 2 1128 5 c 0,1,2
799 -231 m 0,38,39
 786 -230 786 -230 781.5 -224.5 c 128,-1,40
 777 -219 777 -219 766 -197 c 0,41,42
 762 -191 762 -191 752 -165 c 0,43,44
 733 -120 733 -120 722 -97 c 0,45,46
 718 -89 718 -89 715 -86.5 c 128,-1,47
 712 -84 712 -84 702 -82 c 0,48,49
 695 -81 695 -81 691 -76 c 128,-1,50
 687 -71 687 -71 687 -65 c 0,51,52
 687 -53 687 -53 702 -53 c 2,53,-1
 750 -53 l 2,54,55
 798 -53 798 -53 819 -55 c 0,56,57
 828 -56 828 -56 835.5 -68 c 128,-1,58
 843 -80 843 -80 854 -108 c 0,59,60
 878 -169 878 -169 893 -192 c 0,61,62
 899 -203 899 -203 902.5 -205 c 128,-1,63
 906 -207 906 -207 915 -209 c 0,64,65
 919 -210 919 -210 922.5 -214.5 c 128,-1,66
 926 -219 926 -219 926 -223 c 0,67,68
 926 -234 926 -234 908 -234 c 0,69,37
 825 -234 825 -234 799 -231 c 0,38,39
EndSplineSet
EndChar

StartChar: three
Encoding: 51 51 59
Width: 1224
GlyphClass: 1
Flags: W
LayerCount: 2
Fore
SplineSet
556 267 m 0,1,2
 554 272 554 272 534.5 331.5 c 128,-1,3
 515 391 515 391 497 428 c 0,4,5
 494 435 494 435 489 437 c 128,-1,6
 484 439 484 439 473 441 c 0,7,8
 466 442 466 442 462 446.5 c 128,-1,9
 458 451 458 451 458 457 c 0,10,11
 458 468 458 468 473 468 c 2,12,-1
 522 468 l 2,13,14
 573 468 573 468 594 466 c 0,15,16
 612 465 612 465 629 418 c 2,17,-1
 642 381 l 2,18,19
 645 371 645 371 660 326.5 c 128,-1,20
 675 282 675 282 683 272 c 0,21,22
 695 255 695 255 698.5 251 c 128,-1,23
 702 247 702 247 710 246 c 0,24,25
 714 245 714 245 717.5 241 c 128,-1,26
 721 237 721 237 721 233 c 0,27,28
 721 223 721 223 703 223 c 0,29,30
 620 223 620 223 594 226 c 0,31,0
 569 229 569 229 556 267 c 0,1,2
1128 5 m 0,33,34
 1108 7 1108 7 1083 7 c 2,35,-1
 204 7 l 2,36,37
 168 7 168 7 142 15 c 0,38,39
 124 21 124 21 100 36 c 0,40,41
 78 50 78 50 49 88 c 2,42,-1
 31 113 l 2,43,44
 30 115 30 115 30 119 c 0,45,46
 30 125 30 125 34 130 c 128,-1,47
 38 135 38 135 42 135 c 0,48,49
 48 135 48 135 54 131 c 0,50,51
 71 120 71 120 94 115 c 0,52,53
 109 112 109 112 136 112 c 2,54,-1
 1028 112 l 2,55,56
 1080 112 1080 112 1109 96 c 0,57,58
 1125 87 1125 87 1134 80 c 128,-1,59
 1143 73 1143 73 1160 56 c 0,60,61
 1176 40 1176 40 1185 27.5 c 128,-1,62
 1194 15 1194 15 1194 4 c 0,63,64
 1194 -4 1194 -4 1192 -7 c 0,65,66
 1190 -12 1190 -12 1186 -13.5 c 128,-1,67
 1182 -15 1182 -15 1177 -12 c 0,68,32
 1157 2 1157 2 1128 5 c 0,33,34
EndSplineSet
EndChar

StartChar: four
Encoding: 52 52 60
Width: 1248
GlyphClass: 1
Flags: W
LayerCount: 2
Fore
SplineSet
770 317 m 0,1,2
 767 323 767 323 767 326 c 0,3,4
 767 332 767 332 773.5 334.5 c 128,-1,5
 780 337 780 337 788 335 c 0,6,7
 818 329 818 329 837 329 c 0,8,9
 852 329 852 329 867 332 c 0,10,11
 894 337 894 337 919 351.5 c 128,-1,12
 944 366 944 366 958 394 c 0,13,14
 992 464 992 464 1007 537 c 2,15,-1
 1014 571 l 2,16,17
 1019 592 1019 592 1030 644 c 0,18,19
 1044 713 1044 713 1054 737 c 0,20,21
 1064 759 1064 759 1082 774 c 128,-1,22
 1100 789 1100 789 1119 794 c 0,23,24
 1123 795 1123 795 1157 800 c 2,25,-1
 1205 806 l 2,26,27
 1211 805 1211 805 1214.5 801.5 c 128,-1,28
 1218 798 1218 798 1218 794 c 0,29,30
 1218 788 1218 788 1213 783.5 c 128,-1,31
 1208 779 1208 779 1200 778 c 0,32,33
 1183 772 1183 772 1171 732 c 0,34,35
 1153 675 1153 675 1146 648 c 0,36,37
 1119 550 1119 550 1093 480 c 0,38,39
 1070 419 1070 419 1048.5 391.5 c 128,-1,40
 1027 364 1027 364 994 350 c 0,41,42
 949 330 949 330 903 320 c 128,-1,43
 857 310 857 310 821 310 c 1,44,45
 837 271 837 271 877 256 c 0,46,47
 905 245 905 245 905 232 c 0,48,49
 905 223 905 223 893 223 c 0,50,51
 872 223 872 223 839 248 c 0,52,0
 790 284 790 284 770 317 c 0,1,2
1128 5 m 0,54,55
 1108 7 1108 7 1083 7 c 2,56,-1
 204 7 l 2,57,58
 168 7 168 7 142 15 c 0,59,60
 124 21 124 21 100 36 c 0,61,62
 78 50 78 50 49 88 c 2,63,-1
 31 113 l 2,64,65
 30 115 30 115 30 119 c 0,66,67
 30 125 30 125 34 130 c 128,-1,68
 38 135 38 135 42 135 c 0,69,70
 48 135 48 135 54 131 c 0,71,72
 71 120 71 120 94 115 c 0,73,74
 109 112 109 112 136 112 c 2,75,-1
 1028 112 l 2,76,77
 1080 112 1080 112 1109 96 c 0,78,79
 1125 87 1125 87 1134 80 c 128,-1,80
 1143 73 1143 73 1160 56 c 0,81,82
 1176 40 1176 40 1185 27.5 c 128,-1,83
 1194 15 1194 15 1194 4 c 0,84,85
 1194 -4 1194 -4 1192 -7 c 0,86,87
 1190 -12 1190 -12 1186 -13.5 c 128,-1,88
 1182 -15 1182 -15 1177 -12 c 0,89,53
 1157 2 1157 2 1128 5 c 0,54,55
EndSplineSet
EndChar

StartChar: five
Encoding: 53 53 61
Width: 1224
GlyphClass: 1
Flags: W
LayerCount: 2
Fore
SplineSet
100 317 m 0,1,2
 97 323 97 323 97 326 c 0,3,4
 97 332 97 332 103.5 334.5 c 128,-1,5
 110 337 110 337 118 335 c 0,6,7
 148 329 148 329 167 329 c 0,8,9
 182 329 182 329 197 332 c 0,10,11
 224 337 224 337 249 351.5 c 128,-1,12
 274 366 274 366 288 394 c 0,13,14
 322 464 322 464 337 537 c 2,15,-1
 344 571 l 2,16,17
 349 592 349 592 360 644 c 0,18,19
 374 713 374 713 384 737 c 0,20,21
 394 759 394 759 412 774 c 128,-1,22
 430 789 430 789 449 794 c 0,23,24
 453 795 453 795 487 800 c 2,25,-1
 535 806 l 2,26,27
 541 805 541 805 544.5 801.5 c 128,-1,28
 548 798 548 798 548 794 c 0,29,30
 548 788 548 788 543 783.5 c 128,-1,31
 538 779 538 779 530 778 c 0,32,33
 513 772 513 772 501 732 c 0,34,35
 483 675 483 675 476 648 c 0,36,37
 449 550 449 550 423 480 c 0,38,39
 400 419 400 419 378.5 391.5 c 128,-1,40
 357 364 357 364 324 350 c 0,41,42
 279 330 279 330 233 320 c 128,-1,43
 187 310 187 310 151 310 c 1,44,45
 167 271 167 271 207 256 c 0,46,47
 235 245 235 245 235 232 c 0,48,49
 235 223 235 223 223 223 c 0,50,51
 202 223 202 223 169 248 c 0,52,0
 120 284 120 284 100 317 c 0,1,2
1128 5 m 0,54,55
 1108 7 1108 7 1083 7 c 2,56,-1
 204 7 l 2,57,58
 168 7 168 7 142 15 c 0,59,60
 124 21 124 21 100 36 c 0,61,62
 78 50 78 50 49 88 c 2,63,-1
 31 113 l 2,64,65
 30 115 30 115 30 119 c 0,66,67
 30 125 30 125 34 130 c 128,-1,68
 38 135 38 135 42 135 c 0,69,70
 48 135 48 135 54 131 c 0,71,72
 71 120 71 120 94 115 c 0,73,74
 109 112 109 112 136 112 c 2,75,-1
 1028 112 l 2,76,77
 1080 112 1080 112 1109 96 c 0,78,79
 1125 87 1125 87 1134 80 c 128,-1,80
 1143 73 1143 73 1160 56 c 0,81,82
 1176 40 1176 40 1185 27.5 c 128,-1,83
 1194 15 1194 15 1194 4 c 0,84,85
 1194 -4 1194 -4 1192 -7 c 0,86,87
 1190 -12 1190 -12 1186 -13.5 c 128,-1,88
 1182 -15 1182 -15 1177 -12 c 0,89,53
 1157 2 1157 2 1128 5 c 0,54,55
EndSplineSet
EndChar

StartChar: six
Encoding: 54 54 62
Width: 1248
GlyphClass: 1
Flags: W
LayerCount: 2
Fore
SplineSet
770 317 m 0,1,2
 767 323 767 323 767 326 c 0,3,4
 767 332 767 332 773.5 334.5 c 128,-1,5
 780 337 780 337 788 335 c 0,6,7
 818 329 818 329 837 329 c 0,8,9
 852 329 852 329 867 332 c 0,10,11
 894 337 894 337 919 351.5 c 128,-1,12
 944 366 944 366 958 394 c 0,13,14
 992 464 992 464 1007 537 c 2,15,-1
 1014 571 l 2,16,17
 1019 592 1019 592 1030 644 c 0,18,19
 1044 713 1044 713 1054 737 c 0,20,21
 1064 759 1064 759 1082 774 c 128,-1,22
 1100 789 1100 789 1119 794 c 0,23,24
 1123 795 1123 795 1157 800 c 2,25,-1
 1205 806 l 2,26,27
 1211 805 1211 805 1214.5 801.5 c 128,-1,28
 1218 798 1218 798 1218 794 c 0,29,30
 1218 788 1218 788 1213 783.5 c 128,-1,31
 1208 779 1208 779 1200 778 c 0,32,33
 1183 772 1183 772 1171 732 c 0,34,35
 1153 675 1153 675 1146 648 c 0,36,37
 1119 550 1119 550 1093 480 c 0,38,39
 1070 419 1070 419 1048.5 391.5 c 128,-1,40
 1027 364 1027 364 994 350 c 0,41,42
 949 330 949 330 903 320 c 128,-1,43
 857 310 857 310 821 310 c 1,44,45
 837 271 837 271 877 256 c 0,46,47
 905 245 905 245 905 232 c 0,48,49
 905 223 905 223 893 223 c 0,50,51
 872 223 872 223 839 248 c 0,52,0
 790 284 790 284 770 317 c 0,1,2
556 267 m 0,54,55
 554 272 554 272 534.5 331.5 c 128,-1,56
 515 391 515 391 497 428 c 0,57,58
 494 435 494 435 489 437 c 128,-1,59
 484 439 484 439 473 441 c 0,60,61
 466 442 466 442 462 446.5 c 128,-1,62
 458 451 458 451 458 457 c 0,63,64
 458 468 458 468 473 468 c 2,65,-1
 522 468 l 2,66,67
 573 468 573 468 594 466 c 0,68,69
 612 465 612 465 629 418 c 2,70,-1
 642 381 l 2,71,72
 645 371 645 371 660 326.5 c 128,-1,73
 675 282 675 282 683 272 c 0,74,75
 695 255 695 255 698.5 251 c 128,-1,76
 702 247 702 247 710 246 c 0,77,78
 714 245 714 245 717.5 241 c 128,-1,79
 721 237 721 237 721 233 c 0,80,81
 721 223 721 223 703 223 c 0,82,83
 620 223 620 223 594 226 c 0,84,53
 569 229 569 229 556 267 c 0,54,55
1128 5 m 0,86,87
 1108 7 1108 7 1083 7 c 2,88,-1
 204 7 l 2,89,90
 168 7 168 7 142 15 c 0,91,92
 124 21 124 21 100 36 c 0,93,94
 78 50 78 50 49 88 c 2,95,-1
 31 113 l 2,96,97
 30 115 30 115 30 119 c 0,98,99
 30 125 30 125 34 130 c 128,-1,100
 38 135 38 135 42 135 c 0,101,102
 48 135 48 135 54 131 c 0,103,104
 71 120 71 120 94 115 c 0,105,106
 109 112 109 112 136 112 c 2,107,-1
 1028 112 l 2,108,109
 1080 112 1080 112 1109 96 c 0,110,111
 1125 87 1125 87 1134 80 c 128,-1,112
 1143 73 1143 73 1160 56 c 0,113,114
 1176 40 1176 40 1185 27.5 c 128,-1,115
 1194 15 1194 15 1194 4 c 0,116,117
 1194 -4 1194 -4 1192 -7 c 0,118,119
 1190 -12 1190 -12 1186 -13.5 c 128,-1,120
 1182 -15 1182 -15 1177 -12 c 0,121,85
 1157 2 1157 2 1128 5 c 0,86,87
EndSplineSet
EndChar

StartChar: seven
Encoding: 55 55 63
Width: 1224
GlyphClass: 1
Flags: W
LayerCount: 2
Fore
SplineSet
490 477 m 0,1,2
 487 483 487 483 487 486 c 0,3,4
 487 492 487 492 493.5 494.5 c 128,-1,5
 500 497 500 497 508 495 c 0,6,7
 538 489 538 489 557 489 c 0,8,9
 572 489 572 489 587 492 c 0,10,11
 614 497 614 497 639 511.5 c 128,-1,12
 664 526 664 526 678 554 c 0,13,14
 712 624 712 624 727 697 c 2,15,-1
 734 731 l 2,16,17
 739 752 739 752 750 804 c 0,18,19
 764 873 764 873 774 897 c 0,20,21
 784 919 784 919 802 934 c 128,-1,22
 820 949 820 949 839 954 c 0,23,24
 843 955 843 955 877 960 c 2,25,-1
 925 966 l 2,26,27
 931 965 931 965 934.5 961.5 c 128,-1,28
 938 958 938 958 938 954 c 0,29,30
 938 948 938 948 933 943.5 c 128,-1,31
 928 939 928 939 920 938 c 0,32,33
 903 932 903 932 891 892 c 0,34,35
 873 835 873 835 866 808 c 0,36,37
 839 710 839 710 813 640 c 0,38,39
 790 579 790 579 768.5 551.5 c 128,-1,40
 747 524 747 524 714 510 c 0,41,42
 669 490 669 490 623 480 c 128,-1,43
 577 470 577 470 541 470 c 1,44,45
 557 431 557 431 597 416 c 0,46,47
 625 405 625 405 625 392 c 0,48,49
 625 383 625 383 613 383 c 0,50,51
 592 383 592 383 559 408 c 0,52,0
 510 444 510 444 490 477 c 0,1,2
624 181 m 0,54,55
 611 182 611 182 606.5 187.5 c 128,-1,56
 602 193 602 193 591 212 c 0,57,58
 587 219 587 219 577 242 c 2,59,-1
 547 303 l 2,60,61
 543 310 543 310 540 312 c 128,-1,62
 537 314 537 314 527 316 c 0,63,64
 520 317 520 317 516 321.5 c 128,-1,65
 512 326 512 326 512 332 c 0,66,67
 512 343 512 343 527 343 c 2,68,-1
 575 343 l 2,69,70
 623 343 623 343 644 341 c 0,71,72
 653 340 653 340 660.5 329 c 128,-1,73
 668 318 668 318 679 293 c 0,74,75
 703 238 703 238 718 216 c 0,76,77
 724 207 724 207 727.5 205 c 128,-1,78
 731 203 731 203 740 201 c 0,79,80
 744 200 744 200 747.5 196 c 128,-1,81
 751 192 751 192 751 188 c 0,82,83
 751 178 751 178 733 178 c 0,84,53
 650 178 650 178 624 181 c 0,54,55
1128 5 m 0,86,87
 1108 7 1108 7 1083 7 c 2,88,-1
 204 7 l 2,89,90
 168 7 168 7 142 15 c 0,91,92
 124 21 124 21 100 36 c 0,93,94
 78 50 78 50 49 88 c 2,95,-1
 31 113 l 2,96,97
 30 115 30 115 30 119 c 0,98,99
 30 125 30 125 34 130 c 128,-1,100
 38 135 38 135 42 135 c 0,101,102
 48 135 48 135 54 131 c 0,103,104
 71 120 71 120 94 115 c 0,105,106
 109 112 109 112 136 112 c 2,107,-1
 1028 112 l 2,108,109
 1080 112 1080 112 1109 96 c 0,110,111
 1125 87 1125 87 1134 80 c 128,-1,112
 1143 73 1143 73 1160 56 c 0,113,114
 1176 40 1176 40 1185 27.5 c 128,-1,115
 1194 15 1194 15 1194 4 c 0,116,117
 1194 -4 1194 -4 1192 -7 c 0,118,119
 1190 -12 1190 -12 1186 -13.5 c 128,-1,120
 1182 -15 1182 -15 1177 -12 c 0,121,85
 1157 2 1157 2 1128 5 c 0,86,87
EndSplineSet
EndChar

StartChar: eight
Encoding: 56 56 64
Width: 1248
GlyphClass: 1
Flags: W
LayerCount: 2
Fore
SplineSet
100 317 m 0,1,2
 97 323 97 323 97 326 c 0,3,4
 97 332 97 332 103.5 334.5 c 128,-1,5
 110 337 110 337 118 335 c 0,6,7
 148 329 148 329 167 329 c 0,8,9
 182 329 182 329 197 332 c 0,10,11
 224 337 224 337 249 351.5 c 128,-1,12
 274 366 274 366 288 394 c 0,13,14
 322 464 322 464 337 537 c 2,15,-1
 344 571 l 2,16,17
 349 592 349 592 360 644 c 0,18,19
 374 713 374 713 384 737 c 0,20,21
 394 759 394 759 412 774 c 128,-1,22
 430 789 430 789 449 794 c 0,23,24
 453 795 453 795 487 800 c 2,25,-1
 535 806 l 2,26,27
 541 805 541 805 544.5 801.5 c 128,-1,28
 548 798 548 798 548 794 c 0,29,30
 548 788 548 788 543 783.5 c 128,-1,31
 538 779 538 779 530 778 c 0,32,33
 513 772 513 772 501 732 c 0,34,35
 483 675 483 675 476 648 c 0,36,37
 449 550 449 550 423 480 c 0,38,39
 400 419 400 419 378.5 391.5 c 128,-1,40
 357 364 357 364 324 350 c 0,41,42
 279 330 279 330 233 320 c 128,-1,43
 187 310 187 310 151 310 c 1,44,45
 167 271 167 271 207 256 c 0,46,47
 235 245 235 245 235 232 c 0,48,49
 235 223 235 223 223 223 c 0,50,51
 202 223 202 223 169 248 c 0,52,0
 120 284 120 284 100 317 c 0,1,2
770 317 m 0,54,55
 767 323 767 323 767 326 c 0,56,57
 767 332 767 332 773.5 334.5 c 128,-1,58
 780 337 780 337 788 335 c 0,59,60
 818 329 818 329 837 329 c 0,61,62
 852 329 852 329 867 332 c 0,63,64
 894 337 894 337 919 351.5 c 128,-1,65
 944 366 944 366 958 394 c 0,66,67
 992 464 992 464 1007 537 c 2,68,-1
 1014 571 l 2,69,70
 1019 592 1019 592 1030 644 c 0,71,72
 1044 713 1044 713 1054 737 c 0,73,74
 1064 759 1064 759 1082 774 c 128,-1,75
 1100 789 1100 789 1119 794 c 0,76,77
 1123 795 1123 795 1157 800 c 2,78,-1
 1205 806 l 2,79,80
 1211 805 1211 805 1214.5 801.5 c 128,-1,81
 1218 798 1218 798 1218 794 c 0,82,83
 1218 788 1218 788 1213 783.5 c 128,-1,84
 1208 779 1208 779 1200 778 c 0,85,86
 1183 772 1183 772 1171 732 c 0,87,88
 1153 675 1153 675 1146 648 c 0,89,90
 1119 550 1119 550 1093 480 c 0,91,92
 1070 419 1070 419 1048.5 391.5 c 128,-1,93
 1027 364 1027 364 994 350 c 0,94,95
 949 330 949 330 903 320 c 128,-1,96
 857 310 857 310 821 310 c 1,97,98
 837 271 837 271 877 256 c 0,99,100
 905 245 905 245 905 232 c 0,101,102
 905 223 905 223 893 223 c 0,103,104
 872 223 872 223 839 248 c 0,105,53
 790 284 790 284 770 317 c 0,54,55
1128 5 m 0,107,108
 1108 7 1108 7 1083 7 c 2,109,-1
 204 7 l 2,110,111
 168 7 168 7 142 15 c 0,112,113
 124 21 124 21 100 36 c 0,114,115
 78 50 78 50 49 88 c 2,116,-1
 31 113 l 2,117,118
 30 115 30 115 30 119 c 0,119,120
 30 125 30 125 34 130 c 128,-1,121
 38 135 38 135 42 135 c 0,122,123
 48 135 48 135 54 131 c 0,124,125
 71 120 71 120 94 115 c 0,126,127
 109 112 109 112 136 112 c 2,128,-1
 1028 112 l 2,129,130
 1080 112 1080 112 1109 96 c 0,131,132
 1125 87 1125 87 1134 80 c 128,-1,133
 1143 73 1143 73 1160 56 c 0,134,135
 1176 40 1176 40 1185 27.5 c 128,-1,136
 1194 15 1194 15 1194 4 c 0,137,138
 1194 -4 1194 -4 1192 -7 c 0,139,140
 1190 -12 1190 -12 1186 -13.5 c 128,-1,141
 1182 -15 1182 -15 1177 -12 c 0,142,106
 1157 2 1157 2 1128 5 c 0,107,108
EndSplineSet
EndChar

StartChar: nine
Encoding: 57 57 65
Width: 1298
GlyphClass: 1
Flags: W
LayerCount: 2
Fore
SplineSet
490 477 m 0,1,2
 487 483 487 483 487 486 c 0,3,4
 487 492 487 492 493.5 494.5 c 128,-1,5
 500 497 500 497 508 495 c 0,6,7
 538 489 538 489 557 489 c 0,8,9
 572 489 572 489 587 492 c 0,10,11
 614 497 614 497 639 511.5 c 128,-1,12
 664 526 664 526 678 554 c 0,13,14
 712 624 712 624 727 697 c 2,15,-1
 734 731 l 2,16,17
 739 752 739 752 750 804 c 0,18,19
 764 873 764 873 774 897 c 0,20,21
 784 919 784 919 802 934 c 128,-1,22
 820 949 820 949 839 954 c 0,23,24
 843 955 843 955 877 960 c 2,25,-1
 925 966 l 2,26,27
 931 965 931 965 934.5 961.5 c 128,-1,28
 938 958 938 958 938 954 c 0,29,30
 938 948 938 948 933 943.5 c 128,-1,31
 928 939 928 939 920 938 c 0,32,33
 903 932 903 932 891 892 c 0,34,35
 873 835 873 835 866 808 c 0,36,37
 839 710 839 710 813 640 c 0,38,39
 790 579 790 579 768.5 551.5 c 128,-1,40
 747 524 747 524 714 510 c 0,41,42
 669 490 669 490 623 480 c 128,-1,43
 577 470 577 470 541 470 c 1,44,45
 557 431 557 431 597 416 c 0,46,47
 625 405 625 405 625 392 c 0,48,49
 625 383 625 383 613 383 c 0,50,51
 592 383 592 383 559 408 c 0,52,0
 510 444 510 444 490 477 c 0,1,2
820 317 m 0,54,55
 817 323 817 323 817 326 c 0,56,57
 817 332 817 332 823.5 334.5 c 128,-1,58
 830 337 830 337 838 335 c 0,59,60
 868 329 868 329 887 329 c 0,61,62
 902 329 902 329 917 332 c 0,63,64
 944 337 944 337 969 351.5 c 128,-1,65
 994 366 994 366 1008 394 c 0,66,67
 1042 464 1042 464 1057 537 c 2,68,-1
 1064 571 l 2,69,70
 1069 592 1069 592 1080 644 c 0,71,72
 1094 713 1094 713 1104 737 c 0,73,74
 1114 759 1114 759 1132 774 c 128,-1,75
 1150 789 1150 789 1169 794 c 0,76,77
 1173 795 1173 795 1207 800 c 2,78,-1
 1255 806 l 2,79,80
 1261 805 1261 805 1264.5 801.5 c 128,-1,81
 1268 798 1268 798 1268 794 c 0,82,83
 1268 788 1268 788 1263 783.5 c 128,-1,84
 1258 779 1258 779 1250 778 c 0,85,86
 1233 772 1233 772 1221 732 c 0,87,88
 1203 675 1203 675 1196 648 c 0,89,90
 1169 550 1169 550 1143 480 c 0,91,92
 1120 419 1120 419 1098.5 391.5 c 128,-1,93
 1077 364 1077 364 1044 350 c 0,94,95
 999 330 999 330 953 320 c 128,-1,96
 907 310 907 310 871 310 c 1,97,98
 887 271 887 271 927 256 c 0,99,100
 955 245 955 245 955 232 c 0,101,102
 955 223 955 223 943 223 c 0,103,104
 922 223 922 223 889 248 c 0,105,53
 840 284 840 284 820 317 c 0,54,55
624 181 m 0,107,108
 611 182 611 182 606.5 187.5 c 128,-1,109
 602 193 602 193 591 212 c 0,110,111
 587 219 587 219 577 242 c 2,112,-1
 547 303 l 2,113,114
 543 310 543 310 540 312 c 128,-1,115
 537 314 537 314 527 316 c 0,116,117
 520 317 520 317 516 321.5 c 128,-1,118
 512 326 512 326 512 332 c 0,119,120
 512 343 512 343 527 343 c 2,121,-1
 575 343 l 2,122,123
 623 343 623 343 644 341 c 0,124,125
 653 340 653 340 660.5 329 c 128,-1,126
 668 318 668 318 679 293 c 0,127,128
 703 238 703 238 718 216 c 0,129,130
 724 207 724 207 727.5 205 c 128,-1,131
 731 203 731 203 740 201 c 0,132,133
 744 200 744 200 747.5 196 c 128,-1,134
 751 192 751 192 751 188 c 0,135,136
 751 178 751 178 733 178 c 0,137,106
 650 178 650 178 624 181 c 0,107,108
1128 5 m 0,139,140
 1108 7 1108 7 1083 7 c 2,141,-1
 204 7 l 2,142,143
 168 7 168 7 142 15 c 0,144,145
 124 21 124 21 100 36 c 0,146,147
 78 50 78 50 49 88 c 2,148,-1
 31 113 l 2,149,150
 30 115 30 115 30 119 c 0,151,152
 30 125 30 125 34 130 c 128,-1,153
 38 135 38 135 42 135 c 0,154,155
 48 135 48 135 54 131 c 0,156,157
 71 120 71 120 94 115 c 0,158,159
 109 112 109 112 136 112 c 2,160,-1
 1028 112 l 2,161,162
 1080 112 1080 112 1109 96 c 0,163,164
 1125 87 1125 87 1134 80 c 128,-1,165
 1143 73 1143 73 1160 56 c 0,166,167
 1176 40 1176 40 1185 27.5 c 128,-1,168
 1194 15 1194 15 1194 4 c 0,169,170
 1194 -4 1194 -4 1192 -7 c 0,171,172
 1190 -12 1190 -12 1186 -13.5 c 128,-1,173
 1182 -15 1182 -15 1177 -12 c 0,174,138
 1157 2 1157 2 1128 5 c 0,139,140
EndSplineSet
EndChar

StartChar: period
Encoding: 46 46 66
Width: 842
GlyphClass: 1
Flags: W
LayerCount: 2
Fore
SplineSet
347.5 -241 m 128,-1,1
 297 -215 297 -215 259 -171 c 128,-1,2
 221 -127 221 -127 181 -54 c 0,3,4
 133 34 133 34 106 128.5 c 128,-1,5
 79 223 79 223 63 370 c 0,6,7
 58 412 58 412 43 409 c 2,8,-1
 39 409 l 2,9,10
 34 409 34 409 31.5 412.5 c 128,-1,11
 29 416 29 416 30 423 c 0,12,13
 31 427 31 427 42 427 c 0,14,15
 62 427 62 427 104 415.5 c 128,-1,16
 146 404 146 404 175 392 c 0,17,18
 191 385 191 385 194.5 369.5 c 128,-1,19
 198 354 198 354 199 310 c 0,20,21
 202 151 202 151 221 30 c 0,22,23
 233 -47 233 -47 249.5 -93.5 c 128,-1,24
 266 -140 266 -140 299 -173 c 0,25,26
 327 -202 327 -202 344.5 -215.5 c 128,-1,27
 362 -229 362 -229 392.5 -240.5 c 128,-1,28
 423 -252 423 -252 477 -263 c 0,29,30
 490 -266 490 -266 490 -271 c 0,31,32
 490 -274 490 -274 485 -276 c 128,-1,33
 480 -278 480 -278 472 -277 c 0,34,0
 398 -267 398 -267 347.5 -241 c 128,-1,1
349 122 m 2,35,36
 332 122 332 122 330 128 c 0,37,38
 329 132 329 132 334 135 c 0,39,40
 340 139 340 139 341 150 c 2,41,-1
 346 193 l 2,42,43
 349 220 349 220 372 220 c 2,44,-1
 426 220 l 2,45,46
 448 220 448 220 451 217 c 0,47,48
 452 216 452 216 452 214 c 0,49,50
 452 209 452 209 448 207 c 0,51,52
 446 206 446 206 445.5 201.5 c 128,-1,53
 445 197 445 197 444 193 c 2,54,-1
 438 150 l 2,55,56
 434 122 434 122 413 122 c 2,57,-1
 359 122 l 1,58,-1
 349 122 l 2,35,36
529 122 m 2,59,60
 512 122 512 122 510 128 c 0,61,62
 509 132 509 132 514 135 c 0,63,64
 520 139 520 139 521 150 c 2,65,-1
 526 193 l 2,66,67
 529 220 529 220 552 220 c 2,68,-1
 606 220 l 2,69,70
 628 220 628 220 631 217 c 0,71,72
 632 216 632 216 632 214 c 0,73,74
 632 209 632 209 628 207 c 0,75,76
 626 206 626 206 625.5 201.5 c 128,-1,77
 625 197 625 197 624 193 c 2,78,-1
 618 150 l 2,79,80
 614 122 614 122 593 122 c 2,81,-1
 539 122 l 1,82,-1
 529 122 l 2,59,60
709 122 m 2,83,84
 692 122 692 122 690 128 c 0,85,86
 689 132 689 132 694 135 c 0,87,88
 700 139 700 139 701 150 c 2,89,-1
 706 193 l 2,90,91
 709 220 709 220 732 220 c 2,92,-1
 786 220 l 2,93,94
 808 220 808 220 811 217 c 0,95,96
 812 216 812 216 812 214 c 0,97,98
 812 209 812 209 808 207 c 0,99,100
 806 206 806 206 805.5 201.5 c 128,-1,101
 805 197 805 197 804 193 c 2,102,-1
 798 150 l 2,103,104
 794 122 794 122 773 122 c 2,105,-1
 719 122 l 1,106,-1
 709 122 l 2,83,84
EndSplineSet
EndChar

StartChar: comma
Encoding: 44 44 67
Width: 520
GlyphClass: 1
Flags: W
LayerCount: 2
Fore
SplineSet
347.5 -241 m 128,-1,1
 297 -215 297 -215 259 -171 c 128,-1,2
 221 -127 221 -127 181 -54 c 0,3,4
 133 34 133 34 106 128.5 c 128,-1,5
 79 223 79 223 63 370 c 0,6,7
 58 412 58 412 43 409 c 2,8,-1
 39 409 l 2,9,10
 34 409 34 409 31.5 412.5 c 128,-1,11
 29 416 29 416 30 423 c 0,12,13
 31 427 31 427 42 427 c 0,14,15
 62 427 62 427 104 415.5 c 128,-1,16
 146 404 146 404 175 392 c 0,17,18
 191 385 191 385 194.5 369.5 c 128,-1,19
 198 354 198 354 199 310 c 0,20,21
 202 151 202 151 221 30 c 0,22,23
 233 -47 233 -47 249.5 -93.5 c 128,-1,24
 266 -140 266 -140 299 -173 c 0,25,26
 327 -202 327 -202 344.5 -215.5 c 128,-1,27
 362 -229 362 -229 392.5 -240.5 c 128,-1,28
 423 -252 423 -252 477 -263 c 0,29,30
 490 -266 490 -266 490 -271 c 0,31,32
 490 -274 490 -274 485 -276 c 128,-1,33
 480 -278 480 -278 472 -277 c 0,34,0
 398 -267 398 -267 347.5 -241 c 128,-1,1
349 122 m 2,35,36
 332 122 332 122 330 128 c 0,37,38
 329 132 329 132 334 135 c 0,39,40
 340 139 340 139 341 150 c 2,41,-1
 346 193 l 2,42,43
 349 220 349 220 372 220 c 2,44,-1
 426 220 l 2,45,46
 448 220 448 220 451 217 c 0,47,48
 452 216 452 216 452 214 c 0,49,50
 452 209 452 209 448 207 c 0,51,52
 446 206 446 206 445.5 201.5 c 128,-1,53
 445 197 445 197 444 193 c 2,54,-1
 438 150 l 2,55,56
 434 122 434 122 413 122 c 2,57,-1
 359 122 l 1,58,-1
 349 122 l 2,35,36
EndSplineSet
EndChar

StartChar: semicolon
Encoding: 59 59 69
Width: 0
GlyphClass: 1
Flags: W
LayerCount: 2
Fore
SplineSet
325 -367 m 256,1,2
 325 -363 325 -363 329.5 -359.5 c 128,-1,3
 334 -356 334 -356 337 -355 c 0,4,5
 347 -353 347 -353 356 -340 c 0,6,7
 363 -330 363 -330 374.5 -304.5 c 128,-1,8
 386 -279 386 -279 387 -269 c 1,9,-1
 -437 -269 l 2,10,11
 -456 -269 -456 -269 -456 -248 c 0,12,13
 -456 -229 -456 -229 -437 -229 c 2,14,-1
 402 -229 l 1,15,-1
 410 -205 l 1,16,-1
 418 -182 l 2,17,18
 428 -158 428 -158 436 -146.5 c 128,-1,19
 444 -135 444 -135 453 -134 c 0,20,21
 474 -132 474 -132 525 -132 c 2,22,-1
 574 -132 l 2,23,24
 589 -132 589 -132 589 -143 c 0,25,26
 589 -149 589 -149 585 -153.5 c 128,-1,27
 581 -158 581 -158 574 -159 c 0,28,29
 563 -161 563 -161 558 -163 c 128,-1,30
 553 -165 553 -165 550 -172 c 0,31,32
 532 -209 532 -209 512.5 -268.5 c 128,-1,33
 493 -328 493 -328 491 -333 c 0,34,35
 478 -371 478 -371 453 -374 c 0,36,37
 423 -377 423 -377 381 -377 c 0,38,39
 343 -377 343 -377 333 -374 c 0,40,0
 325 -371 325 -371 325 -367 c 256,1,2
EndSplineSet
EndChar

StartChar: exclam
Encoding: 33 33 70
Width: 566
GlyphClass: 1
Flags: W
LayerCount: 2
Fore
SplineSet
344.5 -70.5 m 128,-1,1
 321 -68 321 -68 317 -66 c 0,2,3
 312 -63 312 -63 312 -59 c 0,4,5
 312 -54 312 -54 320 -49.5 c 128,-1,6
 328 -45 328 -45 338 -45 c 0,7,8
 347 -45 347 -45 362.5 -32.5 c 128,-1,9
 378 -20 378 -20 392 0.5 c 128,-1,10
 406 21 406 21 411 44 c 0,11,12
 413 56 413 56 413 62 c 0,13,14
 413 114 413 114 344 148 c 0,15,16
 248 197 248 197 122 205 c 0,17,18
 98 207 98 207 81 207 c 0,19,20
 41 207 41 207 39 208 c 0,21,22
 30 213 30 213 30 221 c 0,23,24
 30 226 30 226 33.5 230 c 128,-1,25
 37 234 37 234 43 234 c 0,26,27
 65 234 65 234 90 232 c 0,28,29
 189 224 189 224 277 203 c 0,30,31
 330 190 330 190 378 171 c 128,-1,32
 426 152 426 152 457 132 c 0,33,34
 491 109 491 109 515 75 c 128,-1,35
 539 41 539 41 535 10 c 0,36,37
 527 -47 527 -47 452 -66 c 0,38,39
 424 -73 424 -73 394 -73 c 0,40,0
 368 -73 368 -73 344.5 -70.5 c 128,-1,1
EndSplineSet
EndChar

StartChar: question
Encoding: 63 63 71
Width: 651
GlyphClass: 1
Flags: W
LayerCount: 2
Fore
SplineSet
377 327 m 2,1,-1
 378 399 l 1,2,-1
 378 467 l 2,3,4
 378 480 378 480 386 480 c 2,5,-1
 616 480 l 2,6,7
 621 480 621 480 621 465 c 0,8,9
 621 449 621 449 616 449 c 2,10,-1
 428 449 l 1,11,-1
 429 332 l 2,12,13
 429 330 429 330 429 325.5 c 128,-1,14
 429 321 429 321 427 321 c 2,15,-1
 381 321 l 2,16,0
 377 321 377 321 377 327 c 2,1,-1
347.5 -241 m 128,-1,18
 297 -215 297 -215 259 -171 c 128,-1,19
 221 -127 221 -127 181 -54 c 0,20,21
 133 34 133 34 106 128.5 c 128,-1,22
 79 223 79 223 63 370 c 0,23,24
 58 412 58 412 43 409 c 2,25,-1
 39 409 l 2,26,27
 34 409 34 409 31.5 412.5 c 128,-1,28
 29 416 29 416 30 423 c 0,29,30
 31 427 31 427 42 427 c 0,31,32
 62 427 62 427 104 415.5 c 128,-1,33
 146 404 146 404 175 392 c 0,34,35
 191 385 191 385 194.5 369.5 c 128,-1,36
 198 354 198 354 199 310 c 0,37,38
 202 151 202 151 221 30 c 0,39,40
 233 -47 233 -47 249.5 -93.5 c 128,-1,41
 266 -140 266 -140 299 -173 c 0,42,43
 327 -202 327 -202 344.5 -215.5 c 128,-1,44
 362 -229 362 -229 392.5 -240.5 c 128,-1,45
 423 -252 423 -252 477 -263 c 0,46,47
 490 -266 490 -266 490 -271 c 0,48,49
 490 -274 490 -274 485 -276 c 128,-1,50
 480 -278 480 -278 472 -277 c 0,51,17
 398 -267 398 -267 347.5 -241 c 128,-1,18
349 122 m 2,52,53
 332 122 332 122 330 128 c 0,54,55
 329 132 329 132 334 135 c 0,56,57
 340 139 340 139 341 150 c 2,58,-1
 346 193 l 2,59,60
 349 220 349 220 372 220 c 2,61,-1
 426 220 l 2,62,63
 448 220 448 220 451 217 c 0,64,65
 452 216 452 216 452 214 c 0,66,67
 452 209 452 209 448 207 c 0,68,69
 446 206 446 206 445.5 201.5 c 128,-1,70
 445 197 445 197 444 193 c 2,71,-1
 438 150 l 2,72,73
 434 122 434 122 413 122 c 2,74,-1
 359 122 l 1,75,-1
 349 122 l 2,52,53
EndSplineSet
EndChar

StartChar: asterisk
Encoding: 42 42 72
Width: 958
GlyphClass: 1
Flags: W
LayerCount: 2
Fore
SplineSet
705 373 m 128,-1,1
 695 388 695 388 692 403 c 2,2,-1
 684 438 l 1,3,4
 590 438 590 438 501.5 445.5 c 128,-1,5
 413 453 413 453 363 461 c 0,6,7
 235 481 235 481 188 561 c 0,8,9
 170 591 170 591 132.5 658 c 128,-1,10
 95 725 95 725 80 760 c 0,11,12
 60 805 60 805 54 808 c 0,13,14
 30 817 30 817 30 827 c 0,15,16
 30 832 30 832 37 836 c 0,17,18
 39 838 39 838 70.5 839 c 128,-1,19
 102 840 102 840 138 840 c 0,20,21
 171 840 171 840 211 838 c 0,22,23
 231 837 231 837 245.5 809.5 c 128,-1,24
 260 782 260 782 274 732 c 0,25,26
 280 712 280 712 284.5 694.5 c 128,-1,27
 289 677 289 677 293 662 c 0,28,29
 309 596 309 596 320.5 571.5 c 128,-1,30
 332 547 332 547 360 526 c 0,31,32
 407 492 407 492 494.5 477.5 c 128,-1,33
 582 463 582 463 681 465 c 1,34,-1
 670 528 l 2,35,36
 669 532 669 532 665.5 535.5 c 128,-1,37
 662 539 662 539 661 540 c 256,38,39
 660 541 660 541 656.5 544.5 c 128,-1,40
 653 548 653 548 652.5 550 c 128,-1,41
 652 552 652 552 653 554 c 0,42,43
 657 559 657 559 689.5 561 c 128,-1,44
 722 563 722 563 744 561 c 0,45,46
 753 560 753 560 763 546 c 128,-1,47
 773 532 773 532 776 516 c 2,48,-1
 785 465 l 1,49,50
 849 467 849 467 868 470 c 0,51,52
 881 473 881 473 894.5 475 c 128,-1,53
 908 477 908 477 916 477 c 0,54,55
 922 477 922 477 925 473 c 128,-1,56
 928 469 928 469 928 463 c 0,57,58
 928 456 928 456 924 453 c 0,59,60
 913 444 913 444 887 441 c 0,61,62
 847 437 847 437 788 438 c 1,63,64
 790 431 790 431 792 418.5 c 128,-1,65
 794 406 794 406 796 403 c 0,66,67
 799 398 799 398 807.5 386 c 128,-1,68
 816 374 816 374 816 368 c 0,69,70
 816 358 816 358 780 358 c 2,71,-1
 725 358 l 2,72,0
 715 358 715 358 705 373 c 128,-1,1
705 -27 m 128,-1,74
 695 -12 695 -12 692 3 c 2,75,-1
 684 38 l 1,76,77
 590 38 590 38 501.5 45.5 c 128,-1,78
 413 53 413 53 363 61 c 0,79,80
 235 81 235 81 188 161 c 0,81,82
 170 191 170 191 132.5 258 c 128,-1,83
 95 325 95 325 80 360 c 0,84,85
 60 405 60 405 54 408 c 0,86,87
 30 417 30 417 30 427 c 0,88,89
 30 432 30 432 37 436 c 0,90,91
 39 438 39 438 70.5 439 c 128,-1,92
 102 440 102 440 138 440 c 0,93,94
 171 440 171 440 211 438 c 0,95,96
 231 437 231 437 245.5 409.5 c 128,-1,97
 260 382 260 382 274 332 c 0,98,99
 280 312 280 312 284.5 294.5 c 128,-1,100
 289 277 289 277 293 262 c 0,101,102
 309 196 309 196 320.5 171.5 c 128,-1,103
 332 147 332 147 360 126 c 0,104,105
 407 92 407 92 494.5 77.5 c 128,-1,106
 582 63 582 63 681 65 c 1,107,-1
 670 128 l 2,108,109
 669 132 669 132 665.5 135.5 c 128,-1,110
 662 139 662 139 661 140 c 256,111,112
 660 141 660 141 656.5 144.5 c 128,-1,113
 653 148 653 148 652.5 150 c 128,-1,114
 652 152 652 152 653 154 c 0,115,116
 657 159 657 159 689.5 161 c 128,-1,117
 722 163 722 163 744 161 c 0,118,119
 753 160 753 160 763 146 c 128,-1,120
 773 132 773 132 776 116 c 2,121,-1
 785 65 l 1,122,123
 849 67 849 67 868 70 c 0,124,125
 881 73 881 73 894.5 75 c 128,-1,126
 908 77 908 77 916 77 c 0,127,128
 922 77 922 77 925 73 c 128,-1,129
 928 69 928 69 928 63 c 0,130,131
 928 56 928 56 924 53 c 0,132,133
 913 44 913 44 887 41 c 0,134,135
 847 37 847 37 788 38 c 1,136,137
 790 31 790 31 792 18.5 c 128,-1,138
 794 6 794 6 796 3 c 0,139,140
 799 -2 799 -2 807.5 -14 c 128,-1,141
 816 -26 816 -26 816 -32 c 0,142,143
 816 -42 816 -42 780 -42 c 2,144,-1
 725 -42 l 2,145,73
 715 -42 715 -42 705 -27 c 128,-1,74
EndSplineSet
EndChar

StartChar: numbersign
Encoding: 35 35 73
Width: 1045
GlyphClass: 1
Flags: W
LayerCount: 2
Fore
SplineSet
243 -76 m 256,1,2
 210 -76 210 -76 179 -69 c 0,3,4
 125 -57 125 -57 91.5 -35.5 c 128,-1,5
 58 -14 58 -14 41 31 c 0,6,7
 30 60 30 60 30 90 c 0,8,9
 30 150 30 150 78.5 191 c 128,-1,10
 127 232 127 232 209 246 c 0,11,12
 263 255 263 255 315 255 c 0,13,14
 514 255 514 255 725 134 c 1,15,-1
 762 114 l 2,16,17
 781 104 781 104 823 80 c 0,18,19
 899 34 899 34 941 12 c 0,20,21
 979 -8 979 -8 999 -23 c 128,-1,22
 1019 -38 1019 -38 1014 -54 c 0,23,24
 1012 -63 1012 -63 1008 -66.5 c 128,-1,25
 1004 -70 1004 -70 995 -70 c 2,26,-1
 899 -70 l 2,27,28
 833 -70 833 -70 812 -71 c 2,29,-1
 784 -71 l 2,30,31
 765 -71 765 -71 760.5 -70 c 128,-1,32
 756 -69 756 -69 752 -65 c 0,33,34
 746 -59 746 -59 746 -55 c 0,35,36
 746 -49 746 -49 759 -45 c 0,37,38
 816 -24 816 -24 816 4 c 0,39,40
 816 20 816 20 798.5 39 c 128,-1,41
 781 58 781 58 746 84 c 0,42,43
 718 105 718 105 689 120 c 128,-1,44
 660 135 660 135 601 163 c 2,45,-1
 566 179 l 2,46,47
 527 198 527 198 472.5 208.5 c 128,-1,48
 418 219 418 219 364 219 c 256,49,50
 310 219 310 219 269 207 c 0,51,52
 220 192 220 192 192 152 c 128,-1,53
 164 112 164 112 164 59 c 0,54,55
 164 -23 164 -23 239 -41 c 0,56,57
 269 -48 269 -48 287 -49 c 0,58,59
 302 -50 302 -50 302 -61 c 0,60,61
 302 -68 302 -68 295 -70 c 0,62,0
 276 -76 276 -76 243 -76 c 256,1,2
530 -133.5 m 128,-1,64
 509 -131 509 -131 505 -129 c 0,65,66
 501 -126 501 -126 501 -123 c 0,67,68
 501 -119 501 -119 508.5 -115 c 128,-1,69
 516 -111 516 -111 524 -111 c 256,70,71
 532 -111 532 -111 546 -99.5 c 128,-1,72
 560 -88 560 -88 572.5 -69.5 c 128,-1,73
 585 -51 585 -51 590 -30 c 0,74,75
 592 -20 592 -20 592 -14 c 0,76,77
 592 31 592 31 530 63 c 0,78,79
 442 107 442 107 330 115 c 1,80,-1
 294 116 l 2,81,82
 257 116 257 116 255 117 c 0,83,84
 247 121 247 121 247 129 c 0,85,86
 247 134 247 134 250.5 137.5 c 128,-1,87
 254 141 254 141 259 141 c 0,88,89
 279 141 279 141 301 139 c 0,90,91
 393 131 393 131 469 113 c 0,92,93
 517 101 517 101 560.5 84 c 128,-1,94
 604 67 604 67 631 49 c 0,95,96
 662 29 662 29 684 -2 c 128,-1,97
 706 -33 706 -33 702 -61 c 0,98,99
 695 -112 695 -112 627 -129 c 0,100,101
 602 -136 602 -136 575 -136 c 0,102,63
 551 -136 551 -136 530 -133.5 c 128,-1,64
EndSplineSet
EndChar

StartChar: slash
Encoding: 47 47 74
Width: 470
GlyphClass: 1
Flags: W
LayerCount: 2
Fore
SplineSet
347.5 -241 m 128,-1,1
 297 -215 297 -215 259 -171 c 128,-1,2
 221 -127 221 -127 181 -54 c 0,3,4
 133 34 133 34 106 128.5 c 128,-1,5
 79 223 79 223 63 370 c 0,6,7
 58 412 58 412 43 409 c 2,8,-1
 39 409 l 2,9,10
 34 409 34 409 31.5 412.5 c 128,-1,11
 29 416 29 416 30 423 c 0,12,13
 31 427 31 427 42 427 c 0,14,15
 62 427 62 427 104 415.5 c 128,-1,16
 146 404 146 404 175 392 c 0,17,18
 191 385 191 385 194.5 369.5 c 128,-1,19
 198 354 198 354 199 310 c 0,20,21
 202 151 202 151 221 30 c 0,22,23
 233 -47 233 -47 249.5 -93.5 c 128,-1,24
 266 -140 266 -140 299 -173 c 0,25,26
 327 -202 327 -202 344.5 -215.5 c 128,-1,27
 362 -229 362 -229 392.5 -240.5 c 128,-1,28
 423 -252 423 -252 477 -263 c 0,29,30
 490 -266 490 -266 490 -271 c 0,31,32
 490 -274 490 -274 485 -276 c 128,-1,33
 480 -278 480 -278 472 -277 c 0,34,0
 398 -267 398 -267 347.5 -241 c 128,-1,1
EndSplineSet
EndChar

StartChar: backslash
Encoding: 92 92 75
Width: 89
GlyphClass: 1
Flags: W
LayerCount: 2
Fore
SplineSet
30 -210 m 2,1,-1
 30 407 l 2,2,3
 30 417 30 417 45 417 c 0,4,5
 51 417 51 417 55 414.5 c 128,-1,6
 59 412 59 412 59 407 c 2,7,-1
 59 -210 l 2,8,9
 59 -220 59 -220 45 -220 c 0,10,0
 30 -220 30 -220 30 -210 c 2,1,-1
EndSplineSet
EndChar

StartChar: bracketleft
Encoding: 91 91 79
Width: 0
GlyphClass: 1
Flags: W
LayerCount: 2
Fore
SplineSet
331 -466 m 0,1,2
 255 -466 255 -466 159 -431 c 0,3,4
 92 -406 92 -406 47 -380 c 0,5,6
 -62 -317 -62 -317 -197 -285 c 0,7,8
 -237 -276 -237 -276 -276 -276 c 0,9,10
 -355 -276 -355 -276 -447 -315 c 0,11,12
 -508 -341 -508 -341 -525 -355 c 0,13,14
 -530 -358 -530 -358 -535 -358 c 0,15,16
 -544 -358 -544 -358 -552 -350 c 128,-1,17
 -560 -342 -560 -342 -560 -331 c 0,18,19
 -560 -324 -560 -324 -557 -318 c 2,20,-1
 -432 -173 l 2,21,22
 -429 -170 -429 -170 -424 -170 c 0,23,24
 -415 -170 -415 -170 -406 -176.5 c 128,-1,25
 -397 -183 -397 -183 -397 -192 c 0,26,27
 -397 -198 -397 -198 -403 -205 c 2,28,-1
 -505 -315 l 1,29,30
 -496 -308 -496 -308 -436 -284.5 c 128,-1,31
 -376 -261 -376 -261 -345 -254 c 0,32,33
 -310 -245 -310 -245 -255 -245 c 0,34,35
 -195 -245 -195 -245 -133 -258 c 128,-1,36
 -71 -271 -71 -271 -24 -293 c 0,37,38
 20 -314 20 -314 54 -333 c 0,39,40
 176 -400 176 -400 286 -423 c 0,41,42
 333 -432 333 -432 362 -432 c 0,43,44
 384 -432 384 -432 411 -427 c 0,45,46
 443 -421 443 -421 470 -402 c 128,-1,47
 497 -383 497 -383 497 -365 c 0,48,49
 497 -351 497 -351 484 -351 c 0,50,51
 472 -351 472 -351 456 -361 c 0,52,53
 448 -366 448 -366 441 -366 c 0,54,55
 419 -366 419 -366 402 -323 c 0,56,57
 396 -307 396 -307 396 -292 c 0,58,59
 396 -265 396 -265 414 -247.5 c 128,-1,60
 432 -230 432 -230 459 -230 c 0,61,62
 470 -230 470 -230 482 -233 c 0,63,64
 514 -242 514 -242 529 -262.5 c 128,-1,65
 544 -283 544 -283 544 -311 c 0,66,67
 544 -335 544 -335 534.5 -359 c 128,-1,68
 525 -383 525 -383 509 -401 c 0,69,70
 476 -438 476 -438 438 -450 c 0,71,0
 384 -466 384 -466 331 -466 c 0,1,2
EndSplineSet
EndChar

StartChar: bracketright
Encoding: 93 93 80
Width: 0
GlyphClass: 1
Flags: W
LayerCount: 2
Fore
SplineSet
-173 -157 m 256,1,2
 -173 -127 -173 -127 -143 -127 c 256,3,4
 -113 -127 -113 -127 -113 -157 c 256,5,6
 -113 -187 -113 -187 -143 -187 c 256,7,0
 -173 -187 -173 -187 -173 -157 c 256,1,2
126 -157 m 256,9,10
 126 -127 126 -127 156 -127 c 256,11,12
 186 -127 186 -127 186 -157 c 256,13,14
 186 -187 186 -187 156 -187 c 256,15,8
 126 -187 126 -187 126 -157 c 256,9,10
-60 -431 m 128,-1,17
 -90 -413 -90 -413 -108 -382.5 c 128,-1,18
 -126 -352 -126 -352 -126 -316 c 0,19,20
 -126 -297 -126 -297 -124 -288 c 1,21,22
 -203 -265 -203 -265 -266 -265 c 0,23,24
 -300 -265 -300 -265 -334 -271 c 0,25,26
 -377 -279 -377 -279 -435 -302 c 128,-1,27
 -493 -325 -493 -325 -515 -341 c 0,28,29
 -521 -345 -521 -345 -525 -345 c 0,30,31
 -534 -345 -534 -345 -542 -337 c 128,-1,32
 -550 -329 -550 -329 -550 -318 c 0,33,34
 -550 -312 -550 -312 -547 -306 c 2,35,-1
 -422 -160 l 2,36,37
 -419 -156 -419 -156 -410.5 -159 c 128,-1,38
 -402 -162 -402 -162 -395.5 -169.5 c 128,-1,39
 -389 -177 -389 -177 -389 -184 c 0,40,41
 -389 -189 -389 -189 -393 -193 c 2,42,-1
 -494 -302 l 1,43,44
 -486 -295 -486 -295 -425.5 -272 c 128,-1,45
 -365 -249 -365 -249 -335 -242 c 0,46,47
 -295 -233 -295 -233 -248 -233 c 0,48,49
 -179 -233 -179 -233 -109 -250 c 1,50,51
 -70 -184 -70 -184 6 -184 c 0,52,53
 42 -184 42 -184 72.5 -201.5 c 128,-1,54
 103 -219 103 -219 120.5 -249.5 c 128,-1,55
 138 -280 138 -280 138 -316 c 0,56,57
 138 -337 138 -337 134 -353 c 1,58,59
 271 -417 271 -417 374 -417 c 0,60,61
 390 -417 390 -417 422 -413 c 0,62,63
 444 -410 444 -410 466 -397.5 c 128,-1,64
 488 -385 488 -385 500 -370 c 128,-1,65
 512 -355 512 -355 506 -344 c 0,66,67
 501 -336 501 -336 493 -336 c 0,68,69
 484 -336 484 -336 467 -347 c 0,70,71
 460 -351 460 -351 453 -351 c 0,72,73
 435 -351 435 -351 421.5 -328 c 128,-1,74
 408 -305 408 -305 408 -278 c 256,75,76
 408 -251 408 -251 422 -237 c 0,77,78
 430 -228 430 -228 443.5 -223 c 128,-1,79
 457 -218 457 -218 471 -218 c 0,80,81
 504 -218 504 -218 528.5 -240 c 128,-1,82
 553 -262 553 -262 553 -305 c 0,83,84
 553 -345 553 -345 521 -384.5 c 128,-1,85
 489 -424 489 -424 448 -436 c 0,86,87
 396 -451 396 -451 339 -451 c 0,88,89
 281 -451 281 -451 226 -435.5 c 128,-1,90
 171 -420 171 -420 113 -394 c 1,91,92
 73 -449 73 -449 6 -449 c 0,93,16
 -30 -449 -30 -449 -60 -431 c 128,-1,17
110 -316 m 0,95,96
 110 -273 110 -273 79.5 -242.5 c 128,-1,97
 49 -212 49 -212 6 -212 c 0,98,99
 -49 -212 -49 -212 -80 -258 c 1,100,101
 -44 -269 -44 -269 -18 -279.5 c 128,-1,102
 8 -290 8 -290 38 -306 c 0,103,104
 81 -328 81 -328 107 -341 c 1,105,94
 110 -329 110 -329 110 -316 c 0,95,96
87 -381 m 1,107,108
 49 -363 49 -363 22 -348 c 0,109,110
 -22 -324 -22 -324 -96 -298 c 1,111,112
 -98 -305 -98 -305 -98 -316 c 0,113,114
 -98 -359 -98 -359 -67.5 -389.5 c 128,-1,115
 -37 -420 -37 -420 6 -420 c 0,116,106
 56 -420 56 -420 87 -381 c 1,107,108
EndSplineSet
EndChar

StartChar: hyphen
Encoding: 45 45 81
Width: 320
GlyphClass: 1
Flags: W
LayerCount: 2
Fore
SplineSet
82 -52 m 0,1,2
 45 -52 45 -52 34 -49 c 0,3,4
 26 -46 26 -46 26 -42 c 256,5,6
 26 -38 26 -38 30.5 -34.5 c 128,-1,7
 35 -31 35 -31 38 -30 c 0,8,9
 48 -28 48 -28 57 -15 c 256,10,11
 66 -2 66 -2 75 24 c 128,-1,12
 84 50 84 50 96 92 c 2,13,-1
 109 133 l 2,14,15
 126 180 126 180 144 181 c 0,16,17
 165 183 165 183 216 183 c 2,18,-1
 265 183 l 2,19,20
 280 183 280 183 280 172 c 0,21,22
 280 166 280 166 276 161.5 c 128,-1,23
 272 157 272 157 265 156 c 0,24,25
 254 154 254 154 249 152 c 128,-1,26
 244 150 244 150 241 143 c 0,27,28
 225 110 225 110 200 20 c 2,29,-1
 192 -8 l 2,30,31
 179 -46 179 -46 154 -49 c 0,32,0
 124 -52 124 -52 82 -52 c 0,1,2
EndSplineSet
EndChar

StartChar: quoteleft
Encoding: 8216 8216 84
Width: 0
GlyphClass: 1
Flags: W
LayerCount: 2
Fore
SplineSet
424.5 -573 m 128,-1,1
 390 -570 390 -570 341 -563 c 0,2,3
 326 -561 326 -561 318 -556 c 128,-1,4
 310 -551 310 -551 310 -545 c 0,5,6
 310 -535 310 -535 333 -535 c 0,7,8
 406 -538 406 -538 543 -538 c 0,9,10
 603 -538 603 -538 670 -518 c 128,-1,11
 737 -498 737 -498 773 -464 c 0,12,13
 865 -380 865 -380 903 -339 c 0,14,15
 955 -284 955 -284 993 -277 c 1,16,-1
 1020 -275 l 2,17,18
 1106 -269 1106 -269 1141 -269 c 0,19,20
 1169 -269 1169 -269 1184 -270 c 0,21,22
 1194 -273 1194 -273 1194 -284 c 0,23,24
 1194 -289 1194 -289 1191 -293 c 128,-1,25
 1188 -297 1188 -297 1183 -297 c 2,26,-1
 1169 -297 l 2,27,28
 1155 -298 1155 -298 1126.5 -318.5 c 128,-1,29
 1098 -339 1098 -339 1050 -379 c 2,30,-1
 1006 -415 l 2,31,32
 937 -470 937 -470 901 -494.5 c 128,-1,33
 865 -519 865 -519 812 -545 c 0,34,35
 774 -564 774 -564 710.5 -572.5 c 128,-1,36
 647 -581 647 -581 582 -581 c 0,37,38
 551 -581 551 -581 537 -580 c 0,39,0
 459 -576 459 -576 424.5 -573 c 128,-1,1
EndSplineSet
EndChar

StartChar: guillemotleft
Encoding: 171 171 85
Width: 0
GlyphClass: 1
Flags: W
LayerCount: 2
Fore
SplineSet
-560 290 m 2,1,-1
 -560 627 l 2,2,3
 -560 632 -560 632 -556 634.5 c 128,-1,4
 -552 637 -552 637 -546 637 c 0,5,6
 -531 637 -531 637 -531 627 c 2,7,-1
 -531 290 l 2,8,9
 -531 280 -531 280 -545 280 c 0,10,0
 -560 280 -560 280 -560 290 c 2,1,-1
EndSplineSet
EndChar

StartChar: dollar
Encoding: 36 36 88
Width: 958
GlyphClass: 1
Flags: W
LayerCount: 2
Fore
SplineSet
705 -27 m 128,-1,1
 695 -12 695 -12 692 3 c 2,2,-1
 684 38 l 1,3,4
 590 38 590 38 501.5 45.5 c 128,-1,5
 413 53 413 53 363 61 c 0,6,7
 219 84 219 84 188 161 c 2,8,-1
 173 201 l 2,9,10
 160 234 160 234 126.5 322 c 128,-1,11
 93 410 93 410 80 440 c 0,12,13
 60 485 60 485 54 488 c 0,14,15
 30 497 30 497 30 507 c 0,16,17
 30 512 30 512 37 516 c 0,18,19
 39 518 39 518 70.5 519 c 128,-1,20
 102 520 102 520 138 520 c 0,21,22
 171 520 171 520 211 518 c 0,23,24
 231 517 231 517 245.5 489.5 c 128,-1,25
 260 462 260 462 274 412 c 0,26,27
 286 369 286 369 295 319 c 0,28,29
 309 243 309 243 322 196.5 c 128,-1,30
 335 150 335 150 360 126 c 0,31,32
 397 91 397 91 471 78 c 128,-1,33
 545 65 545 65 643 65 c 2,34,-1
 681 65 l 1,35,-1
 670 128 l 2,36,37
 669 132 669 132 665.5 135.5 c 128,-1,38
 662 139 662 139 661 140 c 256,39,40
 660 141 660 141 656.5 144.5 c 128,-1,41
 653 148 653 148 652.5 150 c 128,-1,42
 652 152 652 152 653 154 c 0,43,44
 657 159 657 159 689.5 161 c 128,-1,45
 722 163 722 163 744 161 c 0,46,47
 753 160 753 160 763 146 c 128,-1,48
 773 132 773 132 776 116 c 2,49,-1
 785 65 l 1,50,51
 849 67 849 67 868 70 c 0,52,53
 881 73 881 73 894.5 75 c 128,-1,54
 908 77 908 77 916 77 c 0,55,56
 922 77 922 77 925 73 c 128,-1,57
 928 69 928 69 928 63 c 0,58,59
 928 56 928 56 924 53 c 0,60,61
 913 44 913 44 887 41 c 0,62,63
 847 37 847 37 788 38 c 1,64,65
 790 31 790 31 792 18.5 c 128,-1,66
 794 6 794 6 796 3 c 0,67,68
 799 -2 799 -2 807.5 -14 c 128,-1,69
 816 -26 816 -26 816 -32 c 0,70,71
 816 -42 816 -42 780 -42 c 2,72,-1
 725 -42 l 2,73,0
 715 -42 715 -42 705 -27 c 128,-1,1
EndSplineSet
EndChar

StartChar: plus
Encoding: 43 43 89
Width: 374
GlyphClass: 1
Flags: W
LayerCount: 2
Fore
SplineSet
166 -64 m 2,1,-1
 166 60 l 1,2,-1
 43 60 l 2,3,4
 30 60 30 60 30 72 c 2,5,-1
 30 88 l 2,6,7
 30 100 30 100 43 100 c 2,8,-1
 167 100 l 1,9,-1
 166 224 l 2,10,11
 166 237 166 237 179 237 c 2,12,-1
 195 237 l 2,13,14
 208 237 208 237 208 224 c 2,15,-1
 208 100 l 1,16,-1
 331 100 l 2,17,18
 344 100 344 100 344 88 c 2,19,-1
 344 72 l 2,20,21
 344 60 344 60 331 60 c 2,22,-1
 208 60 l 1,23,-1
 208 -64 l 2,24,25
 208 -77 208 -77 195 -77 c 2,26,-1
 179 -77 l 2,27,0
 166 -77 166 -77 166 -64 c 2,1,-1
EndSplineSet
EndChar

StartChar: equal
Encoding: 61 61 90
Width: 186
GlyphClass: 1
Flags: W
LayerCount: 2
Fore
SplineSet
109 596 m 0,1,2
 122 622 122 622 122 634 c 0,3,4
 122 649 122 649 104 645 c 0,5,6
 90 643 90 643 83 643 c 0,7,8
 60 643 60 643 45 656 c 128,-1,9
 30 669 30 669 30 689 c 0,10,11
 30 712 30 712 45 726.5 c 128,-1,12
 60 741 60 741 82 741 c 0,13,14
 116 741 116 741 136 717.5 c 128,-1,15
 156 694 156 694 156 654 c 0,16,17
 156 619 156 619 127 580 c 128,-1,18
 98 541 98 541 56 519 c 1,19,-1
 46 536 l 1,20,0
 90 563 90 563 109 596 c 0,1,2
EndSplineSet
EndChar

StartChar: notequal
Encoding: 8800 8800 91
Width: 0
GlyphClass: 1
Flags: W
LayerCount: 2
Fore
SplineSet
-555 517 m 128,-1,1
 -523 579 -523 579 -467.5 617 c 128,-1,2
 -412 655 -412 655 -341 655 c 256,3,4
 -270 655 -270 655 -214 617 c 128,-1,5
 -158 579 -158 579 -125.5 517 c 128,-1,6
 -93 455 -93 455 -87 385 c 1,7,-1
 -114 385 l 1,8,9
 -116 439 -116 439 -150 483 c 128,-1,10
 -184 527 -184 527 -235.5 552 c 128,-1,11
 -287 577 -287 577 -341 577 c 0,12,13
 -394 577 -394 577 -446 551.5 c 128,-1,14
 -498 526 -498 526 -532 482 c 128,-1,15
 -566 438 -566 438 -568 385 c 1,16,-1
 -593 385 l 1,17,0
 -587 455 -587 455 -555 517 c 128,-1,1
-385 424 m 0,19,20
 -385 460 -385 460 -341 460 c 0,21,22
 -298 460 -298 460 -298 424 c 0,23,24
 -298 385 -298 385 -341 385 c 0,25,18
 -385 385 -385 385 -385 424 c 0,19,20
EndSplineSet
EndChar

StartChar: greater
Encoding: 62 62 92
Width: 1022
GlyphClass: 1
Flags: W
LayerCount: 2
Fore
SplineSet
347.5 -241 m 128,-1,1
 297 -215 297 -215 259 -171 c 128,-1,2
 221 -127 221 -127 181 -54 c 0,3,4
 133 34 133 34 106 128.5 c 128,-1,5
 79 223 79 223 63 370 c 0,6,7
 58 412 58 412 43 409 c 2,8,-1
 39 409 l 2,9,10
 34 409 34 409 31.5 412.5 c 128,-1,11
 29 416 29 416 30 423 c 0,12,13
 31 427 31 427 42 427 c 0,14,15
 62 427 62 427 104 415.5 c 128,-1,16
 146 404 146 404 175 392 c 0,17,18
 191 385 191 385 194.5 369.5 c 128,-1,19
 198 354 198 354 199 310 c 0,20,21
 202 151 202 151 221 30 c 0,22,23
 233 -47 233 -47 249.5 -93.5 c 128,-1,24
 266 -140 266 -140 299 -173 c 0,25,26
 327 -202 327 -202 344.5 -215.5 c 128,-1,27
 362 -229 362 -229 392.5 -240.5 c 128,-1,28
 423 -252 423 -252 477 -263 c 0,29,30
 490 -266 490 -266 490 -271 c 0,31,32
 490 -274 490 -274 485 -276 c 128,-1,33
 480 -278 480 -278 472 -277 c 0,34,0
 398 -267 398 -267 347.5 -241 c 128,-1,1
349 122 m 2,35,36
 332 122 332 122 330 128 c 0,37,38
 329 132 329 132 334 135 c 0,39,40
 340 139 340 139 341 150 c 2,41,-1
 346 193 l 2,42,43
 349 220 349 220 372 220 c 2,44,-1
 426 220 l 2,45,46
 448 220 448 220 451 217 c 0,47,48
 452 216 452 216 452 214 c 0,49,50
 452 209 452 209 448 207 c 0,51,52
 446 206 446 206 445.5 201.5 c 128,-1,53
 445 197 445 197 444 193 c 2,54,-1
 438 150 l 2,55,56
 434 122 434 122 413 122 c 2,57,-1
 359 122 l 1,58,-1
 349 122 l 2,35,36
529 122 m 2,59,60
 512 122 512 122 510 128 c 0,61,62
 509 132 509 132 514 135 c 0,63,64
 520 139 520 139 521 150 c 2,65,-1
 526 193 l 2,66,67
 529 220 529 220 552 220 c 2,68,-1
 606 220 l 2,69,70
 628 220 628 220 631 217 c 0,71,72
 632 216 632 216 632 214 c 0,73,74
 632 209 632 209 628 207 c 0,75,76
 626 206 626 206 625.5 201.5 c 128,-1,77
 625 197 625 197 624 193 c 2,78,-1
 618 150 l 2,79,80
 614 122 614 122 593 122 c 2,81,-1
 539 122 l 1,82,-1
 529 122 l 2,59,60
709 122 m 2,83,84
 692 122 692 122 690 128 c 0,85,86
 689 132 689 132 694 135 c 0,87,88
 700 139 700 139 701 150 c 2,89,-1
 706 193 l 2,90,91
 709 220 709 220 732 220 c 2,92,-1
 786 220 l 2,93,94
 808 220 808 220 811 217 c 0,95,96
 812 216 812 216 812 214 c 0,97,98
 812 209 812 209 808 207 c 0,99,100
 806 206 806 206 805.5 201.5 c 128,-1,101
 805 197 805 197 804 193 c 2,102,-1
 798 150 l 2,103,104
 794 122 794 122 773 122 c 2,105,-1
 719 122 l 1,106,-1
 709 122 l 2,83,84
889 122 m 2,107,108
 872 122 872 122 870 128 c 0,109,110
 869 132 869 132 874 135 c 0,111,112
 880 139 880 139 881 150 c 2,113,-1
 886 193 l 2,114,115
 889 220 889 220 912 220 c 2,116,-1
 966 220 l 2,117,118
 988 220 988 220 991 217 c 0,119,120
 992 216 992 216 992 214 c 0,121,122
 992 209 992 209 988 207 c 0,123,124
 986 206 986 206 985.5 201.5 c 128,-1,125
 985 197 985 197 984 193 c 2,126,-1
 978 150 l 2,127,128
 974 122 974 122 953 122 c 2,129,-1
 899 122 l 1,130,-1
 889 122 l 2,107,108
EndSplineSet
EndChar

StartChar: less
Encoding: 60 60 93
Width: 662
GlyphClass: 1
Flags: W
LayerCount: 2
Fore
SplineSet
347.5 -241 m 128,-1,1
 297 -215 297 -215 259 -171 c 128,-1,2
 221 -127 221 -127 181 -54 c 0,3,4
 133 34 133 34 106 128.5 c 128,-1,5
 79 223 79 223 63 370 c 0,6,7
 58 412 58 412 43 409 c 2,8,-1
 39 409 l 2,9,10
 34 409 34 409 31.5 412.5 c 128,-1,11
 29 416 29 416 30 423 c 0,12,13
 31 427 31 427 42 427 c 0,14,15
 62 427 62 427 104 415.5 c 128,-1,16
 146 404 146 404 175 392 c 0,17,18
 191 385 191 385 194.5 369.5 c 128,-1,19
 198 354 198 354 199 310 c 0,20,21
 202 151 202 151 221 30 c 0,22,23
 233 -47 233 -47 249.5 -93.5 c 128,-1,24
 266 -140 266 -140 299 -173 c 0,25,26
 327 -202 327 -202 344.5 -215.5 c 128,-1,27
 362 -229 362 -229 392.5 -240.5 c 128,-1,28
 423 -252 423 -252 477 -263 c 0,29,30
 490 -266 490 -266 490 -271 c 0,31,32
 490 -274 490 -274 485 -276 c 128,-1,33
 480 -278 480 -278 472 -277 c 0,34,0
 398 -267 398 -267 347.5 -241 c 128,-1,1
349 122 m 2,35,36
 332 122 332 122 330 128 c 0,37,38
 329 132 329 132 334 135 c 0,39,40
 340 139 340 139 341 150 c 2,41,-1
 346 193 l 2,42,43
 349 220 349 220 372 220 c 2,44,-1
 426 220 l 2,45,46
 448 220 448 220 451 217 c 0,47,48
 452 216 452 216 452 214 c 0,49,50
 452 209 452 209 448 207 c 0,51,52
 446 206 446 206 445.5 201.5 c 128,-1,53
 445 197 445 197 444 193 c 2,54,-1
 438 150 l 2,55,56
 434 122 434 122 413 122 c 2,57,-1
 359 122 l 1,58,-1
 349 122 l 2,35,36
529 122 m 2,59,60
 512 122 512 122 510 128 c 0,61,62
 509 132 509 132 514 135 c 0,63,64
 520 139 520 139 521 150 c 2,65,-1
 526 193 l 2,66,67
 529 220 529 220 552 220 c 2,68,-1
 606 220 l 2,69,70
 628 220 628 220 631 217 c 0,71,72
 632 216 632 216 632 214 c 0,73,74
 632 209 632 209 628 207 c 0,75,76
 626 206 626 206 625.5 201.5 c 128,-1,77
 625 197 625 197 624 193 c 2,78,-1
 618 150 l 2,79,80
 614 122 614 122 593 122 c 2,81,-1
 539 122 l 1,82,-1
 529 122 l 2,59,60
EndSplineSet
EndChar

StartChar: asciitilde
Encoding: 126 126 94
Width: 256
GlyphClass: 1
Flags: W
LayerCount: 2
Fore
SplineSet
99 -19 m 0,1,2
 86 -18 86 -18 81.5 -12.5 c 128,-1,3
 77 -7 77 -7 66 12 c 0,4,5
 62 19 62 19 52 42 c 2,6,-1
 22 103 l 2,7,8
 18 110 18 110 15 112 c 128,-1,9
 12 114 12 114 2 116 c 0,10,11
 -5 117 -5 117 -9 121.5 c 128,-1,12
 -13 126 -13 126 -13 132 c 0,13,14
 -13 143 -13 143 2 143 c 2,15,-1
 50 143 l 2,16,17
 98 143 98 143 119 141 c 0,18,19
 128 140 128 140 135.5 129 c 128,-1,20
 143 118 143 118 154 93 c 0,21,22
 178 38 178 38 193 16 c 0,23,24
 199 7 199 7 202.5 5 c 128,-1,25
 206 3 206 3 215 1 c 0,26,27
 219 0 219 0 222.5 -4 c 128,-1,28
 226 -8 226 -8 226 -12 c 0,29,30
 226 -22 226 -22 208 -22 c 0,31,0
 125 -22 125 -22 99 -19 c 0,1,2
EndSplineSet
EndChar

StartChar: at
Encoding: 64 64 97
Width: 1045
GlyphClass: 1
Flags: W
LayerCount: 2
Fore
SplineSet
243 -76 m 256,1,2
 210 -76 210 -76 179 -69 c 0,3,4
 125 -57 125 -57 91.5 -35.5 c 128,-1,5
 58 -14 58 -14 41 31 c 0,6,7
 30 60 30 60 30 90 c 0,8,9
 30 150 30 150 78.5 191 c 128,-1,10
 127 232 127 232 209 246 c 0,11,12
 263 255 263 255 315 255 c 0,13,14
 514 255 514 255 725 134 c 1,15,-1
 762 114 l 2,16,17
 781 104 781 104 823 80 c 0,18,19
 899 34 899 34 941 12 c 0,20,21
 979 -8 979 -8 999 -23 c 128,-1,22
 1019 -38 1019 -38 1014 -54 c 0,23,24
 1012 -63 1012 -63 1008 -66.5 c 128,-1,25
 1004 -70 1004 -70 995 -70 c 2,26,-1
 899 -70 l 2,27,28
 833 -70 833 -70 812 -71 c 2,29,-1
 784 -71 l 2,30,31
 765 -71 765 -71 760.5 -70 c 128,-1,32
 756 -69 756 -69 752 -65 c 0,33,34
 746 -59 746 -59 746 -55 c 0,35,36
 746 -49 746 -49 759 -45 c 0,37,38
 816 -24 816 -24 816 4 c 0,39,40
 816 20 816 20 798.5 39 c 128,-1,41
 781 58 781 58 746 84 c 0,42,43
 718 105 718 105 689 120 c 128,-1,44
 660 135 660 135 601 163 c 2,45,-1
 566 179 l 2,46,47
 527 198 527 198 472.5 208.5 c 128,-1,48
 418 219 418 219 364 219 c 256,49,50
 310 219 310 219 269 207 c 0,51,52
 220 192 220 192 192 152 c 128,-1,53
 164 112 164 112 164 59 c 0,54,55
 164 -23 164 -23 239 -41 c 0,56,57
 269 -48 269 -48 287 -49 c 0,58,59
 302 -50 302 -50 302 -61 c 0,60,61
 302 -68 302 -68 295 -70 c 0,62,0
 276 -76 276 -76 243 -76 c 256,1,2
EndSplineSet
EndChar

StartChar: trademark
Encoding: 8482 8482 99
Width: 1224
GlyphClass: 1
Flags: W
LayerCount: 2
Fore
SplineSet
1128 5 m 0,1,2
 1108 7 1108 7 1083 7 c 2,3,-1
 204 7 l 2,4,5
 168 7 168 7 142 15 c 0,6,7
 124 21 124 21 100 36 c 0,8,9
 78 50 78 50 49 88 c 2,10,-1
 31 113 l 2,11,12
 30 115 30 115 30 119 c 0,13,14
 30 125 30 125 34 130 c 128,-1,15
 38 135 38 135 42 135 c 0,16,17
 48 135 48 135 54 131 c 0,18,19
 71 120 71 120 94 115 c 0,20,21
 109 112 109 112 136 112 c 2,22,-1
 1028 112 l 2,23,24
 1080 112 1080 112 1109 96 c 0,25,26
 1125 87 1125 87 1134 80 c 128,-1,27
 1143 73 1143 73 1160 56 c 0,28,29
 1176 40 1176 40 1185 27.5 c 128,-1,30
 1194 15 1194 15 1194 4 c 0,31,32
 1194 -4 1194 -4 1192 -7 c 0,33,34
 1190 -12 1190 -12 1186 -13.5 c 128,-1,35
 1182 -15 1182 -15 1177 -12 c 0,36,0
 1157 2 1157 2 1128 5 c 0,1,2
929 -231 m 0,38,39
 916 -230 916 -230 911.5 -224.5 c 128,-1,40
 907 -219 907 -219 896 -197 c 0,41,42
 892 -191 892 -191 882 -165 c 0,43,44
 863 -120 863 -120 852 -97 c 0,45,46
 848 -89 848 -89 845 -86.5 c 128,-1,47
 842 -84 842 -84 832 -82 c 0,48,49
 825 -81 825 -81 821 -76 c 128,-1,50
 817 -71 817 -71 817 -65 c 0,51,52
 817 -53 817 -53 832 -53 c 2,53,-1
 880 -53 l 2,54,55
 928 -53 928 -53 949 -55 c 0,56,57
 958 -56 958 -56 965.5 -68 c 128,-1,58
 973 -80 973 -80 984 -108 c 0,59,60
 1008 -169 1008 -169 1023 -192 c 0,61,62
 1029 -203 1029 -203 1032.5 -205 c 128,-1,63
 1036 -207 1036 -207 1045 -209 c 0,64,65
 1049 -210 1049 -210 1052.5 -214.5 c 128,-1,66
 1056 -219 1056 -219 1056 -223 c 0,67,68
 1056 -234 1056 -234 1038 -234 c 0,69,37
 955 -234 955 -234 929 -231 c 0,38,39
EndSplineSet
EndChar

StartChar: bar
Encoding: 124 124 100
Width: 0
GlyphClass: 1
Flags: W
LayerCount: 2
Fore
SplineSet
-660 304 m 2,1,-1
 -660 705 l 2,2,3
 -660 711 -660 711 -646 711 c 0,4,5
 -631 711 -631 711 -631 705 c 2,6,-1
 -631 304 l 2,7,8
 -631 297 -631 297 -645 297 c 0,9,0
 -660 297 -660 297 -660 304 c 2,1,-1
EndSplineSet
EndChar

StartChar: grave
Encoding: 96 96 101
Width: 573
GlyphClass: 1
Flags: W
LayerCount: 2
Fore
SplineSet
128 2 m 0,1,2
 126 7 126 7 106.5 66.5 c 128,-1,3
 87 126 87 126 69 163 c 0,4,5
 66 170 66 170 61 172 c 128,-1,6
 56 174 56 174 45 176 c 0,7,8
 38 177 38 177 34 181.5 c 128,-1,9
 30 186 30 186 30 192 c 0,10,11
 30 203 30 203 45 203 c 2,12,-1
 94 203 l 2,13,14
 145 203 145 203 166 201 c 0,15,16
 184 200 184 200 201 153 c 2,17,-1
 214 116 l 2,18,19
 217 106 217 106 232 61.5 c 128,-1,20
 247 17 247 17 255 7 c 0,21,22
 267 -10 267 -10 270.5 -14 c 128,-1,23
 274 -18 274 -18 282 -19 c 0,24,25
 286 -20 286 -20 289.5 -24 c 128,-1,26
 293 -28 293 -28 293 -32 c 0,27,28
 293 -42 293 -42 275 -42 c 0,29,30
 192 -42 192 -42 166 -39 c 0,31,0
 141 -36 141 -36 128 2 c 0,1,2
378 2 m 0,33,34
 376 7 376 7 356.5 66.5 c 128,-1,35
 337 126 337 126 319 163 c 0,36,37
 316 170 316 170 311 172 c 128,-1,38
 306 174 306 174 295 176 c 0,39,40
 288 177 288 177 284 181.5 c 128,-1,41
 280 186 280 186 280 192 c 0,42,43
 280 203 280 203 295 203 c 2,44,-1
 344 203 l 2,45,46
 395 203 395 203 416 201 c 0,47,48
 434 200 434 200 451 153 c 2,49,-1
 464 116 l 2,50,51
 467 106 467 106 482 61.5 c 128,-1,52
 497 17 497 17 505 7 c 0,53,54
 517 -10 517 -10 520.5 -14 c 128,-1,55
 524 -18 524 -18 532 -19 c 0,56,57
 536 -20 536 -20 539.5 -24 c 128,-1,58
 543 -28 543 -28 543 -32 c 0,59,60
 543 -42 543 -42 525 -42 c 0,61,62
 442 -42 442 -42 416 -39 c 0,63,32
 391 -36 391 -36 378 2 c 0,33,34
EndSplineSet
EndChar

